<svg viewBox="0 0 26 26" xmlns="http://www.w3.org/2000/svg">
  <style>
      @media (prefers-color-scheme: dark) {
      :root {
        filter: invert(100%);
      }
    }
  </style>
  <path d="M13.0962 3.62012C18.3847 3.62027 22.6714 7.90774 22.6714 13.1963C22.6713 18.4847 18.3846 22.7723 13.0962 22.7725C7.80762 22.7725 3.52013 18.4848 3.52002 13.1963V6.29102C3.52027 4.81602 4.71592 3.62033 6.19092 3.62012H13.0962ZM10.0542 6.3252C9.94201 5.94156 9.39784 5.94156 9.28564 6.3252L8.60107 8.66797C8.5628 8.79884 8.46043 8.90208 8.32959 8.94043L5.98584 9.625C5.60224 9.73721 5.60222 10.2814 5.98584 10.3936L8.32959 11.0781C8.46029 11.1165 8.56273 11.2189 8.60107 11.3496L9.28564 13.6934C9.39784 14.077 9.942 14.077 10.0542 13.6934L10.7388 11.3496C10.7771 11.2188 10.8804 11.1164 11.0112 11.0781L13.354 10.3936C13.7376 10.2814 13.7376 9.73719 13.354 9.625L11.0112 8.94043C10.8803 8.90213 10.7771 8.79892 10.7388 8.66797L10.0542 6.3252Z" fill="black" fill-opacity="0.95"/>
</svg>
