<svg width="135" height="36" viewBox="0 0 135 36" fill="none" xmlns="http://www.w3.org/2000/svg">
<circle cx="13.1579" cy="20.7369" r="8.22367" fill="#E4E4E4"/>
<ellipse cx="17.2696" cy="25.6712" rx="5.75657" ry="4.9342" transform="rotate(-28.9531 17.2696 25.6712)" fill="#CCCCCC"/>
<path d="M44.2584 8.84229C47.311 8.84229 49.697 9.78965 51.4163 11.6844C53.1707 13.5791 54.0478 16.351 54.0478 20.0002V34.5265H48.9952V20.4212C48.9952 18.2809 48.5566 16.6668 47.6794 15.5791C46.8373 14.4563 45.3812 13.8949 43.311 13.8949C41.6268 13.8949 40.0479 14.5265 38.5742 15.7896C37.1005 17.0177 36.3637 18.6317 36.3637 20.6317V34.5265H31.311V9.26334H36.3637V12.2107C38.3286 9.96509 40.9601 8.84229 44.2584 8.84229Z" fill="black"/>
<path d="M88.6986 9.03306H94.4004L82.9969 34.5264L74.6636 18.6959L66.3302 34.5264L54.9268 9.03306H60.6285L66.7688 23.7329L74.6636 8.21069L82.5583 23.7329L88.6986 9.03306Z" fill="black"/>
<circle cx="108.552" cy="22.3819" r="8.22367" fill="#E4E4E4"/>
<ellipse cx="106.085" cy="26.4937" rx="4.11184" ry="5.75657" transform="rotate(-33.4979 106.085 26.4937)" fill="#CCCCCC"/>
<path d="M110.143 36.0002C113.968 36.0002 117.073 34.6494 119.459 31.9476C121.845 29.2459 122.792 25.9652 122.301 22.1055C121.81 18.2459 120.038 14.9652 116.985 12.2634C113.968 9.56169 110.547 8.21081 106.722 8.21081C102.862 8.21081 99.7396 9.56169 97.3537 12.2634C95.0028 15.0003 94.0554 18.281 94.5116 22.1055C94.9677 25.9301 96.7221 29.1932 99.7747 31.895C102.827 34.6318 106.283 36.0002 110.143 36.0002ZM102.722 17.0529C103.95 15.6494 105.547 14.9476 107.512 14.9476C109.476 14.9476 111.248 15.6494 112.827 17.0529C114.406 18.4564 115.319 20.1406 115.564 22.1055C115.81 24.0704 115.319 25.7546 114.09 27.1582C112.862 28.5617 111.266 29.2634 109.301 29.2634C107.336 29.2634 105.564 28.5617 103.985 27.1582C102.406 25.7546 101.494 24.0704 101.248 22.1055C101.003 20.1406 101.494 18.4564 102.722 17.0529Z" fill="black"/>
<path d="M15.7427 7.5791C19.5673 7.5791 22.6726 8.92998 25.0585 11.6317C27.4445 14.3335 28.3918 17.6142 27.9006 21.4738C27.4094 25.3335 25.6375 28.6142 22.5848 31.3159C19.5673 34.0177 16.1462 35.3685 12.3217 35.3685C8.46205 35.3685 5.33925 34.0177 2.95329 31.3159C0.602411 28.5791 -0.344956 25.2984 0.111184 21.4738C0.567324 17.6493 2.32171 14.3861 5.37433 11.6844C8.42696 8.94752 11.8831 7.5791 15.7427 7.5791ZM8.3217 26.5264C9.54977 27.9299 11.1463 28.6317 13.1112 28.6317C15.0761 28.6317 16.848 27.9299 18.4269 26.5264C20.0059 25.1229 20.9182 23.4387 21.1638 21.4738C21.4094 19.5089 20.9182 17.8247 19.6901 16.4212C18.462 15.0177 16.8655 14.3159 14.9006 14.3159C12.9357 14.3159 11.1638 15.0177 9.58485 16.4212C8.00591 17.8247 7.09363 19.5089 6.84802 21.4738C6.6024 23.4387 7.09363 25.1229 8.3217 26.5264Z" fill="black"/>
<rect x="121" width="14" height="14" rx="2" fill="#5C33CF"/>
<path d="M126.328 11.096C125.52 11.096 124.928 10.876 124.552 10.436C124.184 9.98804 124 9.32804 124 8.45604V5.24004H124.768V8.64804C124.768 9.76804 125.28 10.328 126.304 10.328C126.784 10.328 127.224 10.168 127.624 9.84804C128.024 9.52804 128.224 9.11204 128.224 8.60004V5.24004H128.992V11H128.224V10.112C128.064 10.368 127.804 10.596 127.444 10.796C127.084 10.996 126.712 11.096 126.328 11.096Z" fill="white"/>
<path d="M131.478 4.08804C131.35 4.21604 131.194 4.28004 131.01 4.28004C130.826 4.28004 130.666 4.21604 130.53 4.08804C130.402 3.95204 130.338 3.79204 130.338 3.60804C130.338 3.42404 130.402 3.26804 130.53 3.14004C130.666 3.00404 130.826 2.93604 131.01 2.93604C131.194 2.93604 131.35 3.00404 131.478 3.14004C131.614 3.26804 131.682 3.42404 131.682 3.60804C131.682 3.79204 131.614 3.95204 131.478 4.08804ZM130.626 11V5.24004H131.394V11H130.626Z" fill="white"/>
</svg>
