<svg xmlns="http://www.w3.org/2000/svg" viewBox="0 0 480 198" width="480" height="198">
  <style>
    .bg { fill: #FFFFFF; stroke: #E0E0E0; }
    .grid-line { stroke: #E0E0E0; stroke-width: 1; }
    .label { font-family: -apple-system, BlinkMacSystemFont, "Segoe UI", Roboto, Helvetica, Arial, sans-serif; font-size: 6px; font-weight: 500; fill: #B3B5BA; }
    .overlay-cat { font-family: -apple-system, BlinkMacSystemFont, "Segoe UI", Roboto, Helvetica, Arial, sans-serif; font-size: 9.5px; font-weight: 400; fill: #797C82; }
    .overlay-title { font-family: -apple-system, BlinkMacSystemFont, "Segoe UI", Roboto, Helvetica, Arial, sans-serif; font-size: 14.5px; font-weight: 700; fill: #17181C; }
    .overlay-meta { font-family: -apple-system, BlinkMacSystemFont, "Segoe UI", Roboto, Helvetica, Arial, sans-serif; font-size: 9.5px; font-weight: 400; fill: #797C82; }
  </style>

  <rect width="480" height="198" class="bg" />

  <line x1="0" y1="49.5" x2="480" y2="49.5" class="grid-line" />
  <line x1="0" y1="99" x2="336" y2="99" class="grid-line" />
  <line x1="0" y1="148.5" x2="336" y2="148.5" class="grid-line" />
  <line x1="48" y1="0" x2="48" y2="198" class="grid-line" />
  <line x1="96" y1="0" x2="96" y2="198" class="grid-line" />
  <line x1="144" y1="0" x2="144" y2="198" class="grid-line" />
  <line x1="192" y1="0" x2="192" y2="198" class="grid-line" />
  <line x1="240" y1="0" x2="240" y2="198" class="grid-line" />
  <line x1="288" y1="0" x2="288" y2="198" class="grid-line" />
  <line x1="336" y1="0" x2="336" y2="99" class="grid-line" />
  <line x1="384" y1="0" x2="384" y2="99" class="grid-line" />
  <line x1="432" y1="0" x2="432" y2="99" class="grid-line" />
  <line x1="336" y1="99" x2="480" y2="99" class="grid-line" />
  <line x1="336" y1="99" x2="336" y2="198" class="grid-line" />

  <!-- Cell: airplane -->
  <text x="2" y="46.50" class="label">airplane</text>
  <g transform="translate(15.00, 15.75) scale(0.3214, 0.3214) translate(0, 0)" color="#17181C">
    <path fill="currentColor" d="M54.414 28c-.023-2.742-3.75-4.734-8.227-4.734h-9.445c-1.312 0-1.805-.211-2.578-1.102l-15.75-17.18c-.492-.562-1.102-.843-1.805-.843H13.89c-.609 0-.96.539-.656 1.195l8.11 17.93l-11.907 1.359l-4.242-7.781c-.304-.586-.82-.844-1.594-.844H2.595c-.61 0-1.008.398-1.008 1.008v21.984c0 .61.398.985 1.008.985h1.008c.773 0 1.289-.258 1.593-.82l4.242-7.782l11.907 1.36l-8.11 17.93c-.304.632.047 1.194.656 1.194h2.72c.702 0 1.312-.304 1.804-.843l15.75-17.203c.773-.868 1.266-1.079 2.578-1.079h9.445c4.477 0 8.204-2.015 8.227-4.734"/>
  </g>
  <!-- Cell: alarm -->
  <text x="50" y="46.50" class="label">alarm</text>
  <g transform="translate(63.00, 15.75) scale(0.3214, 0.3214) translate(0, 0)" color="#17181C">
    <path fill="currentColor" d="M8.734 13.469c.352 0 .61-.047.938-.305l7.851-5.93c.399-.28.61-.656.61-1.054c0-.492-.235-.89-.633-1.266c-.89-.797-2.485-1.242-3.89-1.242a6.547 6.547 0 0 0-6.587 6.586c0 .867.141 1.734.375 2.273c.258.586.774.938 1.336.938m38.508 0c.586 0 1.055-.375 1.336-.938c.258-.515.398-1.406.398-2.273c0-3.656-2.93-6.586-6.609-6.586c-1.383 0-2.976.445-3.867 1.242c-.399.375-.633.774-.633 1.266c0 .398.211.773.586 1.054l7.852 5.93c.328.258.586.305.937.305M8.382 51.602a1.805 1.805 0 0 0 2.602-.024l3.703-3.68A22.38 22.38 0 0 0 28 52.282c4.992 0 9.586-1.64 13.312-4.382l3.704 3.68c.726.75 1.875.75 2.578.023c.68-.68.703-1.828-.024-2.532l-3.562-3.539a22.27 22.27 0 0 0 6.398-15.656C50.406 17.5 40.375 7.445 28 7.445S5.594 17.5 5.594 29.875a22.35 22.35 0 0 0 6.375 15.656l-3.563 3.54c-.703.703-.703 1.85-.023 2.53M28 48.274c-10.172 0-18.422-8.227-18.422-18.399c0-10.148 8.25-18.398 18.422-18.398c10.148 0 18.375 8.25 18.375 18.398c0 10.172-8.227 18.399-18.375 18.399m-10.664-15.82h10.64c.915 0 1.641-.704 1.641-1.618V16.633a1.63 1.63 0 0 0-1.64-1.64c-.915 0-1.618.726-1.618 1.64v12.562h-9.023c-.938 0-1.64.727-1.64 1.64c0 .915.702 1.618 1.64 1.618"/>
  </g>
  <!-- Cell: alt -->
  <text x="98" y="46.50" class="label">alt</text>
  <g transform="translate(111.00, 15.75) scale(0.3214, 0.3214) translate(0, 0)" color="#17181C">
    <path fill="currentColor" d="M6.297 49.48H17.57c2.04 0 3.703-1.101 4.5-2.93l15.375-34.663c.375-.774.961-1.125 1.922-1.125h10.36c1.218 0 2.203-.961 2.203-2.133s-.985-2.11-2.203-2.11H38.313c-2.18 0-3.61.915-4.477 2.883L18.414 44.09c-.375.773-.984 1.148-1.828 1.148H6.296c-1.241 0-2.226.938-2.226 2.133s.985 2.11 2.227 2.11m28.266 0h15.164c1.242 0 2.18-.89 2.18-2.085c0-1.196-.938-2.11-2.18-2.11H34.563c-1.243 0-2.204.914-2.204 2.11s.961 2.085 2.203 2.085"/>
  </g>
  <!-- Cell: ant -->
  <text x="146" y="46.50" class="label">ant</text>
  <g transform="translate(159.00, 15.75) scale(0.3214, 0.3214) translate(0, 0)" color="#17181C">
    <path fill="currentColor" d="M12.332 54.566c1.102 0 1.922-.797 1.711-2.132l-1.711-11.227c-.234-1.406.258-2.04 1.875-2.484l1.805-.492c-.282.867-.422 1.851-.422 2.976c0 7.664 5.789 14.79 12.398 14.79c6.633 0 12.422-7.126 12.422-14.79c0-1.125-.14-2.11-.422-2.977l1.805.493c1.617.445 2.11 1.078 1.875 2.484l-1.711 11.227c-.21 1.336.61 2.132 1.71 2.132c1.15 0 1.665-.703 1.852-1.875l1.922-12.164c.446-2.742-.68-4.218-3.68-4.945l-10.359-2.46v-.235c1.008-.492 1.711-1.43 2.086-2.532l6.867-1.007c2.93-.399 4.243-2.04 4.243-4.922v-8.11c0-1.148-.657-1.804-1.782-1.804s-1.78.68-1.78 1.804V23.7c0 1.664-.892 2.18-2.415 2.414l-5.133.727a3.7 3.7 0 0 0-1.36-1.805v-.234c4.009-.703 6-3.14 6-6.703c0-3-1.1-5.742-2.929-7.875l.188-.141c2.273-1.64 2.695-4.055 1.218-6.656l-1.382-2.274C36.777.356 36.262.39 35.535.39c-.96 0-1.687.317-1.687 1.231c0 .422.07.656.328 1.125l1.218 1.852c.82 1.336.727 2.46-.445 3.304l-.187.118a12.06 12.06 0 0 0-6.774-2.086c-2.46 0-4.781.75-6.703 2.062l-.14-.094c-1.172-.843-1.266-1.968-.446-3.304l1.219-1.852c.258-.469.328-.703.328-1.125C22.246.707 21.52.39 20.56.39c-.727 0-1.243-.035-1.688.762l-1.383 2.274c-1.476 2.601-1.054 5.015 1.219 6.656l.117.094a12.1 12.1 0 0 0-2.976 7.922c0 3.562 2.015 6 6.023 6.703v.234a3.7 3.7 0 0 0-1.36 1.805l-5.132-.727c-1.547-.234-2.414-.75-2.414-2.414v-7.383c0-1.125-.656-1.804-1.781-1.804s-1.782.656-1.782 1.804v8.11c0 2.883 1.313 4.523 4.243 4.922l6.867 1.008c.375 1.101 1.078 2.038 2.086 2.53v.235l-10.36 2.461c-3.023.727-4.125 2.203-3.68 4.945l1.922 12.164c.165 1.172.704 1.875 1.852 1.875m11.438-33.21c-2.555 0-4.055-1.243-4.055-3.399c0-4.36 3.89-8.133 8.273-8.133c4.407 0 8.297 3.774 8.297 8.133c0 2.156-1.5 3.398-4.054 3.398Zm-.024 7.054c0-2.156 1.313-3.398 3.586-3.398h1.36c2.25 0 3.538 1.242 3.538 3.398c0 2.649-1.804 4.899-3.96 4.899h-.54c-2.156 0-3.984-2.25-3.984-4.899m4.242 23.672c-4.828 0-8.578-5.672-8.578-10.383c0-3.14 1.828-5.039 5.344-5.039h6.492c3.516 0 5.32 1.899 5.32 5.04c0 4.71-3.726 10.382-8.578 10.382"/>
  </g>
  <!-- Cell: ant-circle -->
  <text x="194" y="46.50" class="label">ant-circle</text>
  <g transform="translate(207.00, 15.75) scale(0.3214, 0.3214) translate(0, 0)" color="#17181C">
    <path fill="currentColor" d="M28 51.906c13.055 0 23.906-10.828 23.906-23.906c0-13.055-10.875-23.906-23.93-23.906C14.899 4.094 4.095 14.945 4.095 28c0 13.078 10.828 23.906 23.906 23.906m0-3.984C16.937 47.922 8.1 39.062 8.1 28c0-11.04 8.813-19.922 19.876-19.922c11.039 0 19.921 8.883 19.945 19.922c.023 11.063-8.883 19.922-19.922 19.922m0-4.688c3.703 0 6.937-4.007 6.937-8.297c0-.703-.093-1.265-.351-1.734c.398.094.773.188 1.148.305c.914.234 1.172.61 1.055 1.406l-.961 6.305c-.14.726.328 1.195.961 1.195c.61 0 .914-.398 1.008-1.055l1.054-6.82c.282-1.523-.351-2.367-2.039-2.789l-5.789-1.36v-.14c.586-.281.938-.82 1.102-1.43l3.914-.562c1.64-.235 2.367-1.149 2.367-2.742v-4.547c0-.633-.351-1.008-1.008-1.008c-.609 0-.96.375-.96 1.008v4.125c0 .937-.516 1.242-1.36 1.383l-2.883.398a1.85 1.85 0 0 0-.773-1.008v-.14c2.273-.422 3.375-1.758 3.375-3.774a6.7 6.7 0 0 0-1.664-4.406l.117-.094c1.289-.937 1.5-2.297.656-3.726l-.773-1.29c-.258-.445-.54-.632-.961-.632c-.54 0-.914.375-.914.89a1 1 0 0 0 .164.61l.703 1.078c.398.61.539 1.195.047 1.617a3 3 0 0 0-.352.305c-1.148-.75-2.555-1.172-3.82-1.172c-1.336 0-2.742.422-3.773 1.172a5 5 0 0 1-.352-.328c-.398-.352-.398-.915.023-1.594l.703-1.078c.141-.235.188-.375.188-.61c0-.515-.399-.89-.938-.89c-.398 0-.68.187-.914.633l-.82 1.289c-.82 1.43-.68 2.953.68 3.726l.093.07a6.74 6.74 0 0 0-1.687 4.43c0 2.016 1.102 3.352 3.352 3.774v.14a1.92 1.92 0 0 0-.75 1.008l-2.883-.398c-.867-.141-1.36-.446-1.36-1.383v-4.125c0-.633-.351-1.008-.984-1.008s-1.008.375-1.008 1.008v4.547c0 1.593.75 2.507 2.39 2.742l3.891.562c.165.61.54 1.149 1.102 1.43v.14l-5.789 1.36c-1.664.422-2.297 1.266-2.04 2.789l1.056 6.82c.117.657.398 1.055 1.03 1.055c.61 0 1.079-.469.938-1.195l-.96-6.305c-.118-.797.14-1.172 1.054-1.406c.398-.117.773-.211 1.148-.305c-.234.469-.351 1.031-.351 1.734c0 4.29 3.234 8.297 6.96 8.297"/>
  </g>
  <!-- Cell: antenna-radiowaves-left-right -->
  <text x="242" y="46.50" class="label">antenna-radiow…</text>
  <g transform="translate(255.00, 15.75) scale(0.3214, 0.3214) translate(0, 0)" color="#17181C">
    <path fill="currentColor" d="M43.832 39.04c.75.866 2.063.866 2.953-.118c3.89-4.219 6.094-9.844 6.094-15.914s-2.203-11.695-6.094-15.914c-.89-.985-2.203-.985-2.953-.118c-.75.844-.539 1.946.328 2.907c3.14 3.492 4.899 8.086 4.899 13.125S47.3 32.64 44.16 36.133c-.867.96-1.078 2.062-.328 2.906m-31.664 0c.75-.845.516-1.946-.328-2.907c-3.14-3.492-4.898-8.086-4.898-13.125c0-5.04 1.757-9.633 4.898-13.125c.844-.961 1.078-2.063.328-2.906c-.75-.868-2.062-.868-2.976.117c-3.891 4.219-6.07 9.843-6.07 15.914S5.3 34.703 9.191 38.922c.913.984 2.226.984 2.976.117m7.031-6.68c.75-.844.422-1.9-.304-2.907c-1.407-1.734-2.11-4.008-2.11-6.445s.75-4.64 2.11-6.445c.726-1.032 1.054-2.063.304-2.907c-.773-.89-2.18-.914-3 .164a14.6 14.6 0 0 0-3.234 9.188c0 3.445 1.195 6.656 3.234 9.187c.82 1.078 2.227 1.055 3 .164m17.578 0c.797.89 2.18.913 3.024-.165c2.039-2.53 3.21-5.742 3.21-9.187s-1.171-6.656-3.21-9.188c-.844-1.078-2.227-1.054-3.024-.164c-.75.844-.422 1.875.305 2.906c1.36 1.805 2.11 4.008 2.11 6.446s-.704 4.71-2.11 6.445c-.727 1.008-1.055 2.063-.305 2.906m-8.789 17.53c1.125 0 1.805-.796 1.805-2.015V26.828a4.22 4.22 0 0 0 2.414-3.82c0-2.344-1.852-4.242-4.219-4.242c-2.343 0-4.195 1.898-4.195 4.242c0 1.687.961 3.14 2.414 3.82v21.047c0 1.195.727 2.016 1.781 2.016"/>
  </g>
  <!-- Cell: app -->
  <text x="290" y="46.50" class="label">app</text>
  <g transform="translate(303.00, 15.75) scale(0.3214, 0.3214) translate(0, 0)" color="#17181C">
    <path fill="currentColor" d="M46.867 9.262c-2.39-2.39-5.765-2.766-9.75-2.766H18.836c-3.937 0-7.312.375-9.703 2.766S6.39 15.004 6.39 18.918v18.094c0 4.008.351 7.336 2.742 9.726s5.766 2.766 9.773 2.766h18.211c3.985 0 7.36-.375 9.75-2.766c2.391-2.39 2.742-5.718 2.742-9.726V18.988c0-4.008-.351-7.36-2.742-9.726m-1.031 9.07v19.313c0 2.437-.305 4.921-1.71 6.351c-1.43 1.406-3.962 1.734-6.376 1.734h-19.5c-2.414 0-4.945-.328-6.351-1.734c-1.43-1.43-1.735-3.914-1.735-6.352V18.403c0-2.46.305-4.992 1.711-6.398c1.43-1.43 3.984-1.734 6.445-1.734h19.43c2.414 0 4.945.328 6.375 1.734c1.406 1.43 1.711 3.914 1.711 6.328"/>
  </g>
  <!-- Cell: app-badge -->
  <text x="338" y="46.50" class="label">app-badge</text>
  <g transform="translate(351.00, 15.75) scale(0.3214, 0.3214) translate(0, 0)" color="#17181C">
    <path fill="currentColor" d="M43.633 20.594c4.453 0 8.133-3.68 8.133-8.133s-3.657-8.133-8.133-8.133c-4.453 0-8.11 3.68-8.11 8.133s3.657 8.133 8.11 8.133M4.234 39.18c0 4.008.352 7.336 2.742 9.726s5.766 2.766 9.774 2.766h18.21c3.985 0 7.36-.375 9.75-2.766c2.392-2.39 2.743-5.718 2.743-9.726V23.219a9.7 9.7 0 0 1-3.328.515c-.164.024-.281.024-.445.047v16.032c0 2.437-.305 4.921-1.711 6.351c-1.43 1.406-3.961 1.734-6.375 1.734h-19.5c-2.414 0-4.946-.328-6.352-1.734c-1.43-1.43-1.734-3.914-1.734-6.352V20.57c0-2.46.304-4.992 1.71-6.398c1.43-1.43 3.985-1.735 6.446-1.735h16.172c0-.163.023-.304.047-.445c-.024-1.172.14-2.297.515-3.328H16.68c-3.938 0-7.313.375-9.703 2.766c-2.391 2.39-2.743 5.742-2.743 9.656Z"/>
  </g>
  <!-- Cell: archivebox -->
  <text x="386" y="46.50" class="label">archivebox</text>
  <g transform="translate(399.00, 15.75) scale(0.3214, 0.3214) translate(0, 0)" color="#17181C">
    <path fill="currentColor" d="M15.144 49.574H40.88c4.593 0 7.054-2.39 7.054-6.984V19.246c2.274-.375 3.493-2.086 3.493-4.594V11.09c0-2.86-1.57-4.664-4.454-4.664H9.027c-2.742 0-4.453 1.804-4.453 4.664v3.562c0 2.508 1.242 4.22 3.492 4.594V42.59c0 4.617 2.485 6.984 7.078 6.984M9.988 15.777c-1.172 0-1.64-.492-1.64-1.664V11.63c0-1.172.468-1.664 1.64-1.664h36.047c1.195 0 1.617.492 1.617 1.664v2.484c0 1.172-.422 1.664-1.617 1.664Zm5.133 30.258c-2.11 0-3.281-1.148-3.281-3.258v-23.46h32.32v23.46c0 2.11-1.172 3.258-3.258 3.258Zm5.156-17.273H35.77c.961 0 1.665-.68 1.665-1.711v-.75c0-1.031-.704-1.688-1.665-1.688H20.277c-.984 0-1.664.657-1.664 1.688v.75c0 1.031.68 1.71 1.664 1.71"/>
  </g>
  <!-- Cell: arrow-2-circlepath -->
  <text x="434" y="46.50" class="label">arrow-2-circle…</text>
  <g transform="translate(447.00, 15.75) scale(0.3214, 0.3214) translate(0, 0)" color="#17181C">
    <path fill="currentColor" d="M53.949 26.303h-3.087c-1.24-11.47-11.11-20.597-22.873-20.597c-6.851 0-13.07 3.11-17.307 8c-.857.97-.722 2.163.157 2.794c.902.631 1.96.429 2.705-.405a19.12 19.12 0 0 1 14.445-6.558a19.074 19.074 0 0 1 18.997 16.766h-3.358c-1.6 0-2.028 1.082-1.15 2.321l5.026 7.189c.721 1.037 1.803 1.06 2.547 0l5.047-7.166c.902-1.262.474-2.344-1.149-2.344m-51.898 4.8h3.087c1.24 11.47 11.11 20.575 22.85 20.575c6.896 0 13.116-3.133 17.353-8c.811-.97.698-2.186-.158-2.817c-.901-.631-1.96-.406-2.704.428c-3.47 4.034-8.654 6.558-14.49 6.558A19.05 19.05 0 0 1 9.014 31.103h3.358c1.6 0 2.028-1.104 1.15-2.32l-5.049-7.19c-.72-1.036-1.78-1.059-2.524 0L.901 28.76C0 30 .428 31.104 2.051 31.104"/>
  </g>
  <!-- Cell: arrow-2-circlepath-circle -->
  <text x="2" y="96.00" class="label">arrow-2-circle…</text>
  <g transform="translate(15.00, 65.25) scale(0.3214, 0.3214) translate(0, 0)" color="#17181C">
    <path fill="currentColor" d="M28 51.906c13.055 0 23.906-10.828 23.906-23.906c0-13.055-10.875-23.906-23.93-23.906C14.899 4.094 4.095 14.945 4.095 28c0 13.078 10.828 23.906 23.906 23.906m0-3.984C16.937 47.922 8.1 39.062 8.1 28c0-11.04 8.813-19.922 19.876-19.922c11.039 0 19.921 8.883 19.945 19.922c.023 11.063-8.883 19.922-19.922 19.922m10.078-14.93c.633.867 1.711.938 2.367 0l3.75-5.297c.61-.843.375-1.875-.703-1.875h-2.344c-1.147-6.492-6.421-10.992-13.1-10.992c-2.93 0-5.86 1.031-7.899 2.719c-1.125.867-1.383 2.086-.562 2.953c.797.89 1.875.75 2.812.047c1.688-1.313 3.375-2.016 5.649-2.016c4.664 0 8.554 3.164 9.586 7.29h-2.625c-1.078 0-1.336 1.03-.727 1.874Zm-25.57-2.906h2.46c1.15 6.492 6.422 10.992 13.126 10.992c2.906 0 5.859-1.008 7.898-2.695c1.102-.89 1.36-2.11.563-2.977c-.82-.89-1.899-.726-2.813-.047c-1.687 1.313-3.375 2.04-5.648 2.04c-4.688 0-8.579-3.165-9.61-7.313h2.485c1.101 0 1.336-1.031.75-1.875l-3.82-5.273c-.61-.891-1.712-.938-2.368 0l-3.75 5.273c-.61.844-.375 1.875.727 1.875"/>
  </g>
  <!-- Cell: arrow-2-squarepath -->
  <text x="50" y="96.00" class="label">arrow-2-square…</text>
  <g transform="translate(63.00, 65.25) scale(0.3214, 0.3214) translate(0, 0)" color="#17181C">
    <path fill="currentColor" d="M40.131 7.904h-18.27c-1.28 0-2.02.65-1.997 1.795s.718 1.818 1.997 1.818h18.203c2.245 0 3.501 1.19 3.501 3.524v24.375l-3.366-3.59l-2.133-2.11c-.763-.741-1.84-.831-2.603-.068s-.718 1.863.045 2.626l7.564 7.519c1.459 1.459 3.097 1.459 4.556 0l7.564-7.519c.785-.763.808-1.863.045-2.626s-1.818-.696-2.582.067l-2.154 2.11l-3.322 3.569V14.862c0-4.646-2.379-6.958-7.048-6.958m-24.24 41.32h18.27c1.28 0 2.02-.65 1.998-1.795c-.023-1.167-.719-1.818-1.998-1.818H15.936c-2.245 0-3.48-1.19-3.48-3.524V17.712l3.345 3.569l2.155 2.132c.763.74 1.818.83 2.604.045c.763-.74.718-1.84-.045-2.604l-7.564-7.541c-1.482-1.437-3.098-1.437-4.58 0L.809 20.854C.9 21.618 0 22.717.763 23.458c.763.786 1.84.696 2.604-.045l2.154-2.132l3.322-3.546v24.532c0 4.646 2.357 6.958 7.048 6.958"/>
  </g>
  <!-- Cell: arrow-3-trianglepath -->
  <text x="98" y="96.00" class="label">arrow-3-triang…</text>
  <g transform="translate(111.00, 65.25) scale(0.3214, 0.3214) translate(0, 0)" color="#17181C">
    <path fill="currentColor" d="M39.215 23.137c.797.21 1.406.21 2.015-.164c.61-.375.938-.867 1.149-1.664l1.969-7.805c.257-.984-.282-1.922-1.266-2.156c-.961-.258-1.969.28-2.18 1.289l-.984 4.195l-6.352-11.32c-1.195-2.156-3.351-3.258-5.554-3.258a6.41 6.41 0 0 0-5.579 3.258l-6.468 11.554c-.586 1.055-.258 2.063.633 2.602c.937.516 2.039.188 2.578-.75l6.468-11.602c.54-.937 1.454-1.335 2.368-1.335s1.804.398 2.32 1.335l6.445 11.508l-4.336-1.289c-.984-.305-1.945.258-2.203 1.242c-.281.938.235 1.899 1.242 2.18ZM9.965 47.418h12.562c1.102 0 1.922-.773 1.922-1.828s-.82-1.852-1.922-1.852H9.988c-1.617 0-2.695-1.336-2.695-2.789c0-.422.07-.937.328-1.383l6-10.734l.984 4.195c.211 1.008 1.22 1.547 2.18 1.29c.984-.235 1.547-1.172 1.266-2.157l-1.97-7.804c-.21-.774-.538-1.313-1.147-1.665c-.61-.375-1.196-.398-1.993-.164l-7.734 2.18c-1.031.281-1.547 1.242-1.266 2.18c.258.984 1.219 1.57 2.203 1.242l4.336-1.29l-6.093 10.923c-.586 1.031-.891 2.133-.891 3.187c0 3.633 2.484 6.469 6.469 6.469m24.539 5.578c.726.75 1.828.703 2.531 0c.703-.68.703-1.805-.047-2.531l-3.21-3.047h12.257c3.985 0 6.469-2.836 6.469-6.469c0-1.054-.281-2.133-.867-3.187l-6.188-11.086c-.562-1.008-1.64-1.242-2.555-.703c-.914.539-1.218 1.64-.703 2.578l6.188 11.015c.234.446.351.961.351 1.383c0 1.453-1.125 2.79-2.742 2.79h-12.21l3.21-3.024c.75-.727.75-1.852.047-2.531c-.703-.727-1.805-.75-2.531 0l-5.742 5.578c-.586.562-.868 1.125-.868 1.828s.282 1.242.868 1.804Z"/>
  </g>
  <!-- Cell: arrow-branch -->
  <text x="146" y="96.00" class="label">arrow-branch</text>
  <g transform="translate(159.00, 65.25) scale(0.3214, 0.3214) translate(0, 0)" color="#17181C">
    <path fill="currentColor" d="m11.875 18.438l2.156-2.813c5.672 3.633 11.907 11.79 11.907 17.414v13.453c0 1.617.726 2.485 2.062 2.485c1.313 0 2.04-.868 2.04-2.485V33.04c0-5.555 6.116-13.617 11.812-17.344l1.992 2.72c.984 1.358 2.18 1.054 2.672-.47l2.953-8.625c.422-1.265-.258-2.156-1.547-2.133l-9.14.141c-1.571.024-2.227 1.055-1.266 2.39l1.898 2.602c-5.508 3.867-10.687 10.758-11.39 14.297h-.07c-.704-3.562-5.86-10.43-11.368-14.297l1.828-2.39c1.031-1.313.398-2.367-1.172-2.438l-9.14-.398c-1.29-.07-1.993.797-1.618 2.086l2.72 8.695c.468 1.547 1.64 1.898 2.671.563"/>
  </g>
  <!-- Cell: arrow-clockwise -->
  <text x="194" y="96.00" class="label">arrow-clockwise</text>
  <g transform="translate(207.00, 65.25) scale(0.3214, 0.3214) translate(0, 0)" color="#17181C">
    <path fill="currentColor" d="M27.145 26.184c.562 0 1.007-.188 1.359-.54l9.656-9.703a1.9 1.9 0 0 0 .586-1.406c0-.515-.21-1.031-.586-1.406l-9.656-9.797c-.328-.375-.797-.562-1.383-.562c-1.031 0-1.828.843-1.828 1.921c0 .493.164.961.516 1.336l6.257 6.14a24 24 0 0 0-4.078-.374A20.626 20.626 0 0 0 7.293 32.488c0 11.508 9.21 20.743 20.695 20.743a20.67 20.67 0 0 0 20.719-20.743c0-1.125-.797-1.945-1.969-1.945c-1.101 0-1.804.82-1.804 1.945a16.9 16.9 0 0 1-16.946 16.969c-9.398 0-16.922-7.547-16.922-16.969a16.855 16.855 0 0 1 16.922-16.922c1.805 0 3.422.141 4.852.446l-7.008 6.96a1.84 1.84 0 0 0-.539 1.337c0 1.078.797 1.875 1.852 1.875"/>
  </g>
  <!-- Cell: arrow-clockwise-circle -->
  <text x="242" y="96.00" class="label">arrow-clockwis…</text>
  <g transform="translate(255.00, 65.25) scale(0.3214, 0.3214) translate(0, 0)" color="#17181C">
    <path fill="currentColor" d="M28 51.906c13.055 0 23.906-10.828 23.906-23.906c0-13.055-10.875-23.906-23.93-23.906C14.899 4.094 4.095 14.945 4.095 28c0 13.078 10.828 23.906 23.906 23.906m0-3.984C16.937 47.922 8.1 39.062 8.1 28c0-11.04 8.813-19.922 19.876-19.922c11.039 0 19.921 8.883 19.945 19.922c.023 11.063-8.883 19.922-19.922 19.922M17.523 29.078c0 5.86 4.664 10.57 10.454 10.57c5.789 0 10.43-4.71 10.43-10.5c0-.867-.727-1.57-1.595-1.57c-.89 0-1.617.703-1.617 1.57c0 4.032-3.21 7.266-7.218 7.266c-4.032 0-7.243-3.234-7.243-7.266c0-4.007 3.211-7.195 7.243-7.195c.304 0 .609 0 .843.047l-2.273 2.25c-.305.281-.446.656-.446 1.078c0 .82.633 1.477 1.477 1.477c.375 0 .773-.188 1.031-.446l4.547-4.547c.563-.539.54-1.593 0-2.156l-4.5-4.593a1.53 1.53 0 0 0-1.078-.47c-.844 0-1.477.68-1.477 1.5c0 .423.165.798.399 1.079l1.664 1.687a5 5 0 0 0-.633-.047c-5.273 0-10.008 4.524-10.008 10.266"/>
  </g>
  <!-- Cell: arrow-counterclockwise -->
  <text x="290" y="96.00" class="label">arrow-counterc…</text>
  <g transform="translate(303.00, 65.25) scale(0.3214, 0.3214) translate(0, 0)" color="#17181C">
    <path fill="currentColor" d="M28.856 26.184c1.054 0 1.851-.797 1.851-1.875c0-.493-.187-.961-.539-1.336l-7.008-6.961c1.406-.305 3.047-.446 4.828-.446c9.399 0 16.946 7.524 16.946 16.922a16.9 16.9 0 0 1-16.946 16.969c-9.398 0-16.922-7.547-16.922-16.969c0-1.125-.726-1.945-1.828-1.945c-1.148 0-1.945.82-1.945 1.945c0 11.508 9.21 20.743 20.695 20.743a20.67 20.67 0 0 0 20.719-20.743c0-11.484-9.234-20.695-20.719-20.695c-1.36 0-2.718.14-4.054.375l6.257-6.14c.329-.376.516-.844.516-1.337c0-1.078-.797-1.921-1.852-1.921c-.562 0-1.03.187-1.359.562l-9.656 9.797c-.375.375-.586.89-.586 1.406c0 .54.164 1.008.586 1.406l9.656 9.704c.328.351.774.539 1.36.539"/>
  </g>
  <!-- Cell: arrow-counterclockwise-circle -->
  <text x="338" y="96.00" class="label">arrow-counterc…</text>
  <g transform="translate(351.00, 65.25) scale(0.3214, 0.3214) translate(0, 0)" color="#17181C">
    <path fill="currentColor" d="M28 51.906c13.055 0 23.906-10.828 23.906-23.906c0-13.055-10.875-23.906-23.93-23.906C14.899 4.094 4.095 14.945 4.095 28c0 13.078 10.828 23.906 23.906 23.906m0-3.984C16.937 47.922 8.1 39.062 8.1 28c0-11.04 8.813-19.922 19.876-19.922c11.039 0 19.921 8.883 19.945 19.922c.023 11.063-8.883 19.922-19.922 19.922m10.43-18.844c0-5.742-4.735-10.265-10.008-10.265a6 6 0 0 0-.657.046l1.665-1.687a1.6 1.6 0 0 0 .421-1.078c0-.82-.656-1.5-1.476-1.5c-.422 0-.82.187-1.078.469l-4.5 4.593c-.54.563-.586 1.617 0 2.157l4.547 4.546a1.5 1.5 0 0 0 1.03.446a1.47 1.47 0 0 0 1.477-1.477c0-.422-.164-.797-.445-1.078L27.11 22c.235-.047.563-.047.867-.047c4.008 0 7.22 3.188 7.22 7.195c0 4.032-3.212 7.266-7.22 7.266c-4.03 0-7.218-3.234-7.218-7.266c0-.867-.75-1.57-1.617-1.57c-.868 0-1.618.703-1.618 1.57c0 5.79 4.664 10.5 10.454 10.5c5.789 0 10.453-4.71 10.453-10.57"/>
  </g>
  <!-- Cell: arrow-down -->
  <text x="386" y="96.00" class="label">arrow-down</text>
  <g transform="translate(399.00, 65.25) scale(0.3214, 0.3214) translate(0, 0)" color="#17181C">
    <path fill="currentColor" d="M27.988 5.863c-1.218 0-2.086.844-2.086 2.063v30.867l.188 5.016l-7.031-7.711l-5.32-5.25c-.376-.375-.938-.563-1.5-.563c-1.15 0-2.016.89-2.016 2.04c0 .562.21 1.054.656 1.523L26.44 49.434c.446.468.985.703 1.547.703c.586 0 1.125-.235 1.57-.703L45.12 33.848c.445-.47.656-.961.656-1.524c0-1.148-.867-2.039-2.039-2.039c-.539 0-1.101.188-1.476.563l-5.344 5.25l-7.008 7.687l.188-4.992V7.926c0-1.219-.89-2.063-2.11-2.063"/>
  </g>
  <!-- Cell: arrow-down-circle -->
  <text x="434" y="96.00" class="label">arrow-down-cir…</text>
  <g transform="translate(447.00, 65.25) scale(0.3214, 0.3214) translate(0, 0)" color="#17181C">
    <path fill="currentColor" d="M28 51.906c13.055 0 23.906-10.828 23.906-23.906c0-13.055-10.875-23.906-23.93-23.906C14.899 4.094 4.095 14.945 4.095 28c0 13.078 10.828 23.906 23.906 23.906m0-3.984C16.937 47.922 8.1 39.062 8.1 28c0-11.04 8.813-19.922 19.876-19.922c11.039 0 19.921 8.883 19.945 19.922c.023 11.063-8.883 19.922-19.922 19.922m0-7.805c.515 0 .914-.234 1.383-.68l7.922-7.921c.328-.305.492-.727.492-1.22c0-.96-.75-1.687-1.711-1.687c-.516 0-.938.188-1.242.516l-2.907 2.93l-2.367 2.86l.188-4.97V17.711c0-1.008-.75-1.758-1.758-1.758c-1.031 0-1.758.75-1.758 1.758v12.234l.188 4.922l-2.368-2.812l-2.906-2.93a1.77 1.77 0 0 0-1.242-.516c-.961 0-1.687.727-1.687 1.688c0 .492.14.914.445 1.219l7.968 7.922c.47.468.844.68 1.36.68"/>
  </g>
  <!-- Cell: arrow-down-doc -->
  <text x="2" y="145.50" class="label">arrow-down-doc</text>
  <g transform="translate(15.00, 114.75) scale(0.3214, 0.3214) translate(0, 0)" color="#17181C">
    <path fill="currentColor" d="M15.555 53.125h24.89c4.852 0 7.266-2.461 7.266-7.336V24.508c0-3.024-.328-4.336-2.203-6.258L32.57 5.102c-1.78-1.829-3.234-2.227-5.882-2.227H15.555c-4.828 0-7.266 2.484-7.266 7.36v35.554c0 4.898 2.438 7.336 7.266 7.336m.187-3.773c-2.414 0-3.68-1.29-3.68-3.633V10.305c0-2.32 1.266-3.657 3.704-3.657h10.406v13.618c0 2.953 1.5 4.406 4.406 4.406h13.36v21.047c0 2.343-1.243 3.633-3.68 3.633ZM31 21.132c-.914 0-1.29-.374-1.29-1.312V7.375l13.5 13.758Zm-1.195 7.946c0-.96-.844-1.734-1.805-1.734c-.96 0-1.781.773-1.781 1.734v8.508l.14 3.82l-1.992-2.062l-2.11-2.157a1.77 1.77 0 0 0-1.241-.539c-.961 0-1.664.68-1.664 1.618c0 .539.21.937.585 1.265l6.75 6.211c.493.446.868.61 1.313.61c.469 0 .82-.164 1.313-.61l6.75-6.21c.374-.329.585-.727.585-1.266c0-.938-.703-1.618-1.64-1.618c-.469 0-.914.188-1.242.54l-2.133 2.156l-1.992 2.062l.164-3.82Z"/>
  </g>
  <!-- Cell: arrow-down-left -->
  <text x="50" y="145.50" class="label">arrow-down-left</text>
  <g transform="translate(63.00, 114.75) scale(0.3214, 0.3214) translate(0, 0)" color="#17181C">
    <path fill="currentColor" d="m11.992 19.785l-.023 22.008c0 1.313.867 2.227 2.25 2.227l22.008-.047c1.289 0 2.132-.985 2.132-2.086c0-1.102-.96-2.04-2.039-2.04h-6.984l-11.156.422l4.242-3.726l20.953-20.977c.422-.421.656-.937.656-1.453c0-1.101-1.008-2.133-2.156-2.133c-.516 0-1.008.211-1.453.633L19.469 33.566l-3.75 4.266l.422-10.664v-7.477c0-1.078-.938-2.062-2.063-2.062s-2.086.914-2.086 2.156"/>
  </g>
  <!-- Cell: arrow-down-left-circle -->
  <text x="98" y="145.50" class="label">arrow-down-lef…</text>
  <g transform="translate(111.00, 114.75) scale(0.3214, 0.3214) translate(0, 0)" color="#17181C">
    <path fill="currentColor" d="M28 51.906c13.055 0 23.906-10.828 23.906-23.906c0-13.055-10.875-23.906-23.93-23.906C14.899 4.094 4.095 14.945 4.095 28c0 13.078 10.828 23.906 23.906 23.906m0-3.984C16.937 47.922 8.1 39.062 8.1 28c0-11.04 8.813-19.922 19.876-19.922c11.039 0 19.921 8.883 19.945 19.922c.023 11.063-8.883 19.922-19.922 19.922M20.03 22.21c-1.031 0-1.71.773-1.71 1.875v11.039c0 1.383.75 1.945 1.944 1.945h11.133c1.102 0 1.805-.68 1.805-1.71c0-1.055-.727-1.735-1.852-1.735h-4.265L23.617 34l3.656-3.398l8.625-8.649c.328-.328.563-.773.563-1.242c0-1.055-.68-1.758-1.711-1.758a1.83 1.83 0 0 0-1.336.54l-8.625 8.648l-3.375 3.586l.351-3.633v-4.055c0-1.125-.68-1.828-1.734-1.828"/>
  </g>
  <!-- Cell: arrow-down-left-square -->
  <text x="146" y="145.50" class="label">arrow-down-lef…</text>
  <g transform="translate(159.00, 114.75) scale(0.3214, 0.3214) translate(0, 0)" color="#17181C">
    <path fill="currentColor" d="M13.785 49.574h28.453c4.899 0 7.336-2.437 7.336-7.265V13.69c0-4.828-2.437-7.265-7.336-7.265H13.785c-4.875 0-7.36 2.414-7.36 7.265v28.62c0 4.851 2.485 7.265 7.36 7.265m.07-3.773c-2.343 0-3.656-1.242-3.656-3.68V13.88c0-2.438 1.313-3.68 3.656-3.68h28.313c2.32 0 3.633 1.242 3.633 3.68v28.24c0 2.438-1.313 3.68-3.633 3.68Zm6.82-23.649c-1.03 0-1.734.774-1.734 1.875v11.04c0 1.382.774 1.945 1.97 1.945H32.02c1.101 0 1.804-.68 1.804-1.711c0-1.055-.726-1.735-1.851-1.735h-4.266l-3.469.375l3.656-3.398l8.649-8.648c.328-.329.562-.774.562-1.243c0-1.054-.703-1.758-1.734-1.758c-.562 0-1.008.212-1.336.54l-8.625 8.648l-3.375 3.586l.352-3.633V23.98c0-1.125-.68-1.828-1.711-1.828"/>
  </g>
  <!-- Cell: arrow-down-right -->
  <text x="194" y="145.50" class="label">arrow-down-rig…</text>
  <g transform="translate(207.00, 114.75) scale(0.3214, 0.3214) translate(0, 0)" color="#17181C">
    <path fill="currentColor" d="M44.008 19.785c0-1.242-.985-2.156-2.086-2.156c-1.125 0-2.063.984-2.063 2.062v7.477l.422 10.664l-3.75-4.266l-20.976-20.953c-.422-.422-.914-.633-1.453-.633c-1.149 0-2.133 1.032-2.133 2.133c0 .516.234 1.032.656 1.453l20.93 20.977l4.265 3.727l-11.156-.422H19.68c-1.078 0-2.063.937-2.063 2.039c0 1.101.867 2.086 2.156 2.086l22.008.047c1.383 0 2.25-.915 2.25-2.227Z"/>
  </g>
  <!-- Cell: arrow-down-right-arrow-up-left -->
  <text x="242" y="145.50" class="label">arrow-down-rig…</text>
  <g transform="translate(255.00, 114.75) scale(0.3214, 0.3214) translate(0, 0)" color="#17181C">
    <path fill="currentColor" d="M9.367 25.633h13.008c2.39 0 3.797-1.406 3.797-3.797V8.852c0-1.22-.914-2.18-2.18-2.18c-1.242 0-2.133.937-2.133 2.18v1.968l.493 8.18l-6.188-6.492L8.97 5.242a2.04 2.04 0 0 0-1.5-.633c-1.336 0-2.32.891-2.32 2.204c0 .609.234 1.195.656 1.617l7.218 7.218l6.516 6.165l-8.203-.47h-1.97c-1.242 0-2.203.868-2.203 2.134c0 1.242.938 2.156 2.203 2.156m22.477 23.789c1.242 0 2.133-.914 2.133-2.18v-2.226l-.493-8.157l6.188 6.493l7.36 7.406c.398.422.937.633 1.5.633c1.312 0 2.32-.891 2.32-2.203c0-.61-.235-1.196-.657-1.618l-7.382-7.382l-6.493-6.165l8.18.47h2.227c1.242 0 2.203-.868 2.203-2.11c0-1.266-.938-2.156-2.203-2.156H33.46c-2.39 0-3.773 1.382-3.773 3.773v13.242c0 1.242.914 2.18 2.156 2.18"/>
  </g>
  <!-- Cell: arrow-down-right-circle -->
  <text x="290" y="145.50" class="label">arrow-down-rig…</text>
  <g transform="translate(303.00, 114.75) scale(0.3214, 0.3214) translate(0, 0)" color="#17181C">
    <path fill="currentColor" d="M28 51.906c13.055 0 23.906-10.828 23.906-23.906c0-13.055-10.875-23.906-23.93-23.906C14.899 4.094 4.095 14.945 4.095 28c0 13.078 10.828 23.906 23.906 23.906m0-3.984C16.937 47.922 8.1 39.062 8.1 28c0-11.04 8.813-19.922 19.876-19.922c11.039 0 19.921 8.883 19.945 19.922c.023 11.063-8.883 19.922-19.922 19.922m6.75-25.711c-1.031 0-1.711.703-1.711 1.828v4.055l.352 3.633l-3.375-3.586l-8.649-8.649a1.78 1.78 0 0 0-1.312-.539c-1.055 0-1.735.703-1.735 1.758c0 .469.235.914.563 1.242l8.648 8.649L31.164 34l-3.445-.375h-4.29c-1.101 0-1.828.68-1.828 1.734c0 1.032.704 1.711 1.782 1.711h11.133c1.195 0 1.945-.562 1.945-1.945v-11.04c0-1.1-.68-1.874-1.711-1.874"/>
  </g>
  <!-- Cell: arrow-down-right-square -->
  <text x="2" y="195.00" class="label">arrow-down-rig…</text>
  <g transform="translate(15.00, 164.25) scale(0.3214, 0.3214) translate(0, 0)" color="#17181C">
    <path fill="currentColor" d="M13.785 49.574h28.453c4.899 0 7.336-2.437 7.336-7.265V13.69c0-4.828-2.437-7.265-7.336-7.265H13.785c-4.875 0-7.36 2.414-7.36 7.265v28.62c0 4.851 2.485 7.265 7.36 7.265m.07-3.773c-2.343 0-3.656-1.242-3.656-3.68V13.88c0-2.438 1.313-3.68 3.656-3.68h28.313c2.32 0 3.633 1.242 3.633 3.68v28.24c0 2.438-1.313 3.68-3.633 3.68Zm21.516-23.649c-1.031 0-1.71.703-1.71 1.828v4.055l.35 3.633l-3.374-3.586l-8.625-8.648a1.84 1.84 0 0 0-1.336-.54c-1.032 0-1.735.704-1.735 1.758c0 .47.235.914.563 1.242l8.648 8.649l3.656 3.398l-3.468-.375h-4.266c-1.125 0-1.851.68-1.851 1.735c0 1.031.703 1.71 1.804 1.71h11.11c1.195 0 1.968-.562 1.968-1.945v-11.04c0-1.101-.703-1.875-1.734-1.875"/>
  </g>
  <!-- Cell: arrow-down-square -->
  <text x="50" y="195.00" class="label">arrow-down-squ…</text>
  <g transform="translate(63.00, 164.25) scale(0.3214, 0.3214) translate(0, 0)" color="#17181C">
    <path fill="currentColor" d="M13.785 49.574h28.453c4.899 0 7.336-2.437 7.336-7.265V13.69c0-4.828-2.437-7.265-7.336-7.265H13.785c-4.875 0-7.36 2.414-7.36 7.265v28.62c0 4.851 2.485 7.265 7.36 7.265m.07-3.773c-2.343 0-3.656-1.242-3.656-3.68V13.88c0-2.438 1.313-3.68 3.656-3.68h28.313c2.32 0 3.633 1.242 3.633 3.68v28.24c0 2.438-1.313 3.68-3.633 3.68Zm14.157-5.719c.515 0 .937-.21 1.382-.68l7.946-7.898a1.76 1.76 0 0 0 .468-1.219c0-.96-.75-1.687-1.71-1.687c-.516 0-.938.164-1.243.515l-2.882 2.93l-2.391 2.836l.188-4.969V17.7c0-1.032-.75-1.759-1.758-1.759s-1.758.727-1.758 1.758V29.91l.187 4.945l-2.367-2.812l-2.906-2.93c-.305-.328-.727-.515-1.242-.515c-.961 0-1.688.726-1.688 1.687c0 .469.14.89.445 1.219l7.97 7.898c.468.492.843.68 1.359.68"/>
  </g>
  <!-- Cell: arrow-down-to-line -->
  <text x="98" y="195.00" class="label">arrow-down-to-…</text>
  <g transform="translate(111.00, 164.25) scale(0.3214, 0.3214) translate(0, 0)" color="#17181C">
    <path fill="currentColor" d="M12.18 44.465c-1.219 0-2.04.867-2.04 2.086s.821 2.11 2.04 2.11h31.593c1.243 0 2.086-.892 2.086-2.11c0-1.219-.843-2.086-2.086-2.086h-15.28c.398-.117.75-.328 1.077-.68L45.086 28.27c.469-.493.68-1.008.68-1.57c0-1.173-.844-2.063-2.04-2.063a2.2 2.2 0 0 0-1.5.586l-5.25 5.18l-7.054 7.71l.187-5.015V9.426c0-1.219-.89-2.086-2.109-2.086s-2.086.867-2.086 2.086v23.672l.164 5.039l-7.055-7.735l-5.25-5.18c-.375-.374-.937-.585-1.5-.585c-1.171 0-2.039.89-2.039 2.062c0 .563.235 1.078.704 1.57L26.43 43.786a2.4 2.4 0 0 0 1.101.68Z"/>
  </g>
  <!-- Cell: arrow-down-to-line-alt -->
  <text x="146" y="195.00" class="label">arrow-down-to-…</text>
  <g transform="translate(159.00, 164.25) scale(0.3214, 0.3214) translate(0, 0)" color="#17181C">
    <path fill="currentColor" d="M45.777 50.137c0-1.219-.843-2.086-2.039-2.086H28.223c.492-.047.96-.305 1.336-.703L45.12 31.762c.445-.47.656-.961.656-1.524c0-1.148-.867-2.039-2.039-2.039c-.539 0-1.101.188-1.476.563l-5.344 5.25l-7.008 7.71l.188-5.015V5.817c0-1.196-.89-2.063-2.11-2.063c-1.218 0-2.086.867-2.086 2.062v30.891l.188 4.992l-7.031-7.687l-5.32-5.25c-.376-.375-.938-.563-1.5-.563c-1.15 0-2.016.89-2.016 2.04c0 .562.21 1.054.656 1.523L26.44 47.348c.375.398.844.656 1.336.703H12.31c-1.22 0-2.086.867-2.086 2.086s.867 2.11 2.086 2.11h31.43c1.195 0 2.038-.892 2.038-2.11"/>
  </g>
  <!-- Cell: arrow-left -->
  <text x="194" y="195.00" class="label">arrow-left</text>
  <g transform="translate(207.00, 164.25) scale(0.3214, 0.3214) translate(0, 0)" color="#17181C">
    <path fill="currentColor" d="M6.238 28c0 .586.258 1.125.727 1.57l15.562 15.54c.492.445.985.656 1.524.656c1.172 0 2.062-.844 2.062-2.016c0-.562-.21-1.125-.586-1.477l-5.226-5.343l-7.922-7.196l5.695.352H47.7c1.219 0 2.063-.867 2.063-2.086s-.844-2.086-2.063-2.086H18.074l-5.672.352l7.899-7.196l5.226-5.343c.399-.376.586-.915.586-1.477c0-1.172-.89-2.016-2.062-2.016c-.54 0-1.055.188-1.57.704L6.964 26.43c-.469.445-.727.984-.727 1.57"/>
  </g>
  <!-- Cell: arrow-left-circle -->
  <text x="242" y="195.00" class="label">arrow-left-cir…</text>
  <g transform="translate(255.00, 164.25) scale(0.3214, 0.3214) translate(0, 0)" color="#17181C">
    <path fill="currentColor" d="M28 51.906c13.055 0 23.906-10.828 23.906-23.906c0-13.055-10.875-23.906-23.93-23.906C14.899 4.094 4.095 14.945 4.095 28c0 13.078 10.828 23.906 23.906 23.906m0-3.984C16.937 47.922 8.1 39.062 8.1 28c0-11.04 8.813-19.922 19.876-19.922c11.039 0 19.921 8.883 19.945 19.922c.023 11.063-8.883 19.922-19.922 19.922M15.93 27.977c0 .539.234.937.68 1.382l7.921 7.946c.305.304.727.492 1.219.492c.96 0 1.687-.774 1.687-1.711c0-.516-.187-.938-.515-1.266l-2.953-2.883l-2.813-2.39l4.945.187h12.235c1.008 0 1.734-.75 1.734-1.757c0-1.008-.726-1.758-1.734-1.758H26.1l-4.945.187l2.813-2.367l2.953-2.906a1.73 1.73 0 0 0 .515-1.242c0-.961-.726-1.688-1.687-1.688c-.492 0-.914.164-1.219.469l-7.922 7.945c-.469.469-.68.867-.68 1.36"/>
  </g>
  <!-- Cell: arrow-left-right -->
  <text x="290" y="195.00" class="label">arrow-left-rig…</text>
  <g transform="translate(303.00, 164.25) scale(0.3214, 0.3214) translate(0, 0)" color="#17181C">
    <path fill="currentColor" d="M4.914 28c0 .586.234 1.125.703 1.57l13.664 13.407c.399.398 1.008.632 1.5.632c1.242 0 2.086-.843 2.086-2.062c0-.61-.21-1.055-.586-1.43l-6.61-6.469l-4.382-3.773l5.437.234h22.57l5.438-.234l-4.382 3.773l-6.633 6.47c-.375.374-.563.82-.563 1.429c0 1.219.82 2.062 2.063 2.062c.515 0 1.125-.234 1.523-.632L50.406 29.57c.469-.445.68-.984.68-1.57c0-.562-.211-1.102-.68-1.57L36.742 13.047c-.398-.399-1.008-.656-1.523-.656c-1.243 0-2.063.867-2.063 2.086c0 .585.188 1.054.563 1.43l6.633 6.445l4.382 3.796l-5.437-.234h-22.57l-5.438.234l4.383-3.796l6.633-6.446a2.02 2.02 0 0 0 .562-1.43c0-1.218-.844-2.085-2.086-2.085c-.492 0-1.101.257-1.5.656L5.617 26.43c-.469.468-.703 1.008-.703 1.57"/>
  </g>

  <text x="347" y="116.744" class="overlay-cat">@onwo/iconset-f7</text>
  <text x="348" y="139.738" class="overlay-title">framework7 icons</text>
  <text x="351" y="190.744" class="overlay-meta">MIT · 811 icons</text>
</svg>
