<svg xmlns="http://www.w3.org/2000/svg" viewBox="0 0 480 198" width="480" height="198">
  <style>
    .bg { fill: #FFFFFF; stroke: #E0E0E0; }
    .grid-line { stroke: #E0E0E0; stroke-width: 1; }
    .label { font-family: -apple-system, BlinkMacSystemFont, "Segoe UI", Roboto, Helvetica, Arial, sans-serif; font-size: 6px; font-weight: 500; fill: #B3B5BA; }
    .overlay-cat { font-family: -apple-system, BlinkMacSystemFont, "Segoe UI", Roboto, Helvetica, Arial, sans-serif; font-size: 9.5px; font-weight: 400; fill: #797C82; }
    .overlay-title { font-family: -apple-system, BlinkMacSystemFont, "Segoe UI", Roboto, Helvetica, Arial, sans-serif; font-size: 16.5px; font-weight: 700; fill: #17181C; }
    .overlay-meta { font-family: -apple-system, BlinkMacSystemFont, "Segoe UI", Roboto, Helvetica, Arial, sans-serif; font-size: 9.5px; font-weight: 400; fill: #797C82; }
  </style>

  <rect width="480" height="198" class="bg" />

  <line x1="0" y1="49.5" x2="480" y2="49.5" class="grid-line" />
  <line x1="0" y1="99" x2="336" y2="99" class="grid-line" />
  <line x1="0" y1="148.5" x2="336" y2="148.5" class="grid-line" />
  <line x1="48" y1="0" x2="48" y2="198" class="grid-line" />
  <line x1="96" y1="0" x2="96" y2="198" class="grid-line" />
  <line x1="144" y1="0" x2="144" y2="198" class="grid-line" />
  <line x1="192" y1="0" x2="192" y2="198" class="grid-line" />
  <line x1="240" y1="0" x2="240" y2="198" class="grid-line" />
  <line x1="288" y1="0" x2="288" y2="198" class="grid-line" />
  <line x1="336" y1="0" x2="336" y2="99" class="grid-line" />
  <line x1="384" y1="0" x2="384" y2="99" class="grid-line" />
  <line x1="432" y1="0" x2="432" y2="99" class="grid-line" />
  <line x1="336" y1="99" x2="480" y2="99" class="grid-line" />
  <line x1="336" y1="99" x2="336" y2="198" class="grid-line" />

  <!-- Cell: anchor -->
  <text x="2" y="46.50" class="label">anchor</text>
  <g transform="translate(15.00, 15.75) scale(0.7500, 0.7500) translate(0, 0)" color="#17181C">
    <g fill="none" stroke="currentColor" stroke-linecap="round" stroke-linejoin="round" stroke-width="1.5"><path d="m8 5.75v8.25m-4.75-6.25h-1.5c0 4 2.5 6.5 6.25 6.5s6.25-2.5 6.25-6.5h-1.5"/><circle cx="8" cy="3.5" r="1.75"/></g>
  </g>
  <!-- Cell: apps -->
  <text x="50" y="46.50" class="label">apps</text>
  <g transform="translate(63.00, 15.75) scale(0.7500, 0.7500) translate(0, 0)" color="#17181C">
    <g fill="none" stroke="currentColor" stroke-linecap="round" stroke-linejoin="round" stroke-width="1.5"><rect width="4.5" height="4.5" x="1.75" y="1.75"/><rect width="4.5" height="4.5" x="1.75" y="9.75"/><rect width="4.5" height="4.5" x="9.75" y="9.75"/><rect width="4.5" height="4.5" x="9.75" y="1.75"/></g>
  </g>
  <!-- Cell: apps-minus -->
  <text x="98" y="46.50" class="label">apps-minus</text>
  <g transform="translate(111.00, 15.75) scale(0.7500, 0.7500) translate(0, 0)" color="#17181C">
    <g fill="none" stroke="currentColor" stroke-linecap="round" stroke-linejoin="round" stroke-width="1.5"><rect width="4.5" height="4.5" x="1.75" y="1.75"/><rect width="4.5" height="4.5" x="1.75" y="9.75"/><rect width="4.5" height="4.5" x="9.75" y="9.75"/><path d="m14.8 3.75h-5"/></g>
  </g>
  <!-- Cell: apps-plus -->
  <text x="146" y="46.50" class="label">apps-plus</text>
  <g transform="translate(159.00, 15.75) scale(0.7500, 0.7500) translate(0, 0)" color="#17181C">
    <g fill="none" stroke="currentColor" stroke-linecap="round" stroke-linejoin="round" stroke-width="1.5"><rect width="4.5" height="4.5" x="1.75" y="1.75"/><rect width="4.5" height="4.5" x="1.75" y="9.75"/><rect width="4.5" height="4.5" x="9.75" y="9.75"/><path d="m14.8 3.75h-5m2.5-2.5v5"/></g>
  </g>
  <!-- Cell: archive -->
  <text x="194" y="46.50" class="label">archive</text>
  <g transform="translate(207.00, 15.75) scale(0.7500, 0.7500) translate(0, 0)" color="#17181C">
    <g fill="none" stroke="currentColor" stroke-linecap="round" stroke-linejoin="round" stroke-width="1.5"><rect width="12.5" height="3.5" x="1.75" y="2.75"/><path d="m6.75 9.25h2.5m-6.5-2.5v7.5h10.5v-7.5"/></g>
  </g>
  <!-- Cell: arrow-down -->
  <text x="242" y="46.50" class="label">arrow-down</text>
  <g transform="translate(255.00, 15.75) scale(0.7500, 0.7500) translate(0, 0)" color="#17181C">
    <path fill="none" stroke="currentColor" stroke-linecap="round" stroke-linejoin="round" stroke-width="1.5" d="m3.25 8.75 4.5 4.5 4.5-4.5m-4.5-6v10.5"/>
  </g>
  <!-- Cell: arrow-down-left -->
  <text x="290" y="46.50" class="label">arrow-down-left</text>
  <g transform="translate(303.00, 15.75) scale(0.7500, 0.7500) translate(0, 0)" color="#17181C">
    <path fill="none" stroke="currentColor" stroke-linecap="round" stroke-linejoin="round" stroke-width="1.5" d="m10.75 11.75h-6.5v-6.5m7.5-1-7.5 7.5"/>
  </g>
  <!-- Cell: arrow-down-right -->
  <text x="338" y="46.50" class="label">arrow-down-rig…</text>
  <g transform="translate(351.00, 15.75) scale(0.7500, 0.7500) translate(0, 0)" color="#17181C">
    <path fill="none" stroke="currentColor" stroke-linecap="round" stroke-linejoin="round" stroke-width="1.5" d="m5.25 11.75h6.5v-6.5m-7.5-1 7.5 7.5"/>
  </g>
  <!-- Cell: arrow-left -->
  <text x="386" y="46.50" class="label">arrow-left</text>
  <g transform="translate(399.00, 15.75) scale(0.7500, 0.7500) translate(0, 0)" color="#17181C">
    <path fill="none" stroke="currentColor" stroke-linecap="round" stroke-linejoin="round" stroke-width="1.5" d="m7.25 3.75-4.5 4.5 4.5 4.5m6-4.5h-10.5"/>
  </g>
  <!-- Cell: arrow-right -->
  <text x="434" y="46.50" class="label">arrow-right</text>
  <g transform="translate(447.00, 15.75) scale(0.7500, 0.7500) translate(0, 0)" color="#17181C">
    <path fill="none" stroke="currentColor" stroke-linecap="round" stroke-linejoin="round" stroke-width="1.5" d="m8.75 3.25 4.5 4.5-4.5 4.5m-6-4.5h10.5"/>
  </g>
  <!-- Cell: arrow-up -->
  <text x="2" y="96.00" class="label">arrow-up</text>
  <g transform="translate(15.00, 65.25) scale(0.7500, 0.7500) translate(0, 0)" color="#17181C">
    <path fill="none" stroke="currentColor" stroke-linecap="round" stroke-linejoin="round" stroke-width="1.5" d="m3.75 7.25 4.5-4.5 4.5 4.5m-4.5 6v-10.5"/>
  </g>
  <!-- Cell: arrow-up-left -->
  <text x="50" y="96.00" class="label">arrow-up-left</text>
  <g transform="translate(63.00, 65.25) scale(0.7500, 0.7500) translate(0, 0)" color="#17181C">
    <path fill="none" stroke="currentColor" stroke-linecap="round" stroke-linejoin="round" stroke-width="1.5" d="m10.75 4.25h-6.5v6.5m7.5 1-7.5-7.5"/>
  </g>
  <!-- Cell: arrow-up-right -->
  <text x="98" y="96.00" class="label">arrow-up-right</text>
  <g transform="translate(111.00, 65.25) scale(0.7500, 0.7500) translate(0, 0)" color="#17181C">
    <path fill="none" stroke="currentColor" stroke-linecap="round" stroke-linejoin="round" stroke-width="1.5" d="m5.25 4.25h6.5v6.5m-7.5 1 7.5-7.5"/>
  </g>
  <!-- Cell: at-sign -->
  <text x="146" y="96.00" class="label">at-sign</text>
  <g transform="translate(159.00, 65.25) scale(0.7500, 0.7500) translate(0, 0)" color="#17181C">
    <g fill="none" stroke="currentColor" stroke-linecap="round" stroke-linejoin="round" stroke-width="1.5"><path d="m10.25 8c0 3.25 4 3.25 4 0 0-3.45178-2.7982-6.25-6.25-6.25-3.45178 0-6.25 2.79822-6.25 6.25s2.79822 6.25 6.25 6.25c2.25 0 3.25-1 3.25-1"/><circle cx="8" cy="8" r="2.25"/></g>
  </g>
  <!-- Cell: atom -->
  <text x="194" y="96.00" class="label">atom</text>
  <g transform="translate(207.00, 65.25) scale(0.7500, 0.7500) translate(0, 0)" color="#17181C">
    <g fill="none" stroke="currentColor" stroke-linecap="round" stroke-linejoin="round" stroke-width="1.5"><ellipse cx="11.3" rx="8.28" ry="3.17" transform="rotate(45)"/><ellipse cy="11.3" rx="8.28" ry="3.17" transform="rotate(315)"/><path d="m8 8v0"/></g>
  </g>
  <!-- Cell: bell -->
  <text x="242" y="96.00" class="label">bell</text>
  <g transform="translate(255.00, 65.25) scale(0.7500, 0.7500) translate(0, 0)" color="#17181C">
    <g fill="none" stroke="currentColor" stroke-linecap="round" stroke-linejoin="round" stroke-width="1.5"><path d="m8 1.75c-2.46803 0-4.25 1.5-4.25 3.5v3l-2 3.5h12.5l-2-3.5v-3c0-2-1.16605-3.5-4.25-3.5z"/><path d="m5.75 12.25c0 3 4.5 3 4.5 0"/></g>
  </g>
  <!-- Cell: bell-slash -->
  <text x="290" y="96.00" class="label">bell-slash</text>
  <g transform="translate(303.00, 65.25) scale(0.7500, 0.7500) translate(0, 0)" color="#17181C">
    <g fill="none" stroke="currentColor" stroke-linecap="round" stroke-linejoin="round" stroke-width="1.5"><path d="m5.75 12.25c0 3 4.5 3 4.5 0"/><path d="m12.25 8.25v-3c0-2-1.16605-3.5-4.25-3.5m-3.75 2c-.530590.584957-.5.674089-.5 1.5v3l-2 3.5h8.5"/><path d="m5.75 12.25c0 3 4.5 3 4.5 0"/><path d="m2.75 1.75 10.5 12.5"/></g>
  </g>
  <!-- Cell: bin -->
  <text x="338" y="96.00" class="label">bin</text>
  <g transform="translate(351.00, 65.25) scale(0.7500, 0.7500) translate(0, 0)" color="#17181C">
    <path fill="none" stroke="currentColor" stroke-linecap="round" stroke-linejoin="round" stroke-width="1.5" d="m5.75 4.25v-2.5h4.5v2.5m-6.5 1v9h8.5v-9m-9.5-.5h10.5"/>
  </g>
  <!-- Cell: binary -->
  <text x="386" y="96.00" class="label">binary</text>
  <g transform="translate(399.00, 65.25) scale(0.7500, 0.7500) translate(0, 0)" color="#17181C">
    <g fill="none" stroke="currentColor" stroke-linecap="round" stroke-linejoin="round" stroke-width="1.5"><rect width="3" height="4.5" x="3.25" y="1.75"/><path d="m9.75 6.25h3m-3-4.5h1.5v4"/><rect width="3" height="4.5" x="9.75" y="9.75"/><path d="m3.25 14.25h3m-3-4.5h1.5v4"/></g>
  </g>
  <!-- Cell: block -->
  <text x="434" y="96.00" class="label">block</text>
  <g transform="translate(447.00, 65.25) scale(0.7500, 0.7500) translate(0, 0)" color="#17181C">
    <g fill="none" stroke="currentColor" stroke-linecap="round" stroke-linejoin="round" stroke-width="1.5"><circle cx="8" cy="8" r="6.25"/><line x1="4.25" x2="12.25" y1="11.75" y2="3.75"/></g>
  </g>
  <!-- Cell: bluetooth -->
  <text x="2" y="145.50" class="label">bluetooth</text>
  <g transform="translate(15.00, 114.75) scale(0.7500, 0.7500) translate(0, 0)" color="#17181C">
    <path fill="none" stroke="currentColor" stroke-linecap="round" stroke-linejoin="round" stroke-width="1.5" d="m3.75 11.25 8.5-6.25-4.5-3.25v12.5l4.5-3.25-8.5-6.25"/>
  </g>
  <!-- Cell: bluetooth-connected -->
  <text x="50" y="145.50" class="label">bluetooth-conn…</text>
  <g transform="translate(63.00, 114.75) scale(0.7500, 0.7500) translate(0, 0)" color="#17181C">
    <g fill="none" stroke="currentColor" stroke-linecap="round" stroke-linejoin="round" stroke-width="1.5"><path d="m3.75 11.25 8.5-6.25-4.5-3.25v12.5l4.5-3.25-8.5-6.25"/><path d="m1.75 8h1.5m9.5 0h1.5"/></g>
  </g>
  <!-- Cell: bluetooth-searching -->
  <text x="98" y="145.50" class="label">bluetooth-sear…</text>
  <g transform="translate(111.00, 114.75) scale(0.7500, 0.7500) translate(0, 0)" color="#17181C">
    <g fill="none" stroke="currentColor" stroke-linecap="round" stroke-linejoin="round" stroke-width="1.5"><path d="m1.75 11.25 8.5-6.25-4.5-3.25v12.5l4.5-3.25-8.5-6.25"/><path d="m13.25 6.25s1 .5 1 1.75-1 1.75-1 1.75m-2-1.75v0"/></g>
  </g>
  <!-- Cell: bluetooth-slash -->
  <text x="146" y="145.50" class="label">bluetooth-slash</text>
  <g transform="translate(159.00, 114.75) scale(0.7500, 0.7500) translate(0, 0)" color="#17181C">
    <g fill="none" stroke="currentColor" stroke-linecap="round" stroke-linejoin="round" stroke-width="1.5"><path d="m10.75 6.25 1.5-1.25-4.5-3.25v2.5m4.5 6.75-4.5 3.25v-6l-4 3"/><path d="m1.75 3.25 12.5 9"/></g>
  </g>
  <!-- Cell: book -->
  <text x="194" y="145.50" class="label">book</text>
  <g transform="translate(207.00, 114.75) scale(0.7500, 0.7500) translate(0, 0)" color="#17181C">
    <path fill="none" stroke="currentColor" stroke-linecap="round" stroke-linejoin="round" stroke-width="1.5" d="m11.75 11.75v2m1.5.5h-9c-.75 0-1.5-.5-1.5-1.5s.75-1.5 1.5-1.5h9v-9.5h-9c-.75 0-1.5.75-1.5 1.5v9.5"/>
  </g>
  <!-- Cell: book-open -->
  <text x="242" y="145.50" class="label">book-open</text>
  <g transform="translate(255.00, 114.75) scale(0.7500, 0.7500) translate(0, 0)" color="#17181C">
    <g fill="none" stroke="currentColor" stroke-linecap="round" stroke-linejoin="round" stroke-width="1.5"><path d="m8 3.75c-1.75-1-2.25-1-6.25-1v9.5c4 0 4.5 0 6.25 1 1.75-1 3.25-1 6.25-1v-9.5c-4 0-4.5 0-6.25 1z"/><path d="m8 4.25v8.5"/></g>
  </g>
  <!-- Cell: bookmark -->
  <text x="290" y="145.50" class="label">bookmark</text>
  <g transform="translate(303.00, 114.75) scale(0.7500, 0.7500) translate(0, 0)" color="#17181C">
    <polygon fill="none" stroke="currentColor" stroke-linecap="round" stroke-linejoin="round" stroke-width="1.5" points="3.75 1.75 12.25 1.75 12.25 14.25 8 9.75 3.75 14.25"/>
  </g>
  <!-- Cell: briefcase -->
  <text x="2" y="195.00" class="label">briefcase</text>
  <g transform="translate(15.00, 164.25) scale(0.7500, 0.7500) translate(0, 0)" color="#17181C">
    <g fill="none" stroke="currentColor" stroke-linecap="round" stroke-linejoin="round" stroke-width="1.5"><rect width="12.5" height="9.5" x="1.75" y="4.75"/><path d="m1.75 6.25s-.5 3.5 3 3.5h6.5c3.5 0 3-3.5 3-3.5m-8.5-2v-2.5h4.5v2.5"/></g>
  </g>
  <!-- Cell: bug -->
  <text x="50" y="195.00" class="label">bug</text>
  <g transform="translate(63.00, 164.25) scale(0.7500, 0.7500) translate(0, 0)" color="#17181C">
    <g fill="none" stroke="currentColor" stroke-linecap="round" stroke-linejoin="round" stroke-width="1.5"><circle cx="8" cy="10" r="4.25"/><path d="m14.25 10.25h-1.5m-1 2.5 1.5 1.5m0-8.5-1.5 1.5m-10 3h1.5m1 2.5-1.5 1.5m0-8.5 1.5 1.5m1.5-1.5s-.75-3 2.25-3 2.25 3 2.25 3"/></g>
  </g>
  <!-- Cell: calendar -->
  <text x="98" y="195.00" class="label">calendar</text>
  <g transform="translate(111.00, 164.25) scale(0.7500, 0.7500) translate(0, 0)" color="#17181C">
    <g fill="none" stroke="currentColor" stroke-linecap="round" stroke-linejoin="round" stroke-width="1.5"><rect width="12.5" height="10.5" x="1.75" y="3.75"/><path d="m11.25 1.75v1.5m-6.5-1.5v1.5m-2.5 4h11.5"/></g>
  </g>
  <!-- Cell: camera -->
  <text x="146" y="195.00" class="label">camera</text>
  <g transform="translate(159.00, 164.25) scale(0.7500, 0.7500) translate(0, 0)" color="#17181C">
    <g fill="none" stroke="currentColor" stroke-linecap="round" stroke-linejoin="round" stroke-width="1.5"><path d="m1.75 4.75v8.5h12.5v-8.5h-3l-1.5-2h-3.5l-1.5 2z"/><circle cx="8" cy="8.5" r="2.25"/></g>
  </g>
  <!-- Cell: camera-video -->
  <text x="194" y="195.00" class="label">camera-video</text>
  <g transform="translate(207.00, 164.25) scale(0.7500, 0.7500) translate(0, 0)" color="#17181C">
    <g fill="none" stroke="currentColor" stroke-linecap="round" stroke-linejoin="round" stroke-width="1.5"><rect width="7.5" height="7.5" x="1.75" y="4.75"/><path d="m9.75 7.25 4.5-2.5v7.5l-4.5-2.5"/></g>
  </g>
  <!-- Cell: camera-video-slash -->
  <text x="242" y="195.00" class="label">camera-video-s…</text>
  <g transform="translate(255.00, 164.25) scale(0.7500, 0.7500) translate(0, 0)" color="#17181C">
    <g fill="none" stroke="currentColor" stroke-linecap="round" stroke-linejoin="round" stroke-width="1.5"><path d="m11.25 10.75 3 1.5v-7.5l-5 2.5v-2.5h-2.5m1.5 7.5h-6.5v-7.5h1.5"/><line x1="1.75" x2="10.25" y1="2.25" y2="14.25"/></g>
  </g>
  <!-- Cell: candy -->
  <text x="290" y="195.00" class="label">candy</text>
  <g transform="translate(303.00, 164.25) scale(0.7500, 0.7500) translate(0, 0)" color="#17181C">
    <g fill="none" stroke="currentColor" stroke-linecap="round" stroke-linejoin="round" stroke-width="1.5"><circle cx="8" cy="8" r="3.25"/><path d="m7.25 11.25c0 1-.5 2.5-1.5 3-.75 0-1.5-1-2-2-1-.5-2-1.5-2-2 .5-1 2-1.5 3-1.5m4-4c0-1 .5-2.5 1.5-3 .75 0 1.5 1 2 2 1 .5 2 1.5 2 2-.5 1-2 1.5-3 1.5"/></g>
  </g>

  <text x="347" y="116.744" class="overlay-cat">@onwo/iconset-charm</text>
  <text x="348" y="139.738" class="overlay-title">charm icons</text>
  <text x="351" y="190.744" class="overlay-meta">MIT · 263 icons</text>
</svg>
