<svg xmlns="http://www.w3.org/2000/svg" viewBox="0 0 480 198" width="480" height="198">
  <style>
    .bg { fill: #FFFFFF; stroke: #E0E0E0; }
    .grid-line { stroke: #E0E0E0; stroke-width: 1; }
    .label { font-family: -apple-system, BlinkMacSystemFont, "Segoe UI", Roboto, Helvetica, Arial, sans-serif; font-size: 6px; font-weight: 500; fill: #B3B5BA; }
    .overlay-cat { font-family: -apple-system, BlinkMacSystemFont, "Segoe UI", Roboto, Helvetica, Arial, sans-serif; font-size: 9.5px; font-weight: 400; fill: #797C82; }
    .overlay-title { font-family: -apple-system, BlinkMacSystemFont, "Segoe UI", Roboto, Helvetica, Arial, sans-serif; font-size: 14.5px; font-weight: 700; fill: #17181C; }
    .overlay-meta { font-family: -apple-system, BlinkMacSystemFont, "Segoe UI", Roboto, Helvetica, Arial, sans-serif; font-size: 9.5px; font-weight: 400; fill: #797C82; }
  </style>

  <rect width="480" height="198" class="bg" />

  <line x1="0" y1="49.5" x2="480" y2="49.5" class="grid-line" />
  <line x1="0" y1="99" x2="336" y2="99" class="grid-line" />
  <line x1="0" y1="148.5" x2="336" y2="148.5" class="grid-line" />
  <line x1="48" y1="0" x2="48" y2="198" class="grid-line" />
  <line x1="96" y1="0" x2="96" y2="198" class="grid-line" />
  <line x1="144" y1="0" x2="144" y2="198" class="grid-line" />
  <line x1="192" y1="0" x2="192" y2="198" class="grid-line" />
  <line x1="240" y1="0" x2="240" y2="198" class="grid-line" />
  <line x1="288" y1="0" x2="288" y2="198" class="grid-line" />
  <line x1="336" y1="0" x2="336" y2="99" class="grid-line" />
  <line x1="384" y1="0" x2="384" y2="99" class="grid-line" />
  <line x1="432" y1="0" x2="432" y2="99" class="grid-line" />
  <line x1="336" y1="99" x2="480" y2="99" class="grid-line" />
  <line x1="336" y1="99" x2="336" y2="198" class="grid-line" />

  <!-- Cell: 3d-move -->
  <text x="2" y="46.50" class="label">3d-move</text>
  <g transform="translate(15.00, 15.75) scale(0.7500, 0.7500) translate(0, 0)" color="#17181C">
    <path fill="none" stroke="currentColor" stroke-width="1.5" d="M8.154 15.846V8.154h7.692v7.692zM12 2v6.154M22 12h-6.154M9.692 4.308L12 2l2.308 2.308m5.384 5.384L22 12l-2.308 2.308M12 22v-6.154M2 12h6.154m6.154 7.692L12 22l-2.308-2.308m-5.384-5.384L2 12l2.308-2.308"/>
  </g>
  <!-- Cell: 3d-move-remix -->
  <text x="50" y="46.50" class="label">3d-move-remix</text>
  <g transform="translate(63.00, 15.75) scale(0.7500, 0.7500) translate(0, 0)" color="#17181C">
    <path fill="currentColor" fill-rule="evenodd" d="m12.001 0l3 3v1h-1.75v2.75h4v4h2.75V9h1l3 3l-3 3h-1v-1.75h-2.75v4h-4V20h1.75v1l-3 3l-3-3v-1h1.75v-2.75h-4v-4h-2.75V15h-1l-3-3l3-3h1v1.75h2.75v-4h4V4h-1.75V3zm-2.75 9.25v5.5h5.5v-5.5z" clip-rule="evenodd"/>
  </g>
  <!-- Cell: 3d-move-solid -->
  <text x="98" y="46.50" class="label">3d-move-solid</text>
  <g transform="translate(111.00, 15.75) scale(0.7500, 0.7500) translate(0, 0)" color="#17181C">
    <path fill="currentColor" fill-rule="evenodd" d="M11 2L9.188 3.813v.937H11v2.654H7.404V11H4.75V9.188h-.937L2 11l-1 1l1 1l1.813 1.813h.937V13h2.654v3.597H11v2.653H9.188v.938L11 22l1 1l1-1l1.813-1.812v-.938H13v-2.653h3.596V13h2.654v1.813h.938L22 13l1-1l-1-1l-1.812-1.812h-.938V11h-2.654V7.404H13V4.75h1.813v-.937L13 2l-1-1z" clip-rule="evenodd"/>
  </g>
  <!-- Cell: 3d-rotate-x-axis-remix -->
  <text x="146" y="46.50" class="label">3d-rotate-x-ax…</text>
  <g transform="translate(159.00, 15.75) scale(0.7500, 0.7500) translate(0, 0)" color="#17181C">
    <path fill="currentColor" fill-rule="evenodd" d="m5.43 3.162l1.486.74a9.7 9.7 0 0 1 1.259-1.975C9.112.814 10.356 0 11.835 0c2.207 0 3.862 1.768 4.89 3.843c.924 1.861 1.516 4.272 1.66 6.907H24v2.5H0v-2.5h15.88c-.141-2.301-.662-4.32-1.395-5.796c-.9-1.817-1.912-2.454-2.65-2.454c-.495 0-1.1.266-1.748 1.037c-.33.392-.646.888-.933 1.478l1.577.784l-.663 1.371l-3.52.432L4.75 4.548zm10.073 12.873c-.244 1.125-.583 2.12-.984 2.944l2.249 1.093c.5-1.03.899-2.219 1.178-3.507zm-4.973 4.883c.483.425.922.582 1.307.582s.825-.157 1.307-.583l1.653 1.876c-.824.726-1.828 1.207-2.96 1.207s-2.136-.48-2.96-1.206zm-1.378-1.939c-.4-.824-.74-1.819-.983-2.944l-2.444.53c.28 1.288.678 2.477 1.179 3.507z" clip-rule="evenodd"/>
  </g>
  <!-- Cell: 3d-rotate-y-axis -->
  <text x="194" y="46.50" class="label">3d-rotate-y-ax…</text>
  <g transform="translate(207.00, 15.75) scale(0.7500, 0.7500) translate(0, 0)" color="#17181C">
    <g fill="none" stroke="currentColor" stroke-width="1.5"><path d="M12 1v22m0-6c5.523 0 10-2.238 10-5c0-1.85-2.011-3.467-5-4.331"/><path d="m20 6l-3 1.5l.5 3.5M2.832 10C2.297 10.613 2 11.289 2 12s.297 1.388.832 2M5 8.43c.863-.424 1.878-.769 3-1.014m0 9.168c-1.122-.245-2.137-.59-3-1.013"/></g>
  </g>
  <!-- Cell: 3d-rotate-y-axis-solid -->
  <text x="242" y="46.50" class="label">3d-rotate-y-ax…</text>
  <g transform="translate(255.00, 15.75) scale(0.7500, 0.7500) translate(0, 0)" color="#17181C">
    <path fill="currentColor" fill-rule="evenodd" d="M11 23h2v-5.023c2.495-.118 4.773-.674 6.518-1.547C21.434 15.472 23 13.964 23 12c0-1.316-.718-2.438-1.732-3.298c-.83-.704-1.91-1.283-3.144-1.722l.524-1.954l-.966-.258l-2.708 2.38l1.155 3.415l.966.259l.51-1.903c.991.368 1.793.82 2.37 1.308C20.712 10.854 21 11.465 21 12c0 .798-.673 1.79-2.376 2.641c-1.433.716-3.395 1.217-5.624 1.333V1h-2zM3.585 10.658C3.17 11.134 3 11.585 3 12s.17.867.585 1.342L2.08 14.658C1.424 13.908 1 13.008 1 12c0-1.007.424-1.909 1.08-2.658zm1.855-1.33c.78-.383 1.717-.704 2.773-.935l-.426-1.954c-1.189.26-2.282.629-3.227 1.092zm0 5.344c.78.383 1.717.704 2.773.935l-.426 1.954c-1.189-.26-2.282-.63-3.227-1.093z" clip-rule="evenodd"/>
  </g>
  <!-- Cell: 3d-scale -->
  <text x="290" y="46.50" class="label">3d-scale</text>
  <g transform="translate(303.00, 15.75) scale(0.7500, 0.7500) translate(0, 0)" color="#17181C">
    <path fill="none" stroke="currentColor" stroke-width="1.5" d="M12 13.75V7.391m0 6.359l5.486 3.84M12 13.75l-5.485 3.84M9.25 4.75a2.75 2.75 0 1 0 5.5 0a2.75 2.75 0 1 0-5.5 0m-7.5 14.5a2.75 2.75 0 1 0 5.5 0a2.75 2.75 0 1 0-5.5 0m15 0a2.75 2.75 0 1 0 5.5 0a2.75 2.75 0 1 0-5.5 0"/>
  </g>
  <!-- Cell: 3d-scale-remix -->
  <text x="338" y="46.50" class="label">3d-scale-remix</text>
  <g transform="translate(351.00, 15.75) scale(0.7500, 0.7500) translate(0, 0)" color="#17181C">
    <path fill="currentColor" fill-rule="evenodd" d="M8.001 4.5a4 4 0 1 1 5.25 3.801v5.957l4.105 2.242a4 4 0 1 1-1.266 2.157L12 16.424l-4.088 2.233q.088.409.089.843a4 4 0 1 1-1.354-3l4.103-2.241V8.3a4 4 0 0 1-2.749-3.8m4 10.5" clip-rule="evenodd"/>
  </g>
  <!-- Cell: 3d-scale-solid -->
  <text x="386" y="46.50" class="label">3d-scale-solid</text>
  <g transform="translate(399.00, 15.75) scale(0.7500, 0.7500) translate(0, 0)" color="#17181C">
    <path fill="currentColor" fill-rule="evenodd" d="M12 1.25a3.5 3.5 0 0 0-1.25 6.77v5.08l-4.476 3.132a3.5 3.5 0 1 0 1.563 1.958L12 15.276l4.163 2.914a3.5 3.5 0 1 0 1.563-1.958L13.25 13.1V8.02A3.501 3.501 0 0 0 12 1.25" clip-rule="evenodd"/>
  </g>
  <!-- Cell: add-pdf -->
  <text x="434" y="46.50" class="label">add-pdf</text>
  <g transform="translate(447.00, 15.75) scale(0.7500, 0.7500) translate(0, 0)" color="#17181C">
    <path fill="none" stroke="currentColor" stroke-width="1.5" d="M20 12V2H2v19l4-2.5h6m-6-11h10M6 12h7m10 6.5h-9m4.5-4.5v9"/>
  </g>
  <!-- Cell: add-pdf-remix -->
  <text x="2" y="96.00" class="label">add-pdf-remix</text>
  <g transform="translate(15.00, 65.25) scale(0.7500, 0.7500) translate(0, 0)" color="#17181C">
    <path fill="currentColor" fill-rule="evenodd" d="M1.751.25h22v22H6.735l-4.468.972l-1.91.415l.424-1.908l.97-4.366zm2.5 2.5v14.887l-.03.134l-.576 2.592l2.69-.585l.132-.028H21.25v-17zm9.75 7.25h3.75v2.5h-3.75v3.75h-2.5V12.5h-3.75V10h3.75V6.25h2.5z" clip-rule="evenodd"/>
  </g>
  <!-- Cell: add-pdf-solid -->
  <text x="50" y="96.00" class="label">add-pdf-solid</text>
  <g transform="translate(63.00, 65.25) scale(0.7500, 0.7500) translate(0, 0)" color="#17181C">
    <path fill="currentColor" fill-rule="evenodd" d="M12.5 19.5v-3.75h3.25V12.5H21V1H1v21.804L6.287 19.5zM5 8h10V6H5zm0 4.5h7v-2H5zM17.25 14v3.25H14v2.5h3.25V23h2.5v-3.25H23v-2.5h-3.25V14z" clip-rule="evenodd"/>
  </g>
  <!-- Cell: ai-edit-robot -->
  <text x="98" y="96.00" class="label">ai-edit-robot</text>
  <g transform="translate(111.00, 65.25) scale(0.7500, 0.7500) translate(0, 0)" color="#17181C">
    <path fill="none" stroke="currentColor" stroke-width="1.5" d="m9.744 22.253l13.1-13.1l-4.4-4.4l-13.1 13.1v4.4zm5.55-14.35l4.4 4.4M.805 9.5V3h8.5v6.5zM5.055 0v3m-1.5 2.25v2m3-2v2"/>
  </g>
  <!-- Cell: ai-edit-robot-remix -->
  <text x="146" y="96.00" class="label">ai-edit-robot-…</text>
  <g transform="translate(159.00, 65.25) scale(0.7500, 0.7500) translate(0, 0)" color="#17181C">
    <path fill="currentColor" fill-rule="evenodd" d="M11 2H6.75V0h-2.5v2H0v7.5h11zM2.25 4.5v2h2v-2zm4.5 2v-2h2v2zM3.777 16.595L8.87 11.5h3.536L5.91 17.996V21.5h3.503l11.05-11.05l-3.503-3.504l-3.96 3.96V7.372l3.077-3.076l.884-.884l.884.884l5.271 5.271l.884.884l-.884.884l-12.3 12.3l-.366.366H3.41v-7.039z" clip-rule="evenodd"/>
  </g>
  <!-- Cell: ai-edit-robot-solid -->
  <text x="194" y="96.00" class="label">ai-edit-robot-…</text>
  <g transform="translate(207.00, 65.25) scale(0.7500, 0.7500) translate(0, 0)" color="#17181C">
    <path fill="currentColor" fill-rule="evenodd" d="M.845 2.248H3.75V.498h2v1.75h3.656v7.5H.095v-7.5zm1.447 2.613v2h1.5v-2zm3.416 2v-2h1.5v2zm4.037 16.64h.31l.22-.22l9.42-9.419l-5.46-5.46l-9.42 9.42l-.22.219v5.46zm13.63-13.32l-2.62 2.62l-5.46-5.46l2.62-2.62l.53-.53l.53.53l4.4 4.4l.53.53z" clip-rule="evenodd"/>
  </g>
  <!-- Cell: ai-folder-robot -->
  <text x="242" y="96.00" class="label">ai-folder-robot</text>
  <g transform="translate(255.00, 65.25) scale(0.7500, 0.7500) translate(0, 0)" color="#17181C">
    <g fill="none" stroke="currentColor" stroke-width="1.5"><path d="M22 13V6.5H12l-4-4H2v19h9"/><path d="M13.941 22.295v-6.5h8.312v6.5H13.94Zm4.157-9v2.5m-1.458 2.25v2m2.916-2v2"/></g>
  </g>
  <!-- Cell: ai-folder-robot-remix -->
  <text x="290" y="96.00" class="label">ai-folder-robo…</text>
  <g transform="translate(303.00, 65.25) scale(0.7500, 0.7500) translate(0, 0)" color="#17181C">
    <path fill="currentColor" fill-rule="evenodd" d="M0 0h7.768l.366.366L10.768 3H22.5v9.5H20v-7H9.732l-.366-.366L6.732 2.5H2.5V20H11v2.5H0zm24 16.5h-4.25v-2h-2.5v2H13V24h11zM15.25 19v2h2v-2zm4.5 2v-2h2v2z" clip-rule="evenodd"/>
  </g>
  <!-- Cell: ai-folder-robot-solid -->
  <text x="338" y="96.00" class="label">ai-folder-robo…</text>
  <g transform="translate(351.00, 65.25) scale(0.7500, 0.7500) translate(0, 0)" color="#17181C">
    <path fill="currentColor" fill-rule="evenodd" d="M2 1.5H1v21h11.188V14h3.656v-1.75h5V14H23V5.5H12.414L8.707 1.793L8.414 1.5zm20.25 14h-2.906v-1.75h-2v1.75h-3.656V23H23v-7.5zm-6.364 2.613v2h1.5v-2zm3.416 2v-2h1.5v2z" clip-rule="evenodd"/>
  </g>
  <!-- Cell: ai-gaming-robot -->
  <text x="386" y="96.00" class="label">ai-gaming-robot</text>
  <g transform="translate(399.00, 65.25) scale(0.7500, 0.7500) translate(0, 0)" color="#17181C">
    <g fill="none" stroke="currentColor" stroke-width="1.5"><path d="M11.179 8.5h-9l-1.13 10.169A3 3 0 0 0 4.03 22h2.148l1-4.5h7l1 4.5h2.5c1.6 0 2.845-1.391 2.668-2.982l-.613-5.518M6.179 11.25v4m2-2h-4"/><path d="M14.26 10.34v-6.5h8.312v6.5zm4.156-9v2.5m-1.458 2.25v2m2.916-2v2"/></g>
  </g>
  <!-- Cell: ai-gaming-robot-remix -->
  <text x="434" y="96.00" class="label">ai-gaming-robo…</text>
  <g transform="translate(447.00, 65.25) scale(0.7500, 0.7500) translate(0, 0)" color="#17181C">
    <path fill="currentColor" fill-rule="evenodd" d="M24 2h-4.25V0h-2.5v2H13v7.5h11zm-8.75 2.5v2h2v-2zm4.5 2v-2h2v2zM11 8.5H1.386l-.128 1.107l-1.114 9.656A4.25 4.25 0 0 0 4.366 24h2.5l.305-.811L8.366 20h4.268l1.196 3.189l.304.811h2.5a4.25 4.25 0 0 0 4.222-4.737L19.96 11.5h-2.516l.929 8.05a1.75 1.75 0 0 1-1.739 1.95h-.768l-1.195-3.189l-.304-.811H6.634l-.304.811L5.134 21.5h-.768a1.75 1.75 0 0 1-1.738-1.95L3.614 11H11zm-5.25 4.25v2.5h2.5v-2.5zm7 0v2.5h2.5v-2.5z" clip-rule="evenodd"/>
  </g>
  <!-- Cell: ai-gaming-robot-solid -->
  <text x="2" y="145.50" class="label">ai-gaming-robo…</text>
  <g transform="translate(15.00, 114.75) scale(0.7500, 0.7500) translate(0, 0)" color="#17181C">
    <path fill="currentColor" fill-rule="evenodd" d="M22.061 3.25h-2.905V1.5h-2v1.75H13.5v7.5h9.311v-7.5zm-6.363 2.613v2h1.5v-2zm3.416 2v-2h1.5v2zM3 7h9v5.25h9.479l.684 6.158A3.685 3.685 0 0 1 18.5 22.5h-3.302l-.174-.783L14.198 18H8.802l-.826 3.717l-.174.783h-2.95a4 4 0 0 1-3.975-4.442L2.007 7.89L2.104 7zm3.25 4.625V10h1.5v1.625h1.625v1.5H7.75v1.625h-1.5v-1.625H4.625v-1.5z" clip-rule="evenodd"/>
  </g>
  <!-- Cell: ai-generate-voice-spark-2 -->
  <text x="50" y="145.50" class="label">ai-generate-vo…</text>
  <g transform="translate(63.00, 114.75) scale(0.7500, 0.7500) translate(0, 0)" color="#17181C">
    <g fill="none" stroke="currentColor" stroke-width="1.5"><path d="M14.451 4.5c2 0 4.5-2.5 4.5-4.5c0 2 2.5 4.5 4.5 4.5c-2 0-4.5 2.5-4.5 4.5c0-2-2.5-4.5-4.5-4.5ZM4.39 6h8.095v7.286a4.048 4.048 0 1 1-8.095 0z"/><path d="M1.15 13.286a7.286 7.286 0 1 0 14.571 0m-7.283 7.285V23"/></g>
  </g>
  <!-- Cell: ai-generate-voice-spark-2-remix -->
  <text x="98" y="145.50" class="label">ai-generate-vo…</text>
  <g transform="translate(111.00, 114.75) scale(0.7500, 0.7500) translate(0, 0)" color="#17181C">
    <path fill="currentColor" fill-rule="evenodd" d="M17.116 2.116C16.36 2.873 15.534 3.25 15 3.25v2.5c.534 0 1.36.377 2.116 1.134c.757.757 1.134 1.582 1.134 2.116h2.5c0-.534.377-1.36 1.134-2.116C22.64 6.127 23.466 5.75 24 5.75v-2.5c-.534 0-1.36-.377-2.116-1.134C21.127 1.36 20.75.534 20.75 0h-2.5c0 .534-.377 1.36-1.134 2.116M5.74 6.5H4.49v7.286a4.048 4.048 0 0 0 8.095 0V6.5zm1.25 7.286V9h3.095v4.786a1.548 1.548 0 1 1-3.095 0m-6.99 0c0 4.29 3.164 7.84 7.286 8.445V24h2.5v-1.77a8.54 8.54 0 0 0 7.285-8.444h-2.5a6.036 6.036 0 1 1-12.071 0z" clip-rule="evenodd"/>
  </g>
  <!-- Cell: ai-generate-voice-spark-2-solid -->
  <text x="146" y="145.50" class="label">ai-generate-vo…</text>
  <g transform="translate(159.00, 114.75) scale(0.7500, 0.7500) translate(0, 0)" color="#17181C">
    <path fill="currentColor" fill-rule="evenodd" d="M17.951 0c0 .627-.426 1.512-1.207 2.293c-.78.78-1.666 1.207-2.293 1.207v2c.627 0 1.512.427 2.293 1.207c.78.78 1.207 1.666 1.207 2.293h2c0-.627.427-1.512 1.207-2.293c.78-.78 1.666-1.207 2.293-1.207v-2c-.627 0-1.512-.427-2.293-1.207c-.78-.78-1.207-1.666-1.207-2.293zM3.89 5.5h9.095v7.786a4.548 4.548 0 1 1-9.095 0zm3.548 16.012A8.287 8.287 0 0 1 .15 13.286h2a6.286 6.286 0 0 0 12.572 0h2a8.287 8.287 0 0 1-7.285 8.226V23h-2z" clip-rule="evenodd"/>
  </g>
  <!-- Cell: ai-science-spark -->
  <text x="194" y="145.50" class="label">ai-science-spa…</text>
  <g transform="translate(207.00, 114.75) scale(0.7500, 0.7500) translate(0, 0)" color="#17181C">
    <g fill="none" stroke="currentColor" stroke-width="1.5"><path stroke-linejoin="round" d="M16.6 12.12c-.909 1.536-2.205 3.198-3.798 4.792c-4.207 4.207-8.896 6.338-10.474 4.76c-1.578-1.577.554-6.267 4.76-10.474c1.29-1.289 2.624-2.383 3.9-3.235q.514-.344 1.012-.632"/><path stroke-linecap="round" stroke-linejoin="round" d="M7.088 16.912c4.207 4.207 8.896 6.338 10.474 4.76c1.578-1.577-.554-6.267-4.76-10.474C8.593 6.991 3.904 4.86 2.326 6.438c-1.578 1.577.554 6.266 4.76 10.473Z"/><path d="M14 5.5c2 0 4.5-2.5 4.5-4.5c0 2 2.5 4.5 4.5 4.5c-2 0-4.5 2.5-4.5 4.5c0-2-2.5-4.5-4.5-4.5Z"/></g>
  </g>
  <!-- Cell: ai-science-spark-remix -->
  <text x="242" y="145.50" class="label">ai-science-spa…</text>
  <g transform="translate(255.00, 114.75) scale(0.7500, 0.7500) translate(0, 0)" color="#17181C">
    <path fill="currentColor" fill-rule="evenodd" d="M17.116 2.116C16.36 2.873 15.534 3.25 15 3.25v2.5c.534 0 1.36.377 2.116 1.134c.757.757 1.134 1.582 1.134 2.116h2.5c0-.534.377-1.36 1.134-2.116C22.64 6.127 23.466 5.75 24 5.75v-2.5c-.534 0-1.36-.377-2.116-1.134C21.127 1.36 20.75.534 20.75 0h-2.5c0 .534-.377 1.36-1.134 2.116m-4.879 3.952q.383-.174.763-.318v2.722c-.486.236-1 .524-1.53.862a30 30 0 0 1 3.196 3.196c.338-.53.626-1.044.862-1.53h2.722q-.144.38-.318.763c-.413.908-.97 1.87-1.65 2.85a18.4 18.4 0 0 1 1.65 2.849c.467 1.027.778 2.048.834 2.982c.056.933-.139 1.932-.877 2.67s-1.737.933-2.67.877s-1.955-.367-2.982-.834c-.908-.413-1.87-.97-2.85-1.65a18.4 18.4 0 0 1-2.849 1.65c-1.027.467-2.048.778-2.982.834c-.933.056-1.932-.14-2.67-.877c-.738-.738-.933-1.737-.877-2.67c.056-.934.367-1.955.834-2.982c.413-.908.97-1.87 1.65-2.85a18.4 18.4 0 0 1-1.65-2.849C.376 10.736.065 9.714.01 8.78c-.056-.932.14-1.931.877-2.67c.738-.737 1.737-.932 2.67-.876c.934.056 1.955.367 2.982.834c.908.413 1.87.97 2.85 1.65a18.4 18.4 0 0 1 2.849-1.65M7.305 9.334a15 15 0 0 0-1.801-.99c-.868-.395-1.578-.584-2.098-.615c-.523-.031-.701.099-.752.15c-.05.05-.18.229-.15.751c.032.52.22 1.23.615 2.098c.257.566.59 1.172.99 1.802a30 30 0 0 1 3.196-3.196m-1.679 5.278a27 27 0 0 1 1.789-1.972a27 27 0 0 1 1.973-1.79a27 27 0 0 1 1.972 1.79a27 27 0 0 1 1.79 1.972a27 27 0 0 1-1.79 1.973a27 27 0 0 1-1.972 1.789a27 27 0 0 1-1.973-1.789a27 27 0 0 1-1.789-1.973M4.11 16.695c-.402.63-.734 1.236-.99 1.801c-.395.868-.584 1.578-.616 2.098c-.03.523.1.701.15.752s.23.18.752.15c.52-.032 1.23-.22 2.098-.615a15 15 0 0 0 1.801-.99a30 30 0 0 1-3.195-3.196m7.36 3.195c.63.402 1.236.734 1.801.99c.868.395 1.578.584 2.099.616c.522.03.7-.099.752-.15c.05-.05.18-.23.149-.752c-.031-.52-.22-1.23-.615-2.098a15 15 0 0 0-.99-1.801a30 30 0 0 1-3.196 3.195" clip-rule="evenodd"/>
  </g>
  <!-- Cell: ai-science-spark-solid -->
  <text x="290" y="145.50" class="label">ai-science-spa…</text>
  <g transform="translate(303.00, 114.75) scale(0.7500, 0.7500) translate(0, 0)" color="#17181C">
    <path fill="currentColor" fill-rule="evenodd" d="M16.293 3.293C17.073 2.513 17.5 1.627 17.5 1h2c0 .627.427 1.512 1.207 2.293c.781.78 1.666 1.207 2.293 1.207v2c-.627 0-1.512.427-2.293 1.207c-.78.78-1.207 1.666-1.207 2.293h-2c0-.627-.426-1.512-1.207-2.293C15.513 6.927 14.628 6.5 14 6.5v-2c.628 0 1.513-.427 2.293-1.207m-9.3 2.445c.937.426 1.936 1.01 2.953 1.728q.244-.173.487-.335q.539-.359 1.065-.665l1.005 1.73q-.438.253-.893.555a29 29 0 0 1 1.9 1.74a29 29 0 0 1 1.74 1.9q.262-.397.49-.78l1.721 1.018q-.416.703-.927 1.426c.718 1.017 1.302 2.016 1.728 2.953c.46 1.011.759 2.001.812 2.894c.054.891-.135 1.808-.804 2.478c-.67.669-1.586.858-2.478.804s-1.882-.353-2.894-.812c-.937-.426-1.936-1.01-2.952-1.728c-1.017.718-2.016 1.302-2.953 1.728c-1.011.46-2.001.759-2.894.812c-.892.054-1.809-.135-2.478-.804c-.67-.67-.858-1.587-.804-2.478c.053-.893.352-1.883.812-2.894c.426-.937 1.01-1.936 1.728-2.953c-.718-1.017-1.302-2.016-1.728-2.953c-.46-1.011-.76-2.001-.813-2.894c-.053-.892.135-1.809.805-2.478c.669-.67 1.586-.858 2.477-.804c.893.053 1.883.352 2.895.812m-.828 1.82c.662.302 1.375.702 2.116 1.193a29 29 0 0 0-1.899 1.74a29 29 0 0 0-1.741 1.9a15.5 15.5 0 0 1-1.192-2.116c-.402-.884-.603-1.626-.636-2.187c-.034-.563.102-.824.222-.944s.38-.256.943-.222s1.303.235 2.187.637M3.45 17.836c.3-.661.7-1.374 1.191-2.115a29 29 0 0 0 1.74 1.899a29 29 0 0 0 1.9 1.74c-.74.491-1.454.891-2.116 1.192c-.883.402-1.625.603-2.186.637c-.563.034-.824-.103-.944-.222s-.256-.38-.222-.944c.034-.561.235-1.303.637-2.187m4.346-1.63a27 27 0 0 0 2.15 1.934a27 27 0 0 0 2.15-1.934a27 27 0 0 0 1.933-2.15a27 27 0 0 0-1.934-2.15a27 27 0 0 0-2.15-1.933a27 27 0 0 0-2.149 1.933a27 27 0 0 0-1.934 2.15a27 27 0 0 0 1.934 2.15m5.93 4.346c-.662-.3-1.375-.7-2.116-1.191a29 29 0 0 0 1.9-1.741a29 29 0 0 0 1.74-1.9c.49.742.89 1.455 1.191 2.116c.402.884.603 1.625.637 2.187c.034.563-.103.824-.222.943c-.12.12-.38.256-.944.223c-.561-.034-1.302-.235-2.186-.637" clip-rule="evenodd"/>
  </g>
  <!-- Cell: ai-upscale-spark -->
  <text x="2" y="195.00" class="label">ai-upscale-spa…</text>
  <g transform="translate(15.00, 164.25) scale(0.7500, 0.7500) translate(0, 0)" color="#17181C">
    <g fill="none" stroke="currentColor" stroke-width="1.5"><path d="M6 11.313c2.361 0 5.313-2.952 5.313-5.313c0 2.361 2.95 5.313 5.312 5.313c-2.361 0-5.313 2.95-5.313 5.312c0-2.361-2.95-5.313-5.312-5.313Zm11.72 6.407l4.593 4.593"/><path stroke-linejoin="round" d="M2.313 11.313a9 9 0 1 0 18 0a9 9 0 1 0-18 0"/></g>
  </g>
  <!-- Cell: ai-upscale-spark-remix -->
  <text x="50" y="195.00" class="label">ai-upscale-spa…</text>
  <g transform="translate(63.00, 164.25) scale(0.7500, 0.7500) translate(0, 0)" color="#17181C">
    <path fill="currentColor" fill-rule="evenodd" d="M3.222 3.222a11 11 0 0 1 16.695 14.22L24 21.525L21.525 24l-4.083-4.083A11.001 11.001 0 0 1 3.222 3.221M11 2.5a8.5 8.5 0 1 0 0 17a8.5 8.5 0 0 0 0-17M5.75 9.75c.7 0 1.713-.481 2.616-1.384S9.75 6.451 9.75 5.75h2.5c0 .7.481 1.713 1.384 2.616S15.549 9.75 16.25 9.75v2.5c-.7 0-1.713.481-2.616 1.384s-1.384 1.915-1.384 2.616h-2.5c0-.7-.481-1.713-1.384-2.616S6.451 12.25 5.75 12.25z" clip-rule="evenodd"/>
  </g>
  <!-- Cell: ai-upscale-spark-solid -->
  <text x="98" y="195.00" class="label">ai-upscale-spa…</text>
  <g transform="translate(111.00, 164.25) scale(0.7500, 0.7500) translate(0, 0)" color="#17181C">
    <path fill="currentColor" fill-rule="evenodd" d="M3.313 11.313a8 8 0 1 1 16 0a8 8 0 0 1-16 0m8-10c-5.523 0-10 4.477-10 10s4.477 10 10 10a9.96 9.96 0 0 0 6.328-2.258l3.965 3.965l1.414-1.415l-3.964-3.964a9.96 9.96 0 0 0 2.256-6.328c0-5.523-4.477-10-10-10m-1 4.687c0 .808-.54 1.896-1.478 2.835c-.939.938-2.027 1.477-2.835 1.477v2c.808 0 1.896.54 2.835 1.478c.938.939 1.477 2.027 1.477 2.835h2c0-.808.54-1.896 1.478-2.835c.939-.938 2.027-1.477 2.835-1.477v-2c-.808 0-1.896-.54-2.835-1.478c-.938-.939-1.477-2.027-1.477-2.835z" clip-rule="evenodd"/>
  </g>
  <!-- Cell: ai-vehicle-robot-1 -->
  <text x="146" y="195.00" class="label">ai-vehicle-rob…</text>
  <g transform="translate(159.00, 164.25) scale(0.7500, 0.7500) translate(0, 0)" color="#17181C">
    <g fill="none" stroke="currentColor" stroke-width="1.5"><path d="M14.885 9.84v-6.5h8.311v6.5zm4.156-9v2.5m-1.459 2.25v2m2.916-2v2m-8.718.91H5.758L4.383 14m12.465-1.5l.375 1.5"/><path stroke-linecap="square" d="M3.062 20.5H.802v-6.477h20V20.5h-2.26m-10.476 0h5.471"/><path d="M3.053 20.5a2.5 2.5 0 1 0 5 0a2.5 2.5 0 1 0-5 0m10.5 0a2.5 2.5 0 1 0 5 0a2.5 2.5 0 1 0-5 0"/></g>
  </g>
  <!-- Cell: ai-vehicle-robot-1-remix -->
  <text x="194" y="195.00" class="label">ai-vehicle-rob…</text>
  <g transform="translate(207.00, 164.25) scale(0.7500, 0.7500) translate(0, 0)" color="#17181C">
    <path fill="currentColor" fill-rule="evenodd" d="M24 2h-4.25V0h-2.5v2H13v7.5h11zm-8.75 2.5v2h2v-2zm4.5 2v-2h2v2zM11 8.75H2.975l-.2 1.005l-.8 3.995H0v8.5h1.75V24h2.5v-1.75h9.5V24h2.5v-1.75H18v-8.5h-1.975l-.45-2.25h-2.55l.75 3.745l.2 1.005H15.5v3.5h-13v-3.5h1.525l.2-1.005l.8-3.995H11zm1 6.75l-.5-3h-5l-.5 3z" clip-rule="evenodd"/>
  </g>
  <!-- Cell: ai-vehicle-robot-1-solid -->
  <text x="242" y="195.00" class="label">ai-vehicle-rob…</text>
  <g transform="translate(255.00, 164.25) scale(0.7500, 0.7500) translate(0, 0)" color="#17181C">
    <path fill="currentColor" fill-rule="evenodd" d="M23.14 2.627h-2.906V.877h-2v1.75h-3.656v7.5h9.312v-7.5zM16.776 5.24v2h1.5v-2zm3.416 2v-2h1.5v2zM6.065 7.045h-.78l-.19.758l-1.377 5.508H.111v7.735H1.93v-.079a3.656 3.656 0 1 1 7.31.079h3.768v-.079a3.656 3.656 0 1 1 7.31.079h1.793V13.31h-3.607l-.167-.668l-.243-.97l-1.94.485l.243.97l.045.183H5.78l1.066-4.266h5.265v-2zm8.442 13.922a2.156 2.156 0 1 1 4.312 0a2.156 2.156 0 0 1-4.312 0m-8.922-2.156a2.156 2.156 0 1 0 0 4.312a2.156 2.156 0 0 0 0-4.312" clip-rule="evenodd"/>
  </g>
  <!-- Cell: airplane-disabled -->
  <text x="290" y="195.00" class="label">airplane-disab…</text>
  <g transform="translate(303.00, 164.25) scale(0.7500, 0.7500) translate(0, 0)" color="#17181C">
    <path fill="none" stroke="currentColor" stroke-width="1.5" d="m.992 1.125l21.75 21.75m-5.924-9.891l4.475 1.119l.895-3.133l-8.055-4.027v-3.58a2.238 2.238 0 0 0-4.475 0v3.58l-1.435.717m8.341 11.873l-.641 1.282l-4.028-2.237l-4.027 2.237l-.895-1.79l2.685-2.888v-2.262l-1.18-1.267l-5.98 1.495l-.895-3.133l4.185-2.093"/>
  </g>

  <text x="347" y="116.744" class="overlay-cat">@onwo/iconset-streamline-sharp</text>
  <text x="348" y="139.738" class="overlay-title">sharp free icons</text>
  <text x="351" y="190.744" class="overlay-meta">CC-BY-4.0 · 1,500 icons</text>
</svg>
