<svg xmlns="http://www.w3.org/2000/svg" viewBox="0 0 480 198" width="480" height="198">
  <style>
    .bg { fill: #FFFFFF; stroke: #E0E0E0; }
    .grid-line { stroke: #E0E0E0; stroke-width: 1; }
    .label { font-family: -apple-system, BlinkMacSystemFont, "Segoe UI", Roboto, Helvetica, Arial, sans-serif; font-size: 6px; font-weight: 500; fill: #B3B5BA; }
    .overlay-cat { font-family: -apple-system, BlinkMacSystemFont, "Segoe UI", Roboto, Helvetica, Arial, sans-serif; font-size: 9.5px; font-weight: 400; fill: #797C82; }
    .overlay-title { font-family: -apple-system, BlinkMacSystemFont, "Segoe UI", Roboto, Helvetica, Arial, sans-serif; font-size: 16.5px; font-weight: 700; fill: #17181C; }
    .overlay-meta { font-family: -apple-system, BlinkMacSystemFont, "Segoe UI", Roboto, Helvetica, Arial, sans-serif; font-size: 9.5px; font-weight: 400; fill: #797C82; }
  </style>

  <rect width="480" height="198" class="bg" />

  <line x1="0" y1="49.5" x2="480" y2="49.5" class="grid-line" />
  <line x1="0" y1="99" x2="336" y2="99" class="grid-line" />
  <line x1="0" y1="148.5" x2="336" y2="148.5" class="grid-line" />
  <line x1="48" y1="0" x2="48" y2="198" class="grid-line" />
  <line x1="96" y1="0" x2="96" y2="198" class="grid-line" />
  <line x1="144" y1="0" x2="144" y2="198" class="grid-line" />
  <line x1="192" y1="0" x2="192" y2="198" class="grid-line" />
  <line x1="240" y1="0" x2="240" y2="198" class="grid-line" />
  <line x1="288" y1="0" x2="288" y2="198" class="grid-line" />
  <line x1="336" y1="0" x2="336" y2="99" class="grid-line" />
  <line x1="384" y1="0" x2="384" y2="99" class="grid-line" />
  <line x1="432" y1="0" x2="432" y2="99" class="grid-line" />
  <line x1="336" y1="99" x2="480" y2="99" class="grid-line" />
  <line x1="336" y1="99" x2="336" y2="198" class="grid-line" />

  <!-- Cell: academia -->
  <text x="2" y="46.50" class="label">academia</text>
  <g transform="translate(15.00, 15.75) scale(0.0402, 0.0352) translate(0, 0)" color="#17181C">
    <path fill="currentColor" d="M244.377 427.349c0 6.85-.044 13.703-.044 20.597c60.027.09 120.053 0 180.077.046c0-6.853-.043-13.703-.043-20.554c-12.067-2.432-26.964-5.835-31.605-18.962c-46.101-114.703-92.869-229.187-138.352-344.11c-33.24-.575-66.479-.354-99.719-.132c6.188 13.88 11.36 28.2 17.77 41.99c-38.942 101.178-78.502 202.178-118.02 303.136c-4.464 12.862-19.096 15.737-30.808 18.167c0 6.763-.043 13.57-.043 20.378c38.278.177 76.556.044 114.835.088c-.044-6.939-.044-13.835-.087-20.73c-12.023-1.856-25.814-1.635-35.583-9.946c-7.69-7.425-4.287-19.007-1.105-27.715c7.647-19.757 14.897-39.693 23.25-59.186c46.37.266 92.69-.043 139.059.132c6.366 15.824 12.73 31.692 19.096 47.56c4.244 10.696 8.09 22.676 4.64 34.168c-8.93 14.81-28.289 13.927-43.318 15.074zM138.735 293.64c17.77-47.208 36.599-94.061 54.014-141.401c18.787 47.163 37.704 94.282 56.534 141.401a11615 11615 0 0 1-110.548 0"/>
  </g>
  <!-- Cell: academia-square -->
  <text x="50" y="46.50" class="label">academia-square</text>
  <g transform="translate(63.00, 15.75) scale(0.0402, 0.0352) translate(0, 0)" color="#17181C">
    <path fill="currentColor" d="M48 32C21.5 32 0 53.5 0 80v352c0 26.5 21.5 48 48 48h352c26.5 0 48-21.5 48-48V80c0-26.5-21.5-48-48-48zm159.793 64c13.85-.01 27.699.065 41.549.305c37.902 95.77 76.875 191.171 115.293 286.758c3.867 10.939 16.282 13.776 26.338 15.802c0 5.709.035 11.417.035 17.127c-50.02-.038-100.04.037-150.063-.037c0-5.745.035-11.455.035-17.164c12.525-.956 28.658-.218 36.1-12.56c2.874-9.577-.33-19.56-3.867-28.473a40245 40245 0 0 0-15.914-39.635c-38.64-.146-77.24.112-115.881-.11c-6.961 16.245-13.004 32.859-19.377 49.323c-2.651 7.256-5.487 16.908.922 23.096c8.14 6.925 19.633 6.74 29.652 8.287c.036 5.746.036 11.493.072 17.275c-31.898-.037-63.796.074-95.695-.074c0-5.673.035-11.344.035-16.98c9.76-2.025 21.954-4.422 25.674-15.141c32.931-84.131 65.898-168.297 98.35-252.611c-5.342-11.494-9.652-23.426-14.809-34.993c13.85-.092 27.701-.186 41.551-.195m-9.836 73.533c-14.513 39.45-30.204 78.494-45.012 117.834a9679 9679 0 0 0 92.123 0c-15.691-39.266-31.455-78.53-47.111-117.834"/>
  </g>
  <!-- Cell: acclaim -->
  <text x="98" y="46.50" class="label">acclaim</text>
  <g transform="translate(111.00, 15.75) scale(0.0469, 0.0352) translate(0, 0)" color="#17181C">
    <path fill="currentColor" d="M192 64C176.376 74.86 34.879 208.266 27.429 221.373v72.22c10.325.253 147.565-143.552 164.571-150.382c17.006 6.83 154.246 150.635 164.571 150.382v-72.22C349.121 208.266 207.624 74.859 192 64m0 154.406C176.376 229.266 34.879 362.672 27.429 375.78V448c10.325.254 147.565-143.551 164.571-150.383C209.006 304.448 346.246 448.253 356.571 448v-72.221C349.121 362.672 207.624 229.266 192 218.406"/>
  </g>
  <!-- Cell: acclaim-square -->
  <text x="146" y="46.50" class="label">acclaim-square</text>
  <g transform="translate(159.00, 15.75) scale(0.0402, 0.0352) translate(0, 0)" color="#17181C">
    <path fill="currentColor" d="M48 32C21.5 32 0 53.5 0 80v352c0 26.5 21.5 48 48 48h352c26.5 0 48-21.5 48-48V80c0-26.5-21.5-48-48-48zm176 64c13.02 9.05 130.934 120.222 137.143 131.145v60.183c-8.605.21-122.971-119.626-137.143-125.318c-14.172 5.692-128.538 125.529-137.143 125.318v-60.183C93.066 216.222 210.98 105.049 224 96m0 128.672c13.02 9.05 130.934 120.222 137.143 131.144V416c-8.605.21-122.971-119.627-137.143-125.32C209.828 296.373 95.462 416.21 86.857 416v-60.184C93.066 344.894 210.98 233.721 224 224.672"/>
  </g>
  <!-- Cell: acm -->
  <text x="194" y="46.50" class="label">acm</text>
  <g transform="translate(207.00, 15.75) scale(0.0352, 0.0352) translate(0, 0)" color="#17181C">
    <path fill="currentColor" d="M256 8L8 256l248 248l248-248zm.023 399.39c-83.944 0-152.016-68.027-152.016-151.97c0-83.99 68.072-152.064 152.016-152.064c83.989 0 151.972 68.074 151.972 152.064c0 83.944-67.983 151.97-151.972 151.97m-94.29-146.914c-1.81.604-3.201 1.532-4.129 2.831c-1.021 1.3-1.579 2.97-1.579 5.012c0 3.063.883 5.198 2.507 6.357c1.625 1.161 4.084 1.67 7.378 1.67c1.67 0 3.528-.277 5.336-1.205c1.95-.742 3.62-1.949 5.105-3.387v-13.69q-5.22.557-8.354.974c-2.089.232-4.222.649-6.264 1.438M256 118.576c-75.41 0-136.54 61.133-136.54 136.544c0 75.408 61.13 136.54 136.54 136.54s136.543-61.132 136.543-136.54c0-75.41-61.132-136.543-136.543-136.543M196.95 288.97h-20.603v-6.913a201 201 0 0 0-3.804 3.108c-1.067.974-2.505 1.811-4.409 2.786c-1.856.974-3.573 1.67-5.383 2.042c-1.718.51-4.13.742-7.285.742c-5.802 0-10.627-2.042-14.432-5.894c-3.852-3.945-5.801-8.77-5.801-14.758c0-4.964.975-8.91 2.924-11.88c1.997-3.015 4.78-5.428 8.4-7.191c3.71-1.763 8.167-3.016 13.271-3.712c5.198-.649 10.718-1.3 16.705-1.625v-.415c0-3.573-1.393-6.126-4.036-7.471c-2.69-1.393-6.683-2.088-12.065-2.088c-2.459 0-5.243.465-8.491 1.39c-3.204.79-6.357 1.997-9.513 3.343h-1.67v-15.916c2.042-.648 5.29-1.3 9.837-2.135a75.6 75.6 0 0 1 13.782-1.254c11.323 0 19.537 1.949 24.732 5.66c5.243 3.805 7.843 9.606 7.843 17.31v44.87zm66.357-44.78h-2.645c-.742-.787-1.811-1.67-2.97-2.505c-1.255-1.02-2.46-1.856-3.898-2.6c-1.485-.928-3.248-1.484-5.011-2.135a23 23 0 0 0-6.357-.882c-5.243 0-9.329 1.81-12.204 5.522c-2.83 3.619-4.362 8.537-4.362 14.71c0 6.544 1.576 11.508 4.64 14.757c3.062 3.2 7.1 4.825 12.25 4.825c2.598 0 4.92-.324 6.916-.835c1.901-.603 3.573-1.345 4.918-2.135c1.439-.834 2.646-1.624 3.62-2.552c.975-.835 1.855-1.625 2.459-2.319h2.645v17.54c-1.161.512-2.507 1.114-4.084 1.81c-1.531.604-3.015 1.162-4.687 1.58c-1.949.648-3.898.927-5.615 1.252c-1.763.324-4.038.51-6.913.51c-5.429 0-10.486-.742-14.99-2.09c-4.453-1.39-8.35-3.48-11.692-6.311c-3.342-2.922-5.894-6.495-7.75-10.765c-1.856-4.318-2.736-9.467-2.736-15.267c0-6.356.928-11.6 2.97-16.103c1.996-4.408 4.639-8.026 8.12-10.858c3.293-2.736 7.146-4.78 11.647-6.078c4.409-1.346 9.048-1.997 13.873-1.997c3.621 0 7.333.465 10.904 1.346c3.667.787 7.285 2.135 10.951 3.99zm89.697 44.78v-32.946c0-3.202-.047-5.894-.185-8.168c-.141-2.226-.51-4.084-1.114-5.476c-.558-1.438-1.532-2.414-2.739-3.063c-1.205-.695-2.97-.974-5.15-.974c-1.579 0-3.11.28-4.687.974c-1.532.696-3.201 1.717-5.012 2.924v46.728h-20.555V256.02c0-3.201-.048-5.894-.186-8.168c-.186-2.226-.463-4.084-1.066-5.476c-.65-1.438-1.532-2.414-2.737-3.063c-1.3-.694-3.015-.974-5.198-.974c-1.717 0-3.342.37-4.966 1.114a43 43 0 0 0-4.685 2.784v46.727h-20.56V223.12h20.558v7.285c3.342-2.831 6.544-5.102 9.513-6.73c2.925-1.578 6.266-2.413 10.024-2.413c3.99 0 7.563.973 10.533 2.877c3.156 1.901 5.429 4.732 7.054 8.585c3.945-3.667 7.702-6.498 11.137-8.492c3.528-1.997 7.051-2.97 10.627-2.97c3.062 0 5.799.558 8.26 1.484c2.414 1.021 4.501 2.507 6.126 4.409c1.902 2.135 3.249 4.64 4.13 7.564c.975 2.924 1.392 6.683 1.392 11.416v42.83h-20.514z"/>
  </g>
  <!-- Cell: acm-square -->
  <text x="242" y="46.50" class="label">acm-square</text>
  <g transform="translate(255.00, 15.75) scale(0.0402, 0.0352) translate(0, 0)" color="#17181C">
    <path fill="currentColor" d="M48 32C21.5 32 0 53.5 0 80v352c0 26.5 21.5 48 48 48h352c26.5 0 48-21.5 48-48V80c0-26.5-21.5-48-48-48zm176 64l160 160l-160 160L64 256zm.014 61.52c-54.158 0-98.075 43.918-98.075 98.105c0 54.157 43.917 98.045 98.075 98.045c54.186 0 98.047-43.888 98.047-98.045c0-54.187-43.86-98.105-98.047-98.105m-.014 9.82c48.652 0 88.092 39.44 88.092 88.092c0 48.65-39.44 88.091-88.092 88.091s-88.09-39.44-88.09-88.091c0-48.653 39.438-88.092 88.09-88.092m-59.111 66.162a49 49 0 0 0-8.891.809c-2.933.538-5.03.96-6.348 1.378v10.268h1.079c2.036-.868 4.07-1.647 6.136-2.156c2.096-.597 3.892-.899 5.479-.899c3.472 0 6.049.45 7.785 1.348c1.705.868 2.603 2.515 2.603 4.82v.268c-3.862.21-7.423.63-10.777 1.049c-3.293.449-6.168 1.257-8.562 2.394c-2.335 1.138-4.132 2.695-5.42 4.64c-1.258 1.917-1.887 4.462-1.887 7.665c0 3.863 1.259 6.976 3.744 9.521c2.455 2.486 5.568 3.801 9.31 3.801c2.036 0 3.592-.15 4.7-.478c1.168-.24 2.275-.689 3.472-1.317c1.229-.629 2.156-1.168 2.844-1.797a130 130 0 0 1 2.455-2.005v4.46h13.293l.002-.001v-28.95c0-4.97-1.678-8.711-5.06-11.166c-3.352-2.394-8.652-3.652-15.957-3.652m96.697.086c-2.424 0-4.578.538-6.465 1.557c-1.916 1.05-3.982 2.515-6.139 4.341v-4.699h-13.261v42.48h13.263v-30.146a28 28 0 0 1 3.022-1.795c1.048-.48 2.097-.719 3.205-.719c1.408 0 2.515.18 3.353.627c.778.419 1.348 1.05 1.766 1.977c.39.898.568 2.097.688 3.533c.089 1.467.119 3.204.119 5.27v21.256h13.261v-30.147c1.169-.779 2.247-1.438 3.235-1.887a7.3 7.3 0 0 1 3.023-.629c1.407 0 2.545.181 3.323.63c.778.418 1.407 1.048 1.767 1.976c.39.898.628 2.097.719 3.533c.089 1.467.119 3.202.119 5.268v21.254h13.234v-27.633c0-3.054-.269-5.479-.898-7.365c-.568-1.887-1.437-3.504-2.664-4.881c-1.048-1.227-2.394-2.185-3.951-2.844a15 15 0 0 0-5.33-.957c-2.307 0-4.58.628-6.856 1.916c-2.216 1.287-4.64 3.113-7.185 5.478c-1.049-2.485-2.515-4.312-4.551-5.539c-1.916-1.228-4.222-1.855-6.797-1.855m-46.97.002c-3.114 0-6.108.419-8.952 1.287c-2.904.837-5.39 2.157-7.516 3.922c-2.245 1.827-3.95 4.162-5.238 7.006c-1.317 2.905-1.916 6.287-1.916 10.388c0 3.742.568 7.065 1.766 9.85c1.197 2.755 2.844 5.06 5 6.945c2.156 1.827 4.671 3.175 7.545 4.073c2.905.869 6.167 1.347 9.67 1.347c1.854 0 3.321-.12 4.459-.33c1.108-.21 2.365-.388 3.623-.807c1.078-.269 2.035-.63 3.023-1.019c1.018-.45 1.886-.837 2.635-1.168v-11.316h-1.705c-.39.447-.959.957-1.588 1.496c-.628.598-1.406 1.108-2.334 1.646c-.868.51-1.947.988-3.174 1.377c-1.288.33-2.785.54-4.46.54c-3.324 0-5.93-1.049-7.905-3.114c-1.976-2.096-2.994-5.298-2.994-9.52c0-3.982.988-7.155 2.814-9.49c1.855-2.394 4.49-3.562 7.873-3.562c1.496 0 2.844.21 4.102.568c1.137.42 2.276.778 3.234 1.377c.928.48 1.704 1.019 2.514 1.678c.748.538 1.437 1.107 1.916 1.615h1.707V237.03c-2.366-1.197-4.701-2.066-7.067-2.574a29.6 29.6 0 0 0-7.033-.867m-42.003 23.742v8.832c-.958.928-2.035 1.707-3.293 2.186c-1.166.598-2.366.777-3.443.777c-2.125 0-3.712-.329-4.76-1.078c-1.048-.748-1.617-2.126-1.617-4.102c0-1.317.36-2.394 1.02-3.232c.598-.839 1.495-1.437 2.664-1.826c1.317-.51 2.693-.778 4.04-.928q2.022-.27 5.39-.629"/>
  </g>
  <!-- Cell: acmdl -->
  <text x="290" y="46.50" class="label">acmdl</text>
  <g transform="translate(303.00, 15.75) scale(0.0352, 0.0352) translate(0, 0)" color="#17181C">
    <path fill="currentColor" d="M220.12 208.007c-2.514-1.934-4.682-3.383-8.014-3.34c-12.599.166-25.204.066-37.805.066h-4.332v95.865c11.966 0 23.495-.57 34.933.189c8.603.57 15.393-1.437 20.227-8.627c1.355-2.019 2.747-4.54 2.774-6.844c.22-19.285-.283-38.583.318-57.853c.254-8.171-1.55-14.413-8.101-19.455zm279.91 51.397c1.07-1.069 2.433-1.842 3.97-2.978c-11.23-11.175-21.753-21.637-32.263-32.117c-6.289-6.272-12.628-12.497-18.75-18.93c-.948-.998-1.503-3.158-1.154-4.5c5.88-22.555 11.934-45.064 17.943-67.588c.103-.389.1-.804.185-1.548c-12.671-3.453-25.338-6.907-38.005-10.352c-9.998-2.722-19.96-5.589-30.023-8.05c-2.79-.682-3.717-2-4.39-4.553c-5.711-21.744-11.563-43.45-17.392-65.163c-.208-.781-.605-1.513-1.077-2.67c-8.432 2.217-16.774 4.381-25.1 6.61c-14.652 3.918-29.29 7.902-43.957 11.761c-1.024.268-2.684.122-3.342-.537C289.829 41.916 273.082 24.95 256.316 8h-1.664c-16.71 16.833-33.4 33.683-50.188 50.438c-.776.774-2.548 1.184-3.635.905c-8.543-2.191-17.021-4.638-25.542-6.92c-14.645-3.922-29.307-7.786-43.897-11.657c-.274.43-.49.64-.556.89c-5.887 22.083-11.869 44.138-17.527 66.277c-.924 3.612-2.715 5.073-6.03 5.943c-20.911 5.48-41.776 11.155-62.696 16.602c-3.428.89-4.146 1.937-3.123 5.632c5.881 21.258 11.265 42.652 17.104 63.92c.745 2.708.064 4.049-1.609 5.719c-15.617 15.589-31.132 31.28-46.842 46.773c-2.686 2.649-2.912 4.113-.08 6.896c15.73 15.474 31.22 31.193 46.856 46.761c1.844 1.834 2.344 3.313 1.58 6.089c-5.856 21.256-11.3 42.625-17.135 63.885c-.957 3.485-.072 4.518 3.113 5.36c21.403 5.666 42.739 11.591 64.17 17.136c2.816.73 3.792 2.092 4.417 4.448c3.094 11.715 6.206 23.426 9.317 35.14c2.925 11.01 5.856 22.017 8.795 33.066c23.358-6.227 46.3-12.375 69.28-18.373c1.271-.333 3.342.094 4.237.982c16.735 16.622 33.35 33.368 49.99 50.088h1.664c6.285-6.438 12.534-12.913 18.866-19.303c10.062-10.154 20.202-20.229 30.253-30.393c1.611-1.628 2.933-2.07 5.394-1.399c21.504 5.88 43.078 11.504 64.635 17.189c1.168.308 2.37.491 3.897.804c2.543-9.365 5.043-18.508 7.504-27.659c3.618-13.458 7.236-26.914 10.778-40.393c.569-2.168 1.303-3.385 3.845-4.06c22.36-5.91 44.651-12.08 66.962-18.178c.501-.138.98-.356 1.64-.597c-6-22.397-11.886-44.657-17.99-66.855c-.9-3.278-.592-5.35 1.97-7.866c15.442-15.168 30.642-30.587 45.96-45.887zm-251.292 43.885c-6.238 6.304-12.535 12.56-19.11 18.503c-1.779 1.608-4.63 2.838-6.998 2.856c-25.651.196-51.303.116-76.955.101c-.394 0-.788-.138-1.48-.268V180.559h4.238c23.849 0 47.7.021 71.551-.017c4.52-.008 8.305 1.424 11.495 4.69c5.722 5.856 11.482 11.683 17.358 17.382c3.379 3.276 4.94 7.254 4.953 11.787c.066 25.7.033 51.402.03 77.104c-.004 4.658-1.921 8.59-5.083 11.786zm143.77 21.254h-96.094V180.806h25.515v119.576h70.58z"/>
  </g>
  <!-- Cell: acmdl-square -->
  <text x="338" y="46.50" class="label">acmdl-square</text>
  <g transform="translate(351.00, 15.75) scale(0.0402, 0.0352) translate(0, 0)" color="#17181C">
    <path fill="currentColor" d="M48 32C21.5 32 0 53.5 0 80v352c0 26.5 21.5 48 48 48h352c26.5 0 48-21.5 48-48V80c0-26.5-21.5-48-48-48zm175.13 64h1.073c10.817 10.936 21.622 21.882 32.49 32.768c.425.425 1.497.518 2.157.345c9.463-2.49 18.906-5.06 28.359-7.588c5.372-1.437 10.753-2.833 16.193-4.263c.305.746.561 1.219.696 1.722c3.76 14.009 7.535 28.011 11.22 42.04c.434 1.646 1.032 2.497 2.832 2.937c6.492 1.588 12.92 3.437 19.37 5.193q12.257 3.336 24.52 6.68c-.056.48-.053.747-.12.998c-3.877 14.532-7.782 29.053-11.576 43.606c-.225.865.132 2.26.744 2.904c3.95 4.15 8.04 8.166 12.098 12.213c6.78 6.76 13.57 13.511 20.814 20.72c-.992.734-1.872 1.23-2.562 1.92c-9.883 9.871-19.689 19.82-29.65 29.606c-1.654 1.624-1.853 2.96-1.272 5.074c3.938 14.321 7.735 28.684 11.605 43.133c-.426.156-.733.295-1.057.385c-14.393 3.934-28.775 7.915-43.2 11.728c-1.64.435-2.114 1.219-2.481 2.617a4671 4671 0 0 1-6.955 26.06c-1.588 5.905-3.201 11.805-4.842 17.847c-.985-.202-1.76-.321-2.514-.52c-13.908-3.668-27.825-7.296-41.699-11.09c-1.588-.433-2.441-.148-3.48.902c-6.485 6.558-13.026 13.059-19.518 19.61c-4.085 4.123-8.117 8.3-12.172 12.453h-1.074c-10.735-10.787-21.454-21.59-32.25-32.314c-.578-.573-1.915-.85-2.734-.635c-14.827 3.87-29.628 7.836-44.698 11.853c-1.896-7.128-3.786-14.228-5.674-21.332c-2.006-7.557-4.015-15.113-6.011-22.672c-.403-1.52-1.031-2.398-2.848-2.869c-13.827-3.577-27.592-7.398-41.4-11.054c-2.055-.543-2.628-1.211-2.01-3.46c3.765-13.715 7.276-27.5 11.055-41.214c.492-1.791.17-2.747-1.02-3.93c-10.087-10.044-20.08-20.185-30.228-30.168c-1.827-1.796-1.682-2.74.05-4.45c10.136-9.995 20.146-20.117 30.221-30.175c1.08-1.077 1.52-1.943 1.04-3.69c-3.768-13.72-7.242-27.523-11.036-41.238c-.66-2.384-.196-3.06 2.016-3.634c13.496-3.515 26.957-7.177 40.449-10.711c2.138-.562 3.292-1.504 3.888-3.834c3.65-14.283 7.511-28.513 11.31-42.76c.042-.161.182-.297.358-.574c9.413 2.497 18.872 4.99 28.32 7.521c5.498 1.472 10.967 3.052 16.48 4.465c.7.18 1.843-.084 2.343-.584c10.831-10.81 21.6-21.681 32.38-32.541m-22.366 111.318c-15.388.025-30.776.01-46.162.01h-2.733v92.854c.446.084.699.172.953.172c16.55.009 33.1.062 49.649-.065c1.527-.012 3.366-.804 4.513-1.842c4.243-3.834 8.306-7.87 12.33-11.937c2.04-2.062 3.278-4.598 3.28-7.604c.002-16.581.023-33.163-.02-49.744c-.008-2.924-1.015-5.492-3.195-7.605c-3.791-3.678-7.508-7.435-11.2-11.213c-2.058-2.107-4.5-3.032-7.415-3.026m49.31.17v92.733h61.996v-15.588h-45.535v-77.145zm-54.392 15.395c2.149-.028 3.547.906 5.17 2.154c4.226 3.253 5.39 7.28 5.226 12.553c-.387 12.432-.063 24.883-.205 37.324c-.017 1.486-.917 3.113-1.791 4.416c-3.118 4.639-7.498 5.932-13.049 5.565c-7.379-.49-14.817-.122-22.537-.122v-61.85h2.795c8.13 0 16.262.067 24.39-.04"/>
  </g>
  <!-- Cell: ads -->
  <text x="386" y="46.50" class="label">ads</text>
  <g transform="translate(399.00, 15.75) scale(0.0352, 0.0352) translate(0, 0)" color="#17181C">
    <path fill="currentColor" d="M456.047 162.822c54.548 87.296 28.001 202.283-59.295 256.831c-68.97 43.098-155.229 35.575-215.306-12.538l8.928-5.579c56.745 43.623 136.858 49.883 201.123 9.728c82.654-51.647 107.789-160.52 56.142-243.174c-35.432-56.703-91.871-86.885-154.225-83.227c-17.05.997-31.495 5.937-31.495 5.937s-.753-5.19-1.84-8.363c76.361-20.631 148.487 4.4 195.969 80.385zm-340.11 138.984l8.95-5.592c-8.277-41.436-2.42-81.416 17.988-117.9c0 0-5.027-5.476-7.974-7.03c-21.787 39.43-28.807 85.961-18.963 130.523zm233.648 11.924q-1.561-2.23-1.895-8.477q-.224-8.25-.223-14.052V235.44q0-21.97-15.567-29.89q-15.57-7.916-35.618-7.917q-30.804-.001-43.46 16.06q-7.953 10.262-8.96 26.208h30.67q1.128-7.026 4.521-11.151q4.746-5.576 16.165-5.576q10.174 0 15.431 2.843t5.257 10.316q-.002 6.135-6.852 9.033q-3.822 1.674-12.695 2.789l-10.898 1.337q-18.536 2.343-28.088 7.808q-17.414 10.037-17.413 32.453q-.002 17.286 10.824 26.71c7.217 6.281 16.356 9.423 27.426 9.423q13.012 0 23.334-5.909q8.637-5.019 15.257-12.156q.333 4.127.892 7.362q.557 3.233 2.008 6.914h34.573v-4.684q-3.13-1.45-4.69-3.68zm-33.794-38.921q-.337 15.948-9.115 21.971q-8.777 6.023-19.194 6.022q-6.57 0-11.155-3.624q-4.588-3.623-4.587-11.766q0-9.145 7.508-13.494q4.435-2.565 14.61-4.349l7.234-1.338q5.426-1.004 8.534-2.175a35 35 0 0 0 6.16-3.067v11.82zm-90.177-165.094C225.614 84.468 205.148 64 179.9 64s-45.712 20.468-45.712 45.715s20.467 45.715 45.714 45.715s45.713-20.468 45.713-45.715m91.82 16.855c-20.215-3.2-40.097-1.796-58.576 3.438c-5.049 19.49-17.281 37.154-35.703 48.663c-13.78 8.61-29.137 12.6-44.259 12.386c-8.83 14.654-15.04 31.22-17.88 49.158c-4.595 29.004.296 57.318 12.372 81.788l-22.993 14.368c-7.495-3.976-16.863-3.879-24.484 1.07l-87.305 56.696c-11.185 7.265-14.364 22.219-7.101 33.403c7.264 11.185 22.215 14.362 33.399 7.099l87.307-56.698c7.704-5.002 11.608-13.654 10.919-22.21l22.226-13.888c20.563 28.367 51.963 48.878 89.302 54.792c74.576 11.811 144.606-39.069 156.418-113.645S392.01 138.385 317.434 126.571zm75.335 152.262c-8.458 53.402-58.604 89.835-112.004 81.377s-89.835-58.606-81.377-112.006s58.606-89.835 112.006-81.377s89.832 58.606 81.374 112.006z"/>
  </g>
  <!-- Cell: ads-square -->
  <text x="434" y="46.50" class="label">ads-square</text>
  <g transform="translate(447.00, 15.75) scale(0.0402, 0.0352) translate(0, 0)" color="#17181C">
    <path fill="currentColor" d="M48 32C21.5 32 0 53.5 0 80v352c0 26.5 21.5 48 48 48h352c26.5 0 48-21.5 48-48V80c0-26.5-21.5-48-48-48zm112.582 64c21.04 0 38.096 17.057 38.096 38.096s-17.055 38.095-38.094 38.095s-38.096-17.056-38.096-38.095c0-21.04 17.053-38.096 38.094-38.096m107.893 9.59c47.872-.261 91.32 23.293 122.232 72.762h-.002c45.457 72.746 23.335 168.568-49.412 214.025c-57.476 35.915-129.358 29.647-179.422-10.447l7.441-4.65c47.287 36.352 114.047 41.57 167.602 8.107c68.878-43.04 89.824-133.767 46.785-202.645c-29.526-47.252-76.56-72.404-128.521-69.355c-14.208.83-26.246 4.947-26.246 4.947s-.628-4.325-1.534-6.969c13.92-3.76 27.672-5.702 41.077-5.775m-12.067 41.137c6.192-.045 12.47.415 18.787 1.416c62.147 9.844 104.545 68.202 94.701 130.35c-9.843 62.146-68.2 104.545-130.347 94.702c-31.116-4.928-57.282-22.021-74.418-45.66l-18.524 11.574c.575 7.13-2.679 14.34-9.1 18.508l-72.753 47.248c-9.32 6.053-21.78 3.405-27.834-5.916c-6.052-9.32-3.403-21.78 5.918-27.834l72.754-47.248c6.35-4.123 14.158-4.204 20.404-.89l19.16-11.975c-10.063-20.392-14.139-43.986-10.31-68.156c2.368-14.95 7.54-28.754 14.9-40.965c12.601.177 25.4-3.147 36.883-10.322c15.351-9.591 25.546-24.312 29.754-40.553a113 113 0 0 1 30.025-4.28m1.336 33.947c-39.612-.216-74.532 28.5-80.92 68.828c-7.048 44.5 23.312 86.29 67.813 93.338c44.5 7.048 86.29-23.311 93.338-67.813c7.048-44.5-23.313-86.29-67.813-93.338a82 82 0 0 0-12.418-1.015m-134.66 4.728c2.456 1.296 6.645 5.86 6.645 5.86c-17.008 30.403-21.889 63.72-14.99 98.25l-7.458 4.66c-8.203-37.135-2.353-75.911 15.803-108.77m134.484 21.957q16.707.001 29.682 6.6q12.973 6.6 12.973 24.906v46.469q-.001 4.835.185 11.71q.28 5.207 1.58 7.065h-.002q1.3 1.86 3.909 3.069v3.902h-28.811q-1.21-3.065-1.674-5.762q-.464-2.695-.742-6.134q-5.517 5.947-12.715 10.128q-8.601 4.926-19.445 4.926c-9.225 0-16.841-2.619-22.856-7.853q-9.02-7.853-9.02-22.258q0-18.68 14.513-27.045q7.959-4.554 23.406-6.506l9.082-1.115q7.394-.93 10.578-2.324q5.709-2.415 5.71-7.528q0-6.225-4.38-8.595q-4.381-2.37-12.86-2.37q-9.514 0-13.47 4.647q-2.827 3.438-3.768 9.293h-25.558q.84-13.288 7.467-21.84q10.546-13.385 36.216-13.385m16.254 54.465a29 29 0 0 1-5.135 2.555q-2.59.977-7.11 1.814l-6.03 1.114q-8.477 1.487-12.174 3.625q-6.256 3.624-6.256 11.246q0 6.785 3.822 9.804t9.295 3.02q8.682.002 15.996-5.018q7.316-5.02 7.596-18.31h-.004z"/>
  </g>
  <!-- Cell: africarxiv -->
  <text x="2" y="96.00" class="label">africarxiv</text>
  <g transform="translate(15.00, 65.25) scale(0.0402, 0.0352) translate(0, 0)" color="#17181C">
    <path fill="currentColor" d="M166.837 8.01c-9.87-.173-19.5 1.902-28.958 7.65l.009-.026c-4.663 2.837-9.57 6.947-14.223 7.941C108.44 26.837 95.6 35.512 81.107 40.12c-6.894 2.187-10.21 6.407-10.003 13.554c-2.828 5.123-7.292 8.33-12.479 10.78c-4.595 2.162-8.973 4.632-10.341 10.085l-.067.053C42.813 80.89 37.13 86.97 31.619 96.385l168.968-55.451c-7.31-6.949-14.9-12.83-6.452-23.493c-7.577.515-12.934 4.91-19.317 3.923c3.622-5.39 11.373-4.249 15.514-9.544c-7.997-2.182-15.819-3.676-23.495-3.81m90.675 33.646c-7.12.442-13.97 1.004-19.879 6.118c-7.02 6.036-14.91 7.751-22.87 1.038c-6.008-5.07-11.863-4.11-18.676-.812c-15.732 7.635-31.869 14.457-47.826 21.604q-55.533 24.993-111.023 50.03c-11.828 3.868-12.352 4.943-9.632 16.725c1.988 8.602 5.575 17.657-4.518 24.072a6.24 6.24 0 0 0-3.667 5.77q-.014.008-.029.013c-2.62 9.154-.423 18.053 1.24 27.044c1.057 5.692 3.704 5.475 8.077 3.397c9.894-4.716 19.933-9.135 29.962-13.553q47.565-20.91 95.147-41.79a10 10 0 0 0 2.647-.242c-1.03.544-1.982 1.19-2.502 2.402l-32.529 19.065l-48.983 24.955c-14.033 2.422-26.204 10.003-39.505 14.304c-8.232 2.656-6.596 5.522-.985 9.217c5.25 6.325 12.985 7.888 20.24 10.346l.03-.017c5.622 2.636 11.21 5.36 16.895 7.868c5.286 2.35 10.2 3.162 13.417-3.542c1.808-3.804 5.097-4.356 9.036-2.548c6.138 2.86 12.636 2.945 19.206 1.81l-.006.006q.022 0 .04.002l.033.027l.046-.021c2.49.217 4.949.249 7.11-1.334c2.973 0 5.972-.235 8.909.063c13.987 1.428 28.552-3.326 42.024 4.12c2.558 1.409 4.943-1.382 7.229-2.547q36.405-18.632 72.737-37.437q48.251-24.865 96.467-49.723c2.756-1.427 9.035-2.05 3.56-7.625v-.046c-3.754-7.561-7.118-15.266-8.45-23.69l.026-.03c-.425-6.279-2.566-12.034-5.277-17.654c-2.35-4.816-4.996-6.155-10.481-3.715c-12.695 5.656-25.717 10.817-38.728 15.47s-25.093 11.963-39.08 13.86l-.042-.005l.007-.004c-.127-2.142 1.806-1.898 2.972-2.548L318.9 73.67c.253-6.443-2.06-12.235-4.518-17.982l-.015.007l.003-.007c-3.307-8.376-9.107-10.826-17.492-7.474a52 52 0 0 1-17.892 3.923v-.019l-.044.016l-4.78-.386c-6.723-1.437-10.951-6.976-16.653-10.093zm101.581 109.007c-1.563.094-3.33.75-5.414 1.844c-25.445 13.346-51.116 26.256-76.714 39.295c-30.08 15.36-60.206 30.559-90.177 46.082c-1.888.967-7.19.76-4.66 5.485c3.304 6.15 2.303 12.651 2.473 19.099q-.005.001-.009.004v.026q-.107 4.74-.197 9.47a33.4 33.4 0 0 0 5.421 14.124l.032.007l-.023.01l3.659 4.871l8.575 10.734c1.464 9.984 6.55 10.092 15.135 7.156c31.119-10.662 62.546-20.457 93.855-30.577l1.807 1.862l.025-.004l-34.125 16.15c-5.684 1.518-10.843 4.175-15.949 7.057a4.09 4.09 0 0 0-3.866 1.807a328 328 0 0 0-39.532 17.764a.904.904 0 0 0-1.184.397a13.05 13.05 0 0 0-7.382 3.334c-4.744 1.066-10.076 2.612-9.823 8.268c.632 14.14-4.274 26.997-7.924 40.188l-.009.003a11.015 11.015 0 0 0 1.112 12.56c2.783 3.334 6.478-.597 9.532-1.708a32126 32126 0 0 0 138.935-50.736c6.117-2.241 13.967-3.235 17.681-7.617c3.994-4.726-1.41-12.343-.994-18.822c.522-2.78 1.053-5.56 1.575-8.35q.002-.005.008-.008c2.783-8.556 9.596-14.855 13.075-23.023l15.867-22.046c3.37-7.228 11.637-9.506 16.028-15.713l-.205.07l.16-.088c9.442-5.792 13.48-15.605 20.13-25.815l-42.936 13.191c-2.432.16-4.826.517-7.199.976a11.1 11.1 0 0 0 3.251-2.846c2.639-1.265 5.304-2.502 7.924-3.812c13.825-6.903 28.996-10.925 42.007-19.563a1.58 1.58 0 0 1-.903-.515c.298.162.596.325.903.515c1.256-3.768.786-7.6.073-11.332l.026.055c-1.012-5.286-3.334-7.997-9.035-4.184a28.5 28.5 0 0 1-12.135 4.98l-.034.021a.1.1 0 0 1 .008-.04c-7.924-.597-16.102-.442-21.541-7.878h.026c-2.548-3.497-5.258-.977-7.842.053a46052 46052 0 0 0-59.899 24.117c-1.498.139-2.93.48-4.333.923c.857-.83 1.609-1.764 2.12-2.938q21.658-11.231 43.262-22.535c6.28-3.289 16.545-5.656 17.738-10.3c1.554-6.019-8.196-10.962-11.747-17.287c-1.987-3.518-4.025-4.918-6.63-4.761zm2.614 185.677c-.869-.058-1.986.193-3.42.783a35620 35620 0 0 1-151.43 62.094c-3.858 1.609-4.69 3.018-2.71 7.03c4.824 9.757 9.26 19.722 11.746 30.41l-.018.003h.018v.012c.298 2.936 1.012 5.91.822 8.82c-.452 6.732.768 8.8 8.087 5.547c33.486-14.91 67.334-28.987 100.811-43.905c14.25-6.352 23.954-17.637 29.908-32.094l-.034.003c.008-.003.011-.007.019-.015c8.638-9.885 9.985-21.703 9.036-34.118c-.218-2.82-.922-4.445-2.833-4.571zm55.596 18.477c-4.025.03-6.658 4.19-8.524 7.913c-1.668 3.317-2.876 6.868-4.29 10.32l-.012.011c-2.475 5.105-4.455 9.667-12.307 8.42c-5.521-.877-13.093 3.506-12.56 8.737c1.102 10.924-6.207 20.277-3.966 30.939c.862.791 1.701 1.09 2.527 1.112c-.997.604-1.928 1.327-2.717 2.304c-1.392 5.304-2.91 10.59-1.437 16.146l.027-.003c4.302 9.476 7.533 10.682 16.829 8.028c11.26-3.23 11.214-12.821 13.077-21.477c1.706-4.434 2.96-8.914 2.446-14.196l-16.265 4.933l-.01.045c-1.279.48-2.74.116-4.023.648c.83-.661 1.567-1.436 2.125-2.428c2.765-1.618 5.393-3.577 8.33-4.806c20.357-8.466 23.656-26.312 25.183-45.178c.09-4.04 2.891-9.678-2.62-11.214a6.5 6.5 0 0 0-1.813-.252zM325.55 413.99c-34.255 17.683-66.981 34.942-100.106 51.396c-8.512 4.238-10.012 8.846-5.63 16.482c1.86 6.9 6.7 11.243 12.641 14.658v.008l.006-.002l.004.002l.018.003c2.203 2.957 5.308 4.11 8.81 4.488c12.406 7.319 27.215.713 34.037-15.19c8.675-4.915 17.295-10.029 26.042-14.854c5.617-3.098 9.575-6.928 8.243-13.979l.007-.011c1.672-4.635 7.654-5.792 8.792-10.843c-1.02-10.906 8.176-19.879 7.146-32.14z"/>
  </g>
  <!-- Cell: africarxiv-square -->
  <text x="50" y="96.00" class="label">africarxiv-squ…</text>
  <g transform="translate(63.00, 65.25) scale(0.0402, 0.0352) translate(0, 0)" color="#17181C">
    <path fill="currentColor" d="M48 32C21.5 32 0 53.5 0 80v352c0 26.5 21.5 48 48 48h352c26.5 0 48-21.5 48-48V80c0-26.5-21.5-48-48-48zm139.121 64.006c4.952.087 9.999 1.051 15.158 2.459c-2.671 3.416-7.673 2.678-10.01 6.156c4.119.637 7.575-2.197 12.463-2.53c-5.45 6.88-.554 10.674 4.163 15.157L99.883 153.023c3.556-6.074 7.223-9.997 10.709-14.06l.043-.035c.883-3.519 3.707-5.11 6.672-6.506c3.346-1.58 6.226-3.65 8.05-6.955c-.134-4.611 2.006-7.334 6.454-8.744c9.35-2.973 17.634-8.57 27.457-10.674c3.002-.641 6.167-3.293 9.175-5.123l-.006.015c6.103-3.708 12.317-5.047 18.684-4.935m58.498 21.707h.002c3.678 2.011 6.406 5.585 10.742 6.512l3.084.25l.028-.012v.014a33.6 33.6 0 0 0 11.543-2.532c5.41-2.162 9.153-.583 11.287 4.82l-.002.006l.008-.005c1.585 3.707 3.079 7.445 2.916 11.601l-44.53 24.793c-.752.42-2 .263-1.918 1.645l-.004.002l.028.004c9.024-1.225 16.818-5.94 25.213-8.942s16.796-6.333 24.986-9.982c3.538-1.574 5.246-.709 6.762 2.398c1.749 3.626 3.13 7.337 3.404 11.389l-.018.02c.86 5.435 3.03 10.405 5.452 15.283v.029c3.532 3.597-.517 3.999-2.295 4.92a445703 445703 0 0 1-62.239 32.08a11630 11630 0 0 1-46.925 24.152c-1.475.752-3.015 2.552-4.664 1.643c-8.692-4.804-18.09-1.735-27.114-2.656c-1.894-.193-3.83-.041-5.748-.041c-1.394 1.02-2.98.999-4.586.859l-.03.014l-.02-.016l-.026-.002l.004-.004c-4.24.732-8.433.678-12.393-1.168c-2.541-1.166-4.662-.81-5.828 1.645c-2.075 4.325-5.246 3.8-8.656 2.285c-3.668-1.619-7.273-3.376-10.9-5.076q-.01.003-.02.01c-4.681-1.586-9.672-2.594-13.058-6.674c-3.62-2.385-4.674-4.234.636-5.948c8.581-2.775 16.433-7.666 25.487-9.228l31.601-16.1l20.986-12.3c.336-.782.95-1.198 1.616-1.55a6.5 6.5 0 0 1-1.71.157q-30.698 13.472-61.384 26.96c-6.47 2.851-12.947 5.702-19.33 8.745c-2.822 1.34-4.529 1.481-5.211-2.192c-1.073-5.8-2.49-11.542-.799-17.447l.018-.008a4.03 4.03 0 0 1 2.365-3.724c6.511-4.14 4.198-9.98 2.916-15.53c-1.755-7.601-1.418-8.295 6.213-10.79a80081 80081 0 0 1 71.629-32.278c10.295-4.611 20.706-9.011 30.855-13.937c4.396-2.128 8.172-2.747 12.049.523c5.136 4.331 10.224 3.224 14.754-.67c3.812-3.299 8.231-3.661 12.824-3.947m65.537 70.328h.002c1.68-.101 2.995.802 4.278 3.072c2.29 4.08 8.58 7.27 7.578 11.153c-.77 2.996-7.392 4.522-11.444 6.644a8608 8608 0 0 1-27.912 14.54c-.33.757-.814 1.36-1.367 1.896c.904-.286 1.829-.507 2.795-.596a29703 29703 0 0 1 38.644-15.56c1.668-.665 3.417-2.29 5.061-.034h-.018c3.51 4.798 8.784 4.698 13.897 5.082q-.004.014-.004.026l.022-.014a18.4 18.4 0 0 0 7.83-3.213c3.678-2.46 5.175-.71 5.828 2.7l-.018-.036c.46 2.408.764 4.88-.047 7.31c-8.394 5.574-18.18 8.168-27.1 12.622c-1.69.845-3.41 1.645-5.113 2.46a7.2 7.2 0 0 1-2.097 1.837c1.53-.297 3.075-.527 4.644-.63l27.701-8.51c-4.29 6.586-6.896 12.917-12.988 16.653l-.101.059l.13-.047c-2.833 4.005-8.165 5.475-10.34 10.139l-10.236 14.222c-2.244 5.27-6.64 9.333-8.435 14.854l-.006.006c-.337 1.8-.679 3.592-1.016 5.387c-.268 4.18 3.217 9.093.64 12.142c-2.395 2.827-7.459 3.468-11.405 4.914a20727 20727 0 0 1-89.637 32.735c-1.97.717-4.353 3.252-6.149 1.101a7.11 7.11 0 0 1-.716-8.103l.006-.002c2.354-8.51 5.519-16.806 5.11-25.928c-.162-3.65 3.278-4.646 6.339-5.334a8.4 8.4 0 0 1 4.761-2.15a.583.583 0 0 1 .766-.256a211 211 0 0 1 25.504-11.461a2.64 2.64 0 0 1 2.494-1.166c3.294-1.86 6.622-3.574 10.29-4.553l22.015-10.42l-.016.004l-1.166-1.201c-20.199 6.529-40.474 12.848-60.55 19.726c-5.539 1.895-8.822 1.825-9.766-4.617l-5.531-6.926l-2.362-3.142l.016-.006l-.022-.006a21.6 21.6 0 0 1-3.498-9.111q.059-3.052.13-6.11v-.017q.002-.003.005-.004c-.11-4.16.537-8.353-1.596-12.32c-1.632-3.05 1.788-2.916 3.006-3.54c19.337-10.015 38.773-19.82 58.18-29.73c16.515-8.412 33.076-16.741 49.492-25.352c1.345-.706 2.484-1.128 3.492-1.189m45.125 32.97a12 12 0 0 0-.582-.331a1.02 1.02 0 0 0 .582.332m-43.437 86.821h.002c1.232.081 1.686 1.13 1.826 2.95c.612 8.009-.257 15.634-5.83 22.011q-.006.007-.012.01l.022-.004c-3.842 9.327-10.102 16.609-19.295 20.707c-21.599 9.624-43.435 18.707-65.04 28.326c-4.721 2.099-5.508.763-5.216-3.58c.122-1.877-.34-3.795-.531-5.69v-.007h-.012l.012-.002c-1.604-6.896-4.466-13.324-7.579-19.62c-1.276-2.588-.74-3.497 1.748-4.535a22981 22981 0 0 0 97.698-40.06c.925-.38 1.646-.543 2.207-.506m35.867 11.922h.002a4.2 4.2 0 0 1 1.168.164c3.556.991 1.75 4.629 1.691 7.234c-.985 12.172-3.114 23.685-16.248 29.147c-1.894.793-3.589 2.058-5.373 3.101c-.36.64-.836 1.14-1.37 1.567c.827-.344 1.77-.109 2.595-.418l.006-.03l10.494-3.183c.332 3.408-.478 6.3-1.578 9.16c-1.202 5.584-1.173 11.772-8.438 13.856c-5.997 1.711-8.082.933-10.857-5.18l-.018.002c-.95-3.585.03-6.994.928-10.416c.51-.63 1.108-1.097 1.752-1.487c-.533-.014-1.073-.208-1.63-.718c-1.445-6.88 3.27-12.911 2.56-19.96c-.344-3.375 4.54-6.203 8.101-5.638c5.066.805 6.344-2.138 7.942-5.432l.007-.005c.913-2.228 1.692-4.52 2.768-6.66c1.204-2.403 2.901-5.084 5.498-5.104m-59.195 38.176l.007.011c.665 7.911-5.268 13.699-4.609 20.735c-.734 3.258-4.595 4.005-5.674 6.996l-.004.008c.86 4.549-1.694 7.019-5.318 9.017c-5.643 3.113-11.204 6.413-16.8 9.584c-4.402 10.26-13.956 14.521-21.96 9.8c-2.26-.245-4.262-.988-5.683-2.895l-.012-.002l-.004-.002l-.004.002v-.006c-3.833-2.203-6.956-5.006-8.156-9.457c-2.827-4.926-1.859-7.9 3.633-10.633c21.37-10.616 42.484-21.75 64.584-33.158"/>
  </g>
  <!-- Cell: archive -->
  <text x="98" y="96.00" class="label">archive</text>
  <g transform="translate(111.00, 65.25) scale(0.0402, 0.0352) translate(0, 0)" color="#17181C">
    <path fill="currentColor" d="M393.674 430.14V448H54.326l.004-17.86zm-13.395-26.791v22.325H67.721V403.35zM100.452 162.233l3.726 1.883l1.864 30.11l1.865 48.928v47.055l-1.865 58.656l-.31 39.515l-5.28 1.573H81.816l-5.59-1.573l-2.172-39.515l-1.868-58.343v-47.051l1.868-49.244l1.704-30.273l3.887-1.721zm267.909 0l3.73 1.883l1.861 30.11l1.862 48.928v47.055l-1.862 58.656l-.306 39.515l-5.285 1.573h-18.636l-5.592-1.573l-2.179-39.515l-1.861-58.343v-47.051l1.861-49.244l1.712-30.273l3.884-1.721zm-187.538 0l3.726 1.883l1.865 30.11l1.865 48.928v47.055l-1.865 58.656l-.307 39.515l-5.284 1.573h-18.638l-5.594-1.573l-2.172-39.515l-1.86-58.343v-47.051l1.86-49.244l1.712-30.273l3.88-1.721zm102.698 0l3.726 1.883l1.865 30.11l1.865 48.928v47.055l-1.865 58.656l-.307 39.515l-5.284 1.573h-18.638l-5.59-1.573l-2.176-39.515l-1.861-58.343v-47.051l1.861-49.244l1.712-30.273l3.883-1.721zm96.758-40.186v31.255H67.721v-31.255ZM220.785 64l163.96 37.546l-6.574 11.57H64.15l-9.823-9.383z"/>
  </g>
  <!-- Cell: archive-square -->
  <text x="146" y="96.00" class="label">archive-square</text>
  <g transform="translate(159.00, 65.25) scale(0.0402, 0.0352) translate(0, 0)" color="#17181C">
    <path fill="currentColor" d="M48 32C21.5 32 0 53.5 0 80v352c0 26.5 21.5 48 48 48h352c26.5 0 48-21.5 48-48V80c0-26.5-21.5-48-48-48zm173.32 64l136.633 31.29l-5.476 9.64H90.79l-8.186-7.819zM93.768 144.373h260.464v26.045H93.768zm9.935 33.488h17.34l3.105 1.569l1.553 25.091l1.555 40.774v39.213l-1.555 48.879l-.258 32.93l-4.4 1.31h-15.53l-4.658-1.31l-1.81-32.93l-1.557-48.62V245.56l1.557-41.038l1.42-25.226zm66.973 0h17.344l3.105 1.569l1.553 25.091l1.554 40.774v39.213l-1.554 48.879l-.254 32.93l-4.404 1.31h-15.532l-4.662-1.31l-1.81-32.93l-1.551-48.62V245.56l1.55-41.038l1.428-25.226zm85.584 0h17.342l3.103 1.569l1.555 25.091l1.554 40.774v39.213l-1.554 48.879l-.256 32.93l-4.402 1.31h-15.534l-4.658-1.31l-1.812-32.93l-1.551-48.62V245.56l1.55-41.038l1.426-25.226zm70.697 0h17.344l3.11 1.569l1.55 25.091l1.55 40.774v39.213l-1.55 48.879l-.256 32.93l-4.404 1.31h-15.53l-4.66-1.31l-1.816-32.93l-1.55-48.62V245.56l1.55-41.038l1.428-25.226zm-233.19 200.93h260.465v18.604H93.768zm-11.16 22.326h282.788V416H82.605z"/>
  </g>
  <!-- Cell: arxiv -->
  <text x="194" y="96.00" class="label">arxiv</text>
  <g transform="translate(207.00, 65.25) scale(0.0402, 0.0352) translate(0, 0)" color="#17181C">
    <path fill="currentColor" d="M62.258 8.006a22.22 22.22 0 0 0-20.929 13.448c-3.404 8.169-.96 13.898 6.506 24.59c10.935 16.09 122.178 149.673 122.178 149.673l-24.619 23.038c-20.74 20.735-21.632 48.566-2.34 67.852l28.663 27.3l-79.976 98.235c-6.21 6.614-10.053 18.221-6.585 26.552a22.7 22.7 0 0 0 21.21 14.06a20.23 20.23 0 0 0 15.249-7.536l95.122-88.437L363.33 496.39a27.14 27.14 0 0 0 18.418 7.61a25.3 25.3 0 0 0 7.335-1.108a27.66 27.66 0 0 0 18.4-18.99a25.6 25.6 0 0 0-6.481-23.69L272.219 305.195l23.062-21.443c17.198-15.504 17.29-42.455.197-58.076l-25.257-24.228L357.417 98.46l.115-.133l.103-.14c7.793-10.123 11.52-17.92 7.502-27.806a36.17 36.17 0 0 0-23.647-18.37a24 24 0 0 0-3.166-.212l-.006.018a28.52 28.52 0 0 0-18.252 8.123l-.203.166l-.19.173L218.6 151.925L79.261 18.253S70.995 8.213 62.258 8.006m276.06 51.214q1.115.004 2.22.148a29.3 29.3 0 0 1 17.719 13.81c2.246 5.523 1.554 10.01-6.506 20.484L264.861 196.3l-40.882-39.22l100.68-91.304a21.77 21.77 0 0 1 13.66-6.536zM175.077 201.127L395.19 464.872c4.32 5.408 7.02 10.818 5.18 16.914a20.25 20.25 0 0 1-13.463 14.037a17.6 17.6 0 0 1-5.17.784a19.8 19.8 0 0 1-13.293-5.56l-220.15-209.694c-17.317-17.316-14.698-40.33 2.158-57.186z"/>
  </g>
  <!-- Cell: arxiv-square -->
  <text x="242" y="96.00" class="label">arxiv-square</text>
  <g transform="translate(255.00, 65.25) scale(0.0402, 0.0352) translate(0, 0)" color="#17181C">
    <path fill="currentColor" d="M48 32C21.5 32 0 53.5 0 80v352c0 26.5 21.5 48 48 48h352c26.5 0 48-21.5 48-48V80c0-26.5-21.5-48-48-48zm71.65 64.004c5.638.134 10.971 6.611 10.971 6.611l89.897 86.24l65.207-59.126l.123-.112l.13-.107a18.4 18.4 0 0 1 11.776-5.24l.004-.012q1.026 0 2.043.137a23.33 23.33 0 0 1 15.256 11.851c2.592 6.378.187 11.409-4.84 17.94l-.067.09l-.074.085l-56.256 66.444l16.295 15.63c11.028 10.078 10.97 27.467-.127 37.47l-14.879 13.833l83.086 100.012a16.52 16.52 0 0 1 4.182 15.283a17.84 17.84 0 0 1-11.871 12.252a16.3 16.3 0 0 1-4.733.715a17.5 17.5 0 0 1-11.882-4.91l-94.577-90.07l-61.369 57.056a13.05 13.05 0 0 1-9.838 4.861a14.64 14.64 0 0 1-13.683-9.07c-2.238-5.375.242-12.863 4.248-17.13l51.598-63.378l-18.493-17.613c-12.446-12.443-11.871-30.397 1.51-43.775l15.883-14.864s-71.77-86.182-78.824-96.562c-4.817-6.898-6.394-10.595-4.198-15.865a14.33 14.33 0 0 1 13.502-8.676m178.104 33.04v.015a14.04 14.04 0 0 0-8.813 4.216l-64.955 58.907l26.375 25.302l56.059-66.218c5.2-6.758 5.646-9.653 4.197-13.215a18.9 18.9 0 0 0-11.431-8.91a11 11 0 0 0-1.432-.096m-105.318 91.554l-15.887 14.865c-10.876 10.875-12.565 25.722-1.393 36.894L317.19 407.643a12.77 12.77 0 0 0 8.577 3.587a11.4 11.4 0 0 0 3.336-.505a13.06 13.06 0 0 0 8.685-9.057c1.188-3.933-.555-7.423-3.342-10.912z"/>
  </g>
  <!-- Cell: biorxiv -->
  <text x="290" y="96.00" class="label">biorxiv</text>
  <g transform="translate(303.00, 65.25) scale(0.0352, 0.0352) translate(0, 0)" color="#17181C">
    <path fill="currentColor" d="M396.317 272.785c7.388-9.691 14.778-17.97 20.564-27.25c15.465-24.803 39.678-64.238 45.3-75.09c2.87-5.807 7.053-9.925 9.695-10.18c2.645-.254 6.02-.346 8.877 1.438c2.857 1.787 5.052 6.099 3.052 14.545c-2.001 8.446-3.15 11.519-5.92 18.026c-16.22 35.495-40.017 66.068-65.032 95.639c-4.719 5.579-4.927 9.664-2.283 15.977c11.289 26.96 21.872 54.211 33.08 81.205c3.727 8.973 8.332 17.61 12.933 26.186c4.65 8.673 7.974 13.257 22.098 13.067c5.82-.02 16.882-1.572 17.818 6.852c1.024 9.207-10.156 10.579-16.82 11.938c-7.521 1.533-11.308 2.119-19.002 2.137c-17.738.038-38.699-6.75-47.382-22.507c-8.889-16.13-13.686-27.892-21.841-49.924c-5.353-14.464-11.365-28.7-17.66-44.791c-3.544 3.804-6.88 6.457-9.043 9.857c-26.847 36.397-42.436 65.84-54.46 86.511c-9.48 16.296-10.274 23.496-21.533 21.144c-10.266-4.196-7.303-17.972-6.495-21.462c4.763-20.569 19.837-40.775 31.583-58.536c13.129-19.853 29.268-37.697 43.654-56.748c2.13-2.82 3.593-8.191 2.382-11.172c-12.898-31.736-26.31-63.268-39.771-94.775c-7.322-15.62-12.301-25.58-41.097-24.497c-4.763-.433-7.652-1.688-7.574-7.187c0-6.67 4.503-9.037 7.803-10.016c32.536-9.655 65.227-6.812 82.16 29.56c10.49 22.527 19.777 45.611 29.629 68.437c1.449 3.346 3.019 6.638 5.286 11.615zM15.435 356.443c7.568-5.679 12.84-11.083 15.82-16.224c2.973-5.134 4.462-11.356 4.462-18.657V101.316q-.001-9.325-3.82-18.253a197 197 0 0 0-5.099-7.706Q24.252 71.708 17.464 64h100.59c32.715 0 58.338 6.63 76.864 19.875c18.517 13.253 27.783 31.638 27.783 55.164c0 18.391-6.225 33.805-18.658 46.239c-7.035 7.034-13.93 12.168-20.687 15.412c-6.762 3.245-17.44 6.63-32.043 10.14l27.174 36.098q8.519 11.36 23.12 27.988q16.22 18.254 34.882 37.316q16.626 17.445 26.162 25.35c6.35 5.274 16.022 11.561 29.002 18.86h-65.707q-16.23.002-34.884-18.658q-21.904-22.303-44.616-54.757q-15.417-20.684-27.176-38.127c-6.223-9.19-15.148-23.12-26.771-41.779q76.254-10.544 76.254-59.219c0-30.281-21.497-45.427-64.492-45.427h-16.22v222.219q0 11.786 4.258 19.097q4.26 7.32 16.428 16.655H15.436Z"/>
  </g>
  <!-- Cell: biorxiv-square -->
  <text x="338" y="96.00" class="label">biorxiv-square</text>
  <g transform="translate(351.00, 65.25) scale(0.0402, 0.0352) translate(0, 0)" color="#17181C">
    <path fill="currentColor" d="M48 32C21.5 32 0 53.5 0 80v352c0 26.5 21.5 48 48 48h352c26.5 0 48-21.5 48-48V80c0-26.5-21.5-48-48-48zM25.22 96h83.825c27.262 0 48.615 5.525 64.053 16.563c15.43 11.044 23.152 26.366 23.152 45.97c0 15.326-5.186 28.17-15.547 38.531c-5.862 5.863-11.61 10.141-17.24 12.844q-8.451 4.06-26.703 8.45l22.646 30.081q7.098 9.467 19.266 23.325q13.516 15.21 29.068 31.095q13.856 14.537 21.803 21.125q7.94 6.594 24.168 15.717h-54.756q-13.525.001-29.07-15.549q-18.253-18.584-37.18-45.629q-12.847-17.236-22.646-31.773c-5.186-7.658-12.623-19.268-22.309-34.816q63.544-8.787 63.543-49.348c0-25.234-17.913-37.857-53.742-37.857H84.033v185.183q0 9.823 3.549 15.914q3.55 6.1 13.691 13.88H23.53v-.003c6.307-4.733 10.701-9.236 13.184-13.52c2.478-4.278 3.719-9.464 3.719-15.548v-183.54q-.002-7.769-3.186-15.208a164 164 0 0 0-4.248-6.422q-2.121-3.041-7.777-9.465m243.202 78.688c17.806.12 33.712 7.751 43.414 28.59c8.74 18.772 16.48 38.009 24.69 57.03c1.207 2.789 2.516 5.53 4.406 9.678c6.156-8.075 12.315-14.974 17.136-22.707c12.887-20.668 33.064-53.531 37.75-62.574c2.39-4.84 5.877-8.272 8.078-8.484c2.204-.212 5.018-.288 7.399 1.199c2.38 1.489 4.21 5.08 2.543 12.12c-1.667 7.037-2.625 9.6-4.934 15.023c-13.517 29.579-33.347 55.054-54.193 79.697c-3.933 4.65-4.106 8.054-1.902 13.314c9.407 22.466 18.225 45.177 27.566 67.672c3.106 7.477 6.943 14.675 10.777 21.822c3.876 7.227 6.645 11.048 18.414 10.889c4.85-.016 14.07-1.31 14.85 5.709c.854 7.673-8.463 8.817-14.016 9.95c-6.268 1.277-9.424 1.765-15.836 1.78c-14.78.032-32.248-5.625-39.484-18.755c-7.407-13.442-11.405-23.244-18.201-41.604c-4.46-12.053-9.47-23.916-14.717-37.326c-2.954 3.17-5.734 5.38-7.537 8.213c-22.372 30.331-35.362 54.868-45.383 72.094c-7.9 13.58-8.561 19.578-17.943 17.619c-8.555-3.497-6.086-14.977-5.412-17.885c3.969-17.14 16.53-33.978 26.318-48.78c10.941-16.543 24.39-31.413 36.379-47.288c1.774-2.351 2.993-6.827 1.984-9.311c-10.748-26.447-21.924-52.725-33.142-78.98c-6.101-13.017-10.252-21.317-34.248-20.414c-3.97-.361-6.376-1.406-6.31-5.989c0-5.558 3.751-7.532 6.501-8.347c8.473-2.515 16.96-4.01 25.053-3.956"/>
  </g>
  <!-- Cell: ceur -->
  <text x="386" y="96.00" class="label">ceur</text>
  <g transform="translate(399.00, 65.25) scale(0.0352, 0.0352) translate(0, 0)" color="#17181C">
    <path fill="currentColor" d="M128 384V128h64V64H64v384h192v-64ZM384 64H256v64h128v256h-64v64h128V64Z"/>
  </g>
  <!-- Cell: ceur-square -->
  <text x="434" y="96.00" class="label">ceur-square</text>
  <g transform="translate(447.00, 65.25) scale(0.0402, 0.0352) translate(0, 0)" color="#17181C">
    <path fill="currentColor" d="M48 32C21.5 32 0 53.5 0 80v352c0 26.5 21.5 48 48 48h352c26.5 0 48-21.5 48-48V80c0-26.5-21.5-48-48-48zm16 64h106.668v53.334h-53.334v213.332H224V416H64zm160 0h160v320H277.332v-53.334h53.334V149.334H224z"/>
  </g>
  <!-- Cell: ciencia-vitae -->
  <text x="2" y="145.50" class="label">ciencia-vitae</text>
  <g transform="translate(15.00, 114.75) scale(0.0352, 0.0352) translate(0, 0)" color="#17181C">
    <path fill="currentColor" d="M129.058 134.923L8 256l121.058 121.077l38.084-39.056L86.112 256l82.002-82.021Zm252.892 9.764a36.127 36.127 0 0 0-36.12 36.119a36.127 36.127 0 0 0 36.12 36.138a36.127 36.127 0 0 0 36.138-36.138a36.127 36.127 0 0 0-36.138-36.12m-81.03 62.493l-38.083 39.056l120.085 121.077L504 246.236l-39.056-39.056l-82.022 82.021Zm-106.432 11.71a36.127 36.127 0 0 0-36.138 36.137a36.127 36.127 0 0 0 36.138 36.12a36.127 36.127 0 0 0 36.12-36.12a36.127 36.127 0 0 0-36.12-36.138"/>
  </g>
  <!-- Cell: ciencia-vitae-square -->
  <text x="50" y="145.50" class="label">ciencia-vitae-…</text>
  <g transform="translate(63.00, 114.75) scale(0.0402, 0.0352) translate(0, 0)" color="#17181C">
    <path fill="currentColor" d="M48 32C21.5 32 0 53.5 0 80v352c0 26.5 21.5 48 48 48h352c26.5 0 48-21.5 48-48V80c0-26.5-21.5-48-48-48zm94.102 145.885l25.197 25.197L114.395 256l52.277 52.918l-24.57 25.197L64 256zm163.156 6.3a23.31 23.31 0 0 1 23.314 23.303a23.31 23.31 0 0 1-23.314 23.315a23.31 23.31 0 0 1-23.303-23.315a23.31 23.31 0 0 1 23.303-23.302m-52.278 40.319l52.905 52.916l52.918-52.916L384 249.7l-78.115 78.113L228.41 249.7zm-68.666 7.553a23.31 23.31 0 0 1 23.303 23.316a23.31 23.31 0 0 1-23.303 23.303A23.31 23.31 0 0 1 161 255.373a23.31 23.31 0 0 1 23.314-23.316"/>
  </g>
  <!-- Cell: clarivate -->
  <text x="98" y="145.50" class="label">clarivate</text>
  <g transform="translate(111.00, 114.75) scale(0.0352, 0.0352) translate(0, 0)" color="#17181C">
    <path fill="currentColor" d="M235.356 8c-23.395 34.2-42.165 71.945-55.671 112.052c95.807 17.871 182.582 72.861 244.512 155c24.909-32.93 45.345-69.623 60.709-108.952C417.089 88.47 330.554 33.645 235.356 8m188.841 267.052c-61.93 70.41-148.71 117.578-244.512 132.912c13.582 34.382 32.388 66.745 55.864 96.036c95.105-22.017 181.595-69.006 249.357-135.496c-15.367-33.721-35.794-65.217-60.709-93.452M98.633 122.506c-16.252.199-32.456 1.151-48.632 2.97c-30.518 97.686-30.544 201.453-.066 299.15a486 486 0 0 0 129.748-2.84c-32.985-81.874-37.502-171.274-12.981-255.686a409 409 0 0 1 12.916-37.781c-26.776-4.205-53.9-6.126-80.987-5.813z"/>
  </g>
  <!-- Cell: clarivate-square -->
  <text x="146" y="145.50" class="label">clarivate-squa…</text>
  <g transform="translate(159.00, 114.75) scale(0.0402, 0.0352) translate(0, 0)" color="#17181C">
    <path fill="currentColor" d="M48 32C21.5 32 0 53.5 0 80v352c0 26.5 21.5 48 48 48h352c26.5 0 48-21.5 48-48V80c0-26.5-21.5-48-48-48zm162.682 64c61.418 16.545 117.247 51.916 161 102c-9.912 25.374-23.098 49.046-39.168 70.291c16.073 18.216 29.254 38.537 39.168 60.293c-43.717 42.897-99.517 73.212-160.875 87.416c-15.147-18.897-27.28-39.778-36.043-61.959c61.808-9.893 117.795-40.325 157.75-85.75c-39.955-52.993-95.939-88.47-157.75-100c8.713-25.876 20.824-50.226 35.918-72.291m-88.211 73.875h.002a313.6 313.6 0 0 1 52.248 3.75A264 264 0 0 0 166.389 198c-15.82 54.459-12.906 112.137 8.375 164.959a313.6 313.6 0 0 1-83.71 1.832c-19.663-63.03-19.646-129.976.044-193c10.435-1.173 20.888-1.788 31.373-1.916"/>
  </g>
  <!-- Cell: closed-access -->
  <text x="194" y="145.50" class="label">closed-access</text>
  <g transform="translate(207.00, 114.75) scale(0.0703, 0.0352) translate(0, 0)" color="#17181C">
    <path fill="currentColor" d="M128.235 64c-56.61 0-102.673 46.06-102.673 102.673v95.804C13.768 281.153 6.93 303.257 6.93 326.932C6.93 393.682 61.248 448 128 448c66.755 0 121.068-54.317 121.068-121.068c0-23.36-6.657-45.191-18.163-63.71v-96.55C230.906 110.06 184.846 64 128.235 64m0 41.117c33.937 0 61.552 27.613 61.552 61.556v56.182c-18.1-10.786-39.23-16.993-61.785-16.993c-22.363 0-43.325 6.103-61.322 16.719v-55.908c0-33.943 27.617-61.556 61.555-61.556M128 246.981c44.084 0 79.947 35.865 79.947 79.951c0 44.082-35.864 79.954-79.947 79.954s-79.953-35.872-79.953-79.954c0-44.086 35.869-79.95 79.953-79.95m.395 46.388c-18.734 0-33.922 15.188-33.922 33.93c0 18.73 15.188 33.917 33.922 33.917c18.736 0 33.922-15.186 33.922-33.917c0-18.742-15.186-33.93-33.922-33.93"/>
  </g>
  <!-- Cell: closed-access-square -->
  <text x="242" y="145.50" class="label">closed-access-…</text>
  <g transform="translate(255.00, 114.75) scale(0.0402, 0.0352) translate(0, 0)" color="#17181C">
    <path fill="currentColor" d="M48 32C21.5 32 0 53.5 0 80v352c0 26.5 21.5 48 48 48h352c26.5 0 48-21.5 48-48V80c0-26.5-21.5-48-48-48zm176.195 64c47.176 0 85.559 38.383 85.559 85.56v80.46c9.589 15.431 15.137 33.624 15.137 53.091C324.89 370.736 279.63 416 224 416c-55.627 0-100.892-45.264-100.892-100.889c0-19.728 5.698-38.15 15.526-53.715v-79.835c0-47.178 38.386-85.561 85.56-85.561m0 34.264c-28.281 0-51.295 23.011-51.295 51.297v46.59c14.998-8.848 32.467-13.932 51.102-13.932c18.796 0 36.405 5.171 51.488 14.16V181.56c0-28.286-23.013-51.297-51.295-51.297m-.193 118.22c-36.737 0-66.629 29.889-66.629 66.627c0 36.735 29.892 66.627 66.629 66.627c36.736 0 66.621-29.892 66.621-66.627c0-36.738-29.885-66.627-66.621-66.627m.328 38.657c15.613 0 28.268 12.657 28.268 28.275c0 15.61-12.655 28.264-28.268 28.264c-15.612 0-28.268-12.655-28.268-28.264c0-15.618 12.656-28.275 28.268-28.275"/>
  </g>
  <!-- Cell: conversation -->
  <text x="290" y="145.50" class="label">conversation</text>
  <g transform="translate(303.00, 114.75) scale(0.0372, 0.0352) translate(0, 0)" color="#17181C">
    <path fill="currentColor" d="M324.199 96H215.277c-84.567 0-154.25 69.683-154.25 154.25v6.088c0 30.444 9.472 58.182 25.709 83.214L5.552 416l118.393-37.21c25.708 19.62 58.182 30.445 92.685 30.445h107.569c85.92 0 154.25-69.683 154.25-152.897v-6.089C478.448 165.683 408.764 96 324.198 96M406 276c0 46.68-35.234 75.67-81.238 75.67H213.134C166.454 351.67 132 322.68 132 276v-40c0-46.68 34.453-81.201 81.134-81.201h111.628c46.68 0 81.238 34.52 81.238 81.201Z" class="st1"/>
  </g>
  <!-- Cell: conversation-square -->
  <text x="2" y="195.00" class="label">conversation-s…</text>
  <g transform="translate(15.00, 164.25) scale(0.0402, 0.0352) translate(0, 0)" color="#17181C">
    <path fill="currentColor" d="M48 32C21.5 32 0 53.5 0 80v352c0 26.5 21.5 48 48 48h352c26.5 0 48-21.5 48-48V80c0-26.5-21.5-48-48-48zm157.918 115.73h73.705C336.848 147.73 384 194.885 384 252.11v4.119c0 56.309-46.237 103.462-104.377 103.462h-72.791c-23.348 0-45.32-7.325-62.717-20.601L64 364.27l54.936-51.733c-10.988-16.938-17.397-35.708-17.397-56.308v-4.12c0-57.224 47.154-104.379 104.379-104.379m-1.451 39.79c-31.588 0-54.903 23.359-54.903 54.947v27.066c0 31.588 23.315 51.205 54.903 51.205h75.537c31.13 0 54.973-19.617 54.973-51.205v-27.066c0-31.588-23.385-54.947-54.973-54.947z"/>
  </g>
  <!-- Cell: coursera -->
  <text x="50" y="195.00" class="label">coursera</text>
  <g transform="translate(63.00, 164.25) scale(0.0352, 0.0352) translate(0, 0)" color="#17181C">
    <path fill="currentColor" d="M503.86 251.974a166 166 0 0 0-.37-5.77v-.067c-1.845-20.917-8.756-40.492-20.48-58.172a127 127 0 0 0-17.916-21.47c-9.78-9.41-21.102-17.195-33.866-23.35c-19.207-9.175-40.426-13.805-63.07-13.805c-2.214 0-4.528.033-6.862.118c-15.903.721-31.282 3.74-45.743 9.058c-14.576 5.264-27.275 12.224-37.658 20.577c-2.114 1.679-4.412 3.74-6.878 6.006l-1.777 1.745l-2.432 2.583h.033l-1.14 1.124l-.555.603l-2.901 3.053a203 203 0 0 0-6.105 7.196l-.017-.033l-.066-.066c-3.976 4.831-7.648 9.829-10.35 14.326a247 247 0 0 0-5.334 8.822l-23.702 47.923l.033.033l-1.242 2.433l-2.616 5.3c-5.2 10.518-10.77 21.002-16.992 29.657c-13.872 15.215-29.555 22.663-49.72 22.663a76 76 0 0 1-4.327-.151c-12.144-.485-22.562-3.354-31.804-8.822a59 59 0 0 1-2.869-1.813c-7.547-5.015-13.336-11.457-17.663-19.49c-4.882-9.108-7.046-18.418-6.744-28.282c.015-.269.033-.505.033-.722c.655-15.7 6.642-27.911 18.703-38.462c2.935-2.534 6.006-4.68 9.209-6.592a26 26 0 0 1 1.358-.755c8.957-4.881 19.156-7.314 30.847-7.314l3.64.101c18.568.705 32.894 6.508 44.317 17.831l35.83-64.328c-8.573-5.737-18.251-10.668-28.92-14.678c-.402-.15-.822-.318-1.241-.452c-1.275-.453-2.534-.922-3.842-1.341c-11.34-3.79-23.234-6.124-35.478-7.18c-.296-.054-.63-.087-.932-.122c-1.879-.115-3.793-.351-5.67-.436a183 183 0 0 0-6.124-.134h-1.158c-22.526.085-43.462 4.697-62.6 13.84C59.26 153.492 41.882 168.538 29 187.93c-12.848 19.391-19.86 40.911-20.867 64.01c-.083 1.98-.133 3.94-.133 5.871c-.015 32.308 11.76 60.722 35.176 84.575c24.44 25.027 56.228 38.515 94.388 40.108c2.45.1 4.865.167 7.28.167c21.59 0 41.567-3.842 59.48-11.523c4.48-1.912 8.823-4.16 13.269-6.659a96 96 0 0 0 6.96-4.446l1.678-1.124l2.82-1.928c3.389-2.432 6.559-5.065 9.644-7.868l1.073-1.022c1.812-1.728 3.623-3.472 5.334-5.268l6.425-7.262l2.45-3.07l1.14-1.678l1.141-1.643c9.544-16.035 40.61-74.393 40.61-74.393v-.117l1.845-3.557l1.544-2.784c4.58-8.336 7.884-14.258 12.262-20.48l.117-.183c10.215-14.812 27.778-25.362 48.478-27.142c34.722-2.986 65.15 19.828 67.951 50.96c2.784 31.132-23.115 58.794-57.837 61.797c-7.23.62-14.258.134-20.883-1.325l-.168.066c-25.48-5.301-41.7-23.886-49.702-32.19l-33.414 61.444s10.382 10.467 17.496 15.7c7.13 5.216 16.339 10.35 23.686 13.536c17.831 7.616 37.223 12.18 58.643 12.18c2.482 0 1.98 0 4.563-.102c38.128-1.593 72.112-16.205 96.62-41.232c23.215-23.768 35.813-50.91 35.931-83.031v-.957a208 208 0 0 0-.138-5.386z"/>
  </g>
  <!-- Cell: coursera-square -->
  <text x="98" y="195.00" class="label">coursera-square</text>
  <g transform="translate(111.00, 164.25) scale(0.0402, 0.0352) translate(0, 0)" color="#17181C">
    <path fill="currentColor" d="M48 32C21.5 32 0 53.5 0 80v352c0 26.5 21.5 48 48 48h352c26.5 0 48-21.5 48-48V80c0-26.5-21.5-48-48-48zm103.29 142.27h.747c1.299.01 2.63.033 3.95.087c1.211.055 2.448.207 3.66.282c.194.022.408.043.6.078c7.899.681 15.574 2.187 22.89 4.633c.844.27 1.656.573 2.478.865c.27.087.541.194.801.29c6.883 2.588 13.126 5.768 18.656 9.47l-23.115 41.504c-7.37-7.306-16.612-11.05-28.592-11.504l-2.347-.067c-7.543 0-14.124 1.57-19.903 4.719a17 17 0 0 0-.875.486c-2.066 1.234-4.048 2.62-5.941 4.254c-7.781 6.807-11.644 14.686-12.067 24.815c0 .14-.012.291-.021.464c-.195 6.365 1.202 12.37 4.352 18.247c2.791 5.182 6.525 9.34 11.394 12.576a38 38 0 0 0 1.852 1.168c5.962 3.527 12.683 5.378 20.517 5.691c.952.055 1.884.098 2.793.098c13.01 0 23.127-4.805 32.076-14.621c4.015-5.584 7.609-12.348 10.963-19.133l1.688-3.42l.802-1.568l-.021-.022l15.291-30.918a159 159 0 0 1 3.441-5.693c1.743-2.902 4.113-6.125 6.678-9.242l.043.043l.01.021a131 131 0 0 1 3.94-4.643l1.87-1.968l.358-.39l.736-.726h-.021l1.568-1.666l1.148-1.126c1.591-1.462 3.072-2.79 4.436-3.874c6.698-5.389 14.893-9.88 24.297-13.277c9.33-3.43 19.252-5.378 29.512-5.844c1.505-.054 2.997-.076 4.425-.076c14.61 0 28.3 2.988 40.692 8.908c8.235 3.971 15.54 8.992 21.85 15.063a82 82 0 0 1 11.558 13.851c7.564 11.407 12.022 24.037 13.213 37.532v.043c.097 1.244.183 2.466.238 3.722a134 134 0 0 1 .09 3.475v.617c-.076 20.724-8.204 38.234-23.182 53.568c-15.811 16.147-37.737 25.574-62.336 26.602c-1.666.065-1.342.066-2.943.066c-13.82 0-26.33-2.944-37.834-7.857c-4.74-2.056-10.681-5.369-15.281-8.734c-4.59-3.376-11.287-10.13-11.287-10.13l21.556-39.64c5.163 5.358 15.628 17.347 32.067 20.768l.107-.043c4.275.941 8.809 1.255 13.473.855c22.401-1.937 39.11-19.784 37.314-39.869c-1.807-20.085-21.438-34.804-43.84-32.877c-13.354 1.148-24.684 7.954-31.275 17.51l-.076.119c-2.824 4.014-4.956 7.834-7.91 13.213l-.996 1.795l-1.19 2.295v.076s-20.044 37.65-26.201 47.996l-.736 1.059l-.737 1.084l-1.58 1.98l-4.144 4.684c-1.104 1.158-2.272 2.286-3.442 3.4l-.691.658c-1.99 1.808-4.036 3.507-6.223 5.076l-1.818 1.245l-1.084.726a62 62 0 0 1-4.49 2.867c-2.868 1.612-5.67 3.064-8.559 4.297c-11.557 4.956-24.447 7.434-38.375 7.434c-1.558 0-3.117-.043-4.697-.108c-24.62-1.027-45.127-9.73-60.895-25.877c-15.108-15.389-22.704-33.72-22.695-54.564q.002-1.87.086-3.787c.65-14.903 5.174-28.786 13.463-41.297c8.31-12.51 19.523-22.218 33.353-28.885c12.348-5.898 25.854-8.875 40.387-8.93"/>
  </g>
  <!-- Cell: crossref -->
  <text x="146" y="195.00" class="label">crossref</text>
  <g transform="translate(159.00, 164.25) scale(0.0563, 0.0352) translate(0, 0)" color="#17181C">
    <path fill="currentColor" d="M310.362 40L25.168 134.018l192.067 65.984l93.127-30.67ZM9.638 139.13v131.969l192.034-65.985Zm207.597 71.096L25.195 276.21l77.543 25.536l192.067-65.957zm93.127 30.675l-192.066 65.985l192.066 65.985zm-207.624 71.097l-93.1 30.67V472l285.167-94.017Z"/>
  </g>
  <!-- Cell: crossref-square -->
  <text x="194" y="195.00" class="label">crossref-square</text>
  <g transform="translate(207.00, 164.25) scale(0.0402, 0.0352) translate(0, 0)" color="#17181C">
    <path fill="currentColor" d="M48 32C21.5 32 0 53.5 0 80v352c0 26.5 21.5 48 48 48h352c26.5 0 48-21.5 48-48V80c0-26.5-21.5-48-48-48zm287.379 64v95.803l-68.983 22.717l-142.271-48.877zM112.62 169.43l142.246 48.877l-142.246 48.877zm153.775 52.664l57.46 18.935l-142.272 48.858l-57.44-18.916zm68.983 22.722v97.754l-142.272-48.877zM181.584 297.48l142.271 48.877L112.621 416v-95.803z"/>
  </g>
  <!-- Cell: cv -->
  <text x="242" y="195.00" class="label">cv</text>
  <g transform="translate(255.00, 164.25) scale(0.0352, 0.0352) translate(0, 0)" color="#17181C">
    <path fill="currentColor" d="M249.18 328.324c-9.788 15.384-19.179 30.434-40.222 45.055c-11.256 7.89-37.164 23.306-73.99 23.306C64.709 396.685 8 345.605 8 255.801c0-78.486 53.345-140.486 128.466-140.486c30.434 0 57.474 10.521 77.387 26.304c18.414 14.65 27.038 29.304 34.563 42.456l-52.58 26.273c-3.762-8.626-8.29-17.649-19.913-27.406c-12.784-10.155-25.54-13.152-36.46-13.152c-42.821 0-65.364 39.825-65.364 84.145c0 58.238 29.7 87.143 65.364 87.143c34.563 0 48.48-24.042 57.474-39.426zm184.194-204.75H504l-92.037 265.22h-67.597l-90.904-265.22h70.625l54.843 188.6z"/>
  </g>
  <!-- Cell: cv-square -->
  <text x="290" y="195.00" class="label">cv-square</text>
  <g transform="translate(303.00, 164.25) scale(0.0402, 0.0352) translate(0, 0)" color="#17181C">
    <path fill="currentColor" d="M48 32C21.5 32 0 53.5 0 80v352c0 26.5 21.5 48 48 48h352c26.5 0 48-21.5 48-48V80c0-26.5-21.5-48-48-48zm98.88 133.234c19.636 0 37.082 6.789 49.929 16.971c11.88 9.452 17.444 18.907 22.298 27.393l-33.923 16.949c-2.427-5.565-5.347-11.387-12.846-17.682c-8.248-6.552-16.478-8.484-23.524-8.484c-27.626 0-42.17 25.693-42.17 54.287c0 37.573 19.161 56.22 42.17 56.22c22.3 0 31.278-15.51 37.08-25.435L219.6 302.66c-6.315 9.926-12.374 19.635-25.95 29.069c-7.262 5.09-23.977 15.037-47.736 15.037C100.586 346.766 64 313.81 64 255.87c0-50.636 34.415-90.637 82.88-90.637m75.483 5.328h45.565L303.31 292.24l35.125-121.678H384l-59.379 171.112H281.01z"/>
  </g>

  <text x="347" y="116.744" class="overlay-cat">@onwo/iconset-academicons</text>
  <text x="348" y="139.738" class="overlay-title">academicons</text>
  <text x="351" y="190.744" class="overlay-meta">OFL-1.1 · 158 icons</text>
</svg>
