<svg width="133" height="76" viewBox="0 0 133 76" xmlns="http://www.w3.org/2000/svg"><mask id="satori_om-id"><rect x="0" y="0" width="133" height="76" fill="#fff"/></mask><mask id="satori_om-id-0"><rect x="0" y="0" width="133" height="76" fill="#fff"/></mask><mask id="satori_om-id-0-0"><rect x="0" y="0" width="49" height="76" fill="#fff"/></mask><mask id="satori_om-id-0-0-0"><rect x="5" y="0" width="40" height="40" fill="#fff"/></mask><clipPath id="satori_cp-id-0-0-0-0"><rect x="17" y="12" width="16" height="16"/></clipPath><mask id="satori_om-id-0-0-0-0"><rect x="17" y="12" width="16" height="16" fill="#fff"/></mask><image x="17" y="12" width="16" height="16" href="data:image/svg+xml;utf8,%3Csvg  class=%22onwo-icon%22 fill=%22none%22 xmlns=%22http://www.w3.org/2000/svg%22 :=%2234_0%22 data-IconName=%22generic-user%22 dataQwikInspector=%22/@fs/home/emilien/projects/onwo-ui/packages/primitives/src/@kit/svg-icon/svg-icon.tsx:53:5%22 width=%22NaN%22 height=%22NaN%22 viewBox=%220 0 32 32%22%3E%3Cpath :=%22%22 d=%22M20.3839 10.8846C20.3839 13.3062 18.4208 15.2692 15.9992 15.2692C13.5777 15.2692 11.6146 13.3062 11.6146 10.8846C11.6146 8.46306 13.5777 6.5 15.9992 6.5C18.4208 6.5 20.3839 8.46306 20.3839 10.8846Z%22 stroke=%22rgb(0, 0, 0)%22 dataQwikInspector=%22/@fs/home/emilien/projects/onwo-ui/packages/ui/src/@kit/avatar/root.tsx:54:11%22 style=%22display:flex;flex-direction:row;color:rgb(0, 0, 0);font-size:16px;line-height:24px;text-align:start;border-color:rgb(0, 0, 0);border-style:solid;position:static;font-family:Inter;font-weight:500%22%3E%3C/path%3E%3Cpath :=%22%22 d=%22M15.9992 25.5C20.3425 25.5 22.8449 24.3797 24.0057 23.6586C24.5489 23.3212 24.8166 22.6999 24.7614 22.0563C24.6859 21.1773 24.3788 20.2994 24.0661 19.6031C23.6555 18.6888 22.7051 18.1923 21.7029 18.1923H10.2956C9.29337 18.1923 8.34296 18.6888 7.93239 19.6031C7.61969 20.2994 7.31257 21.1773 7.23713 22.0563C7.18189 22.6999 7.44961 23.3212 7.99278 23.6586C9.15358 24.3797 11.6559 25.5 15.9992 25.5Z%22 stroke=%22rgb(0, 0, 0)%22 dataQwikInspector=%22/@fs/home/emilien/projects/onwo-ui/packages/ui/src/@kit/avatar/root.tsx:58:11%22 style=%22display:flex;flex-direction:row;color:rgb(0, 0, 0);font-size:16px;line-height:24px;text-align:start;border-color:rgb(0, 0, 0);border-style:solid;position:static;font-family:Inter;font-weight:500%22%3E%3C/path%3E%3C/svg%3E" preserveAspectRatio="none" clip-path="url(#satori_cp-id-0-0-0-0)" mask="url(#satori_om-id-0-0-0-0)"/><mask id="satori_om-id-0-0-0-0-0"><rect x="17" y="12" width="0" height="16" fill="#fff"/></mask><mask id="satori_om-id-0-0-0-0-1"><rect x="17" y="12" width="0" height="16" fill="#fff"/></mask><mask id="satori_om-id-0-0-1"><rect x="0" y="56" width="49" height="20" fill="#fff"/></mask><g  ><path fill="rgb(0, 0, 0)" d="M3.9 71.2L3.9 71.2Q3.0 71.2 2.3 70.7Q1.5 70.2 1.1 69.3Q0.7 68.4 0.7 67.2L0.7 67.2Q0.7 66.0 1.1 65.1Q1.5 64.2 2.3 63.7Q3.0 63.3 4.0 63.3L4.0 63.3Q4.7 63.3 5.1 63.5Q5.6 63.8 5.8 64.1Q6.0 64.4 6.2 64.6L6.2 64.6L6.3 64.6L6.3 60.8L7.5 60.8L7.5 71L6.3 71L6.3 69.8L6.2 69.8Q6.0 70.0 5.8 70.3Q5.6 70.7 5.1 70.9Q4.7 71.2 3.9 71.2ZM4.1 70.1L4.1 70.1Q4.8 70.1 5.3 69.7Q5.8 69.3 6.0 68.7Q6.3 68.0 6.3 67.2L6.3 67.2Q6.3 66.3 6.0 65.7Q5.8 65.1 5.3 64.7Q4.8 64.4 4.1 64.4L4.1 64.4Q3.4 64.4 2.9 64.7Q2.4 65.1 2.2 65.8Q2.0 66.4 2.0 67.2L2.0 67.2Q2.0 68.0 2.2 68.6Q2.4 69.3 2.9 69.7Q3.4 70.1 4.1 70.1ZM12.9 71.2L12.9 71.2Q11.8 71.2 11.0 70.7Q10.2 70.2 9.7 69.3Q9.3 68.4 9.3 67.2Q9.3 66.1 9.7 65.2Q10.1 64.3 10.9 63.8Q11.7 63.3 12.7 63.3L12.7 63.3Q13.3 63.3 13.9 63.5Q14.5 63.7 15.0 64.1Q15.5 64.6 15.8 65.3Q16.1 66.0 16.1 67.1L16.1 67.1L16.1 67.6L10.5 67.6Q10.6 68.3 10.8 68.9L10.8 68.9Q11.1 69.5 11.6 69.8Q12.2 70.1 12.9 70.1L12.9 70.1Q13.3 70.1 13.7 69.9Q14.1 69.8 14.3 69.5Q14.6 69.3 14.7 68.9L14.7 68.9L15.9 69.2Q15.8 69.8 15.3 70.2Q14.9 70.7 14.3 70.9Q13.7 71.2 12.9 71.2ZM10.5 66.6L10.5 66.6L14.8 66.6Q14.8 66.0 14.6 65.6L14.6 65.6Q14.3 65.0 13.9 64.7Q13.4 64.4 12.7 64.4Q12.0 64.4 11.5 64.7Q11.0 65.0 10.8 65.6L10.8 65.6Q10.6 66.0 10.5 66.6ZM19.6 63.4L21.4 63.4L21.4 64.4L19.6 64.4L19.6 71L18.4 71L18.4 64.4L16.9 64.4L16.9 63.4L18.4 63.4L18.4 62.3Q18.4 61.7 18.7 61.2Q19.0 60.8 19.5 60.6Q20.0 60.3 20.5 60.3L20.5 60.3Q21.0 60.3 21.3 60.4Q21.6 60.5 21.7 60.5L21.7 60.5L21.4 61.6Q21.3 61.6 21.1 61.5Q21.0 61.5 20.7 61.5L20.7 61.5Q20.1 61.5 19.9 61.8Q19.6 62.1 19.6 62.6L19.6 62.6L19.6 63.4ZM25.1 71.2L25.1 71.2Q24.4 71.2 23.8 70.9Q23.2 70.6 22.9 70.1Q22.5 69.6 22.5 68.8L22.5 68.8Q22.5 68.2 22.8 67.8Q23.1 67.3 23.5 67.1Q23.9 66.9 24.4 66.8Q25.0 66.6 25.5 66.6L25.5 66.6Q26.2 66.5 26.6 66.4Q27.0 66.4 27.3 66.3Q27.5 66.2 27.5 65.9L27.5 65.9L27.5 65.8Q27.5 65.4 27.3 65.0Q27.1 64.7 26.8 64.5Q26.4 64.3 25.9 64.3L25.9 64.3Q25.3 64.3 24.9 64.5Q24.5 64.7 24.3 64.9Q24.1 65.2 23.9 65.5L23.9 65.5L22.8 65.1Q23.0 64.4 23.5 64.0Q24.0 63.6 24.6 63.4Q25.2 63.3 25.8 63.3L25.8 63.3Q26.2 63.3 26.7 63.4Q27.2 63.4 27.6 63.7Q28.1 64.0 28.4 64.5Q28.7 65.1 28.7 66.0L28.7 66.0L28.7 71L27.5 71L27.5 70.0L27.4 70.0Q27.3 70.2 27.0 70.5Q26.7 70.8 26.2 71.0Q25.8 71.2 25.1 71.2ZM25.3 70.1L25.3 70.1Q26.0 70.1 26.5 69.8Q27.0 69.6 27.2 69.1Q27.5 68.7 27.5 68.2L27.5 68.2L27.5 67.2Q27.4 67.3 27.1 67.3Q26.9 67.4 26.6 67.5Q26.2 67.5 25.9 67.6Q25.6 67.6 25.5 67.6L25.5 67.6Q25.0 67.7 24.6 67.8Q24.2 67.9 24.0 68.2Q23.8 68.5 23.8 68.9L23.8 68.9Q23.8 69.3 24.0 69.6Q24.2 69.8 24.5 70.0Q24.9 70.1 25.3 70.1ZM33.4 71.1L33.4 71.1Q32.7 71.1 32.1 70.8Q31.5 70.5 31.2 69.8Q30.9 69.2 30.9 68.2L30.9 68.2L30.9 63.4L32.1 63.4L32.1 68.1Q32.1 69.0 32.6 69.5Q33.0 70.0 33.8 70.0L33.8 70.0Q34.4 70.0 34.8 69.7Q35.2 69.5 35.5 69.0Q35.7 68.6 35.7 67.9L35.7 67.9L35.7 63.4L37.0 63.4L37.0 71L35.8 71L35.8 69.6Q35.5 70.3 34.9 70.7L34.9 70.7Q34.3 71.1 33.4 71.1ZM39.1 60.8L40.4 60.8L40.4 71L39.1 71L39.1 60.8ZM44.0 63.4L45.5 63.4L45.5 64.4L44.0 64.4L44.0 69.0Q44.0 69.5 44.2 69.8Q44.4 70.0 44.9 70.0L44.9 70.0Q45.0 70.0 45.2 70.0Q45.3 69.9 45.5 69.9L45.5 69.9L45.7 71.0Q45.6 71.0 45.3 71.1Q45.1 71.1 44.8 71.1L44.8 71.1Q43.8 71.1 43.3 70.6Q42.7 70.0 42.7 69.1L42.7 69.1L42.7 64.4L41.6 64.4L41.6 63.4L42.7 63.4L42.7 61.5L44.0 61.5L44.0 63.4Z "/></g><mask id="satori_om-id-0-1"><rect x="49" y="0" width="40" height="76" fill="#fff"/></mask><mask id="satori_om-id-0-1-0"><rect x="49" y="0" width="40" height="40" fill="#fff"/></mask><mask id="satori_om-id-0-1-0-0"><rect x="56" y="8" width="26" height="24" fill="#fff"/></mask><g  ><path fill="rgb(0, 0, 0)" d="M58.6 26L57.2 26L57.2 17.3L58.6 17.3L58.6 18.9Q58.8 18.4 59.1 18.0L59.1 18.0Q59.5 17.6 60.0 17.3Q60.5 17.1 61.1 17.1L61.1 17.1Q62.0 17.1 62.6 17.7L62.6 17.7Q63.1 18.2 63.3 18.9L63.3 18.9Q63.4 18.4 63.7 18.1L63.7 18.1Q64.2 17.6 64.7 17.4Q65.3 17.1 66.0 17.1L66.0 17.1Q66.8 17.1 67.4 17.4Q68.0 17.8 68.4 18.4Q68.8 19.1 68.8 20.1L68.8 20.1L68.8 26L67.4 26L67.4 20.1Q67.4 19.2 66.8 18.8Q66.3 18.4 65.6 18.4L65.6 18.4Q65.0 18.4 64.6 18.6Q64.2 18.9 63.9 19.3Q63.7 19.7 63.7 20.3L63.7 20.3L63.7 26L62.3 26L62.3 20.0Q62.3 19.3 61.8 18.8Q61.3 18.4 60.6 18.4L60.6 18.4Q60.1 18.4 59.6 18.6Q59.2 18.9 58.9 19.3Q58.6 19.8 58.6 20.5L58.6 20.5L58.6 26ZM74.5 26.2L74.5 26.2Q73.4 26.2 72.6 25.6Q71.8 25.1 71.3 24.1Q70.8 23.0 70.8 21.7L70.8 21.7Q70.8 20.3 71.3 19.3Q71.8 18.3 72.6 17.7Q73.4 17.2 74.5 17.2L74.5 17.2Q75.4 17.2 75.9 17.4Q76.4 17.7 76.7 18.1Q76.9 18.4 77.1 18.7L77.1 18.7L77.2 18.7L77.2 14.4L78.6 14.4L78.6 26L77.2 26L77.2 24.6L77.1 24.6Q76.9 24.9 76.6 25.3Q76.4 25.6 75.9 25.9Q75.4 26.2 74.5 26.2ZM74.7 24.9L74.7 24.9Q75.5 24.9 76.1 24.5Q76.6 24.1 76.9 23.4Q77.2 22.6 77.2 21.6L77.2 21.6Q77.2 20.7 76.9 19.9Q76.6 19.2 76.1 18.8Q75.5 18.4 74.7 18.4L74.7 18.4Q73.9 18.4 73.4 18.8Q72.8 19.3 72.5 20.0Q72.3 20.7 72.3 21.6L72.3 21.6Q72.3 22.6 72.5 23.3Q72.8 24.0 73.4 24.5Q73.9 24.9 74.7 24.9Z "/></g><mask id="satori_om-id-0-1-1"><rect x="49" y="56" width="40" height="20" fill="#fff"/></mask><g  ><path fill="rgb(0, 0, 0)" d="M51.3 66.4L51.3 66.4L51.3 71L50.1 71L50.1 63.4L51.3 63.4L51.3 64.8Q51.6 64.1 52.1 63.7L52.1 63.7Q52.7 63.3 53.6 63.3L53.6 63.3Q54.4 63.3 55.0 63.6Q55.5 63.9 55.9 64.5Q56.2 65.2 56.2 66.1L56.2 66.1L56.2 71L55.0 71L55.0 66.2Q55.0 65.4 54.5 64.9Q54.0 64.4 53.2 64.4L53.2 64.4Q52.7 64.4 52.3 64.6Q51.8 64.8 51.6 65.3Q51.3 65.8 51.3 66.4ZM60.5 71.2L60.5 71.2Q59.8 71.2 59.2 70.9Q58.6 70.6 58.2 70.1Q57.9 69.6 57.9 68.8L57.9 68.8Q57.9 68.2 58.1 67.8Q58.4 67.3 58.8 67.1Q59.3 66.9 59.8 66.8Q60.3 66.6 60.9 66.6L60.9 66.6Q61.5 66.5 62.0 66.4Q62.4 66.4 62.6 66.3Q62.8 66.2 62.8 65.9L62.8 65.9L62.8 65.8Q62.8 65.4 62.6 65.0Q62.5 64.7 62.1 64.5Q61.8 64.3 61.2 64.3L61.2 64.3Q60.7 64.3 60.3 64.5Q59.9 64.7 59.7 64.9Q59.4 65.2 59.3 65.5L59.3 65.5L58.1 65.1Q58.4 64.4 58.9 64.0Q59.4 63.6 60.0 63.4Q60.6 63.3 61.2 63.3L61.2 63.3Q61.6 63.3 62.1 63.4Q62.5 63.4 63.0 63.7Q63.5 64.0 63.8 64.5Q64.1 65.1 64.1 66.0L64.1 66.0L64.1 71L62.8 71L62.8 70.0L62.8 70.0Q62.6 70.2 62.3 70.5Q62.1 70.8 61.6 71.0Q61.1 71.2 60.5 71.2ZM60.7 70.1L60.7 70.1Q61.4 70.1 61.9 69.8Q62.3 69.6 62.6 69.1Q62.8 68.7 62.8 68.2L62.8 68.2L62.8 67.2Q62.7 67.3 62.5 67.3Q62.2 67.4 61.9 67.5Q61.6 67.5 61.3 67.6Q61.0 67.6 60.8 67.6L60.8 67.6Q60.4 67.7 60.0 67.8Q59.6 67.9 59.4 68.2Q59.1 68.5 59.1 68.9L59.1 68.9Q59.1 69.3 59.3 69.6Q59.5 69.8 59.9 70.0Q60.2 70.1 60.7 70.1ZM67.4 71L66.2 71L66.2 63.4L67.4 63.4L67.4 64.8Q67.6 64.3 67.8 64.0L67.8 64.0Q68.2 63.6 68.6 63.4Q69.1 63.2 69.6 63.2L69.6 63.2Q70.4 63.2 70.9 63.7L70.9 63.7Q71.3 64.2 71.5 64.8L71.5 64.8Q71.6 64.4 71.9 64.1L71.9 64.1Q72.3 63.7 72.8 63.4Q73.3 63.2 73.9 63.2L73.9 63.2Q74.6 63.2 75.1 63.5Q75.7 63.8 76.0 64.4Q76.3 65.0 76.3 65.8L76.3 65.8L76.3 71L75.1 71L75.1 65.9Q75.1 65.1 74.6 64.7Q74.2 64.3 73.5 64.3L73.5 64.3Q73.0 64.3 72.7 64.6Q72.3 64.8 72.1 65.1Q71.9 65.5 71.9 66.0L71.9 66.0L71.9 71L70.6 71L70.6 65.8Q70.6 65.1 70.2 64.7Q69.8 64.3 69.2 64.3L69.2 64.3Q68.7 64.3 68.3 64.6Q67.9 64.8 67.7 65.2Q67.4 65.6 67.4 66.2L67.4 66.2L67.4 71ZM81.7 71.2L81.7 71.2Q80.6 71.2 79.8 70.7Q79.0 70.2 78.5 69.3Q78.1 68.4 78.1 67.2Q78.1 66.1 78.5 65.2Q79.0 64.3 79.7 63.8Q80.5 63.3 81.5 63.3L81.5 63.3Q82.2 63.3 82.7 63.5Q83.3 63.7 83.8 64.1Q84.3 64.6 84.6 65.3Q84.9 66.0 84.9 67.1L84.9 67.1L84.9 67.6L79.4 67.6Q79.4 68.3 79.6 68.9L79.6 68.9Q79.9 69.5 80.5 69.8Q81.0 70.1 81.7 70.1L81.7 70.1Q82.1 70.1 82.5 69.9Q82.9 69.8 83.2 69.5Q83.4 69.3 83.6 68.9L83.6 68.9L84.8 69.2Q84.6 69.8 84.2 70.2Q83.7 70.7 83.1 70.9Q82.5 71.2 81.7 71.2ZM79.4 66.6L79.4 66.6L83.6 66.6Q83.6 66.0 83.4 65.6L83.4 65.6Q83.2 65.0 82.7 64.7Q82.2 64.4 81.5 64.4Q80.9 64.4 80.4 64.7Q79.9 65.0 79.6 65.6L79.6 65.6Q79.4 66.0 79.4 66.6Z "/></g><mask id="satori_om-id-0-2"><rect x="89" y="0" width="44" height="76" fill="#fff"/></mask><mask id="satori_om-id-0-2-0"><rect x="91" y="0" width="40" height="40" fill="#fff"/></mask><mask id="satori_om-id-0-2-1"><rect x="89" y="56" width="44" height="20" fill="#fff"/></mask><g  ><path fill="rgb(0, 0, 0)" d="M91.3 71L90.1 71L90.1 63.4L91.3 63.4L91.3 71ZM90.7 62.1L90.7 62.1Q90.4 62.1 90.1 61.9Q89.8 61.6 89.8 61.3L89.8 61.3Q89.8 61.0 90.1 60.7Q90.4 60.5 90.7 60.5L90.7 60.5Q91.1 60.5 91.3 60.7Q91.6 61.0 91.6 61.3L91.6 61.3Q91.6 61.6 91.3 61.9Q91.1 62.1 90.7 62.1ZM94.7 71L93.5 71L93.5 63.4L94.7 63.4L94.7 64.8Q94.8 64.3 95.1 64.0L95.1 64.0Q95.4 63.6 95.9 63.4Q96.3 63.2 96.8 63.2L96.8 63.2Q97.6 63.2 98.2 63.7L98.2 63.7Q98.6 64.2 98.8 64.8L98.8 64.8Q98.9 64.4 99.2 64.1L99.2 64.1Q99.5 63.7 100.0 63.4Q100.6 63.2 101.2 63.2L101.2 63.2Q101.8 63.2 102.4 63.5Q102.9 63.8 103.2 64.4Q103.6 65.0 103.6 65.8L103.6 65.8L103.6 71L102.3 71L102.3 65.9Q102.3 65.1 101.9 64.7Q101.4 64.3 100.8 64.3L100.8 64.3Q100.3 64.3 99.9 64.6Q99.5 64.8 99.3 65.1Q99.1 65.5 99.1 66.0L99.1 66.0L99.1 71L97.9 71L97.9 65.8Q97.9 65.1 97.5 64.7Q97.1 64.3 96.4 64.3L96.4 64.3Q96.0 64.3 95.6 64.6Q95.2 64.8 94.9 65.2Q94.7 65.6 94.7 66.2L94.7 66.2L94.7 71ZM107.9 71.2L107.9 71.2Q107.1 71.2 106.6 70.9Q106.0 70.6 105.6 70.1Q105.3 69.6 105.3 68.8L105.3 68.8Q105.3 68.2 105.5 67.8Q105.8 67.3 106.2 67.1Q106.7 66.9 107.2 66.8Q107.7 66.6 108.2 66.6L108.2 66.6Q108.9 66.5 109.4 66.4Q109.8 66.4 110.0 66.3Q110.2 66.2 110.2 65.9L110.2 65.9L110.2 65.8Q110.2 65.4 110.0 65.0Q109.8 64.7 109.5 64.5Q109.1 64.3 108.6 64.3L108.6 64.3Q108.1 64.3 107.7 64.5Q107.3 64.7 107.0 64.9Q106.8 65.2 106.7 65.5L106.7 65.5L105.5 65.1Q105.8 64.4 106.3 64.0Q106.8 63.6 107.4 63.4Q108.0 63.3 108.6 63.3L108.6 63.3Q109.0 63.3 109.4 63.4Q109.9 63.4 110.4 63.7Q110.8 64.0 111.1 64.5Q111.4 65.1 111.4 66.0L111.4 66.0L111.4 71L110.2 71L110.2 70.0L110.1 70.0Q110.0 70.2 109.7 70.5Q109.4 70.8 109.0 71.0Q108.5 71.2 107.9 71.2ZM108.1 70.1L108.1 70.1Q108.8 70.1 109.2 69.8Q109.7 69.6 110.0 69.1Q110.2 68.7 110.2 68.2L110.2 68.2L110.2 67.2Q110.1 67.3 109.9 67.3Q109.6 67.4 109.3 67.5Q109.0 67.5 108.7 67.6Q108.4 67.6 108.2 67.6L108.2 67.6Q107.7 67.7 107.4 67.8Q107.0 67.9 106.7 68.2Q106.5 68.5 106.5 68.9L106.5 68.9Q106.5 69.3 106.7 69.6Q106.9 69.8 107.3 70.0Q107.6 70.1 108.1 70.1ZM116.7 74.0L116.7 74.0Q115.8 74.0 115.2 73.8Q114.6 73.6 114.2 73.2Q113.8 72.9 113.5 72.5L113.5 72.5L114.5 71.8Q114.7 72.0 115.0 72.3Q115.2 72.6 115.6 72.8Q116.0 72.9 116.7 72.9L116.7 72.9Q117.6 72.9 118.2 72.5Q118.8 72.1 118.8 71.1L118.8 71.1L118.8 69.6L118.7 69.6Q118.5 69.8 118.3 70.1Q118.1 70.4 117.6 70.6Q117.2 70.9 116.5 70.9L116.5 70.9Q115.5 70.9 114.8 70.4Q114.1 70.0 113.7 69.2Q113.2 68.3 113.2 67.1L113.2 67.1Q113.2 66.0 113.6 65.1Q114.1 64.2 114.8 63.7Q115.5 63.3 116.5 63.3L116.5 63.3Q117.2 63.3 117.7 63.5Q118.1 63.7 118.3 64.1Q118.6 64.4 118.7 64.6L118.7 64.6L118.8 64.6L118.8 63.4L120.0 63.4L120.0 71.2Q120.0 72.2 119.6 72.8Q119.1 73.4 118.4 73.7Q117.6 74.0 116.7 74.0ZM116.7 69.8L116.7 69.8Q117.4 69.8 117.8 69.5Q118.3 69.1 118.6 68.5Q118.8 68.0 118.8 67.1L118.8 67.1Q118.8 66.3 118.6 65.7Q118.3 65.1 117.8 64.7Q117.4 64.4 116.7 64.4L116.7 64.4Q115.9 64.4 115.4 64.7Q115.0 65.1 114.7 65.7Q114.5 66.4 114.5 67.1L114.5 67.1Q114.5 67.9 114.7 68.5Q115.0 69.1 115.5 69.4Q115.9 69.8 116.7 69.8ZM125.4 71.2L125.4 71.2Q124.3 71.2 123.5 70.7Q122.7 70.2 122.2 69.3Q121.8 68.4 121.8 67.2Q121.8 66.1 122.2 65.2Q122.7 64.3 123.4 63.8Q124.2 63.3 125.3 63.3L125.3 63.3Q125.9 63.3 126.5 63.5Q127.0 63.7 127.5 64.1Q128.0 64.6 128.3 65.3Q128.6 66.0 128.6 67.1L128.6 67.1L128.6 67.6L123.1 67.6Q123.1 68.3 123.4 68.9L123.4 68.9Q123.6 69.5 124.2 69.8Q124.7 70.1 125.4 70.1L125.4 70.1Q125.9 70.1 126.2 69.9Q126.6 69.8 126.9 69.5Q127.1 69.3 127.3 68.9L127.3 68.9L128.5 69.2Q128.3 69.8 127.9 70.2Q127.4 70.7 126.8 70.9Q126.2 71.2 125.4 71.2ZM123.1 66.6L123.1 66.6L127.3 66.6Q127.3 66.0 127.1 65.6L127.1 65.6Q126.9 65.0 126.4 64.7Q125.9 64.4 125.3 64.4Q124.6 64.4 124.1 64.7Q123.6 65.0 123.3 65.6L123.3 65.6Q123.1 66.0 123.1 66.6Z "/></g></svg>