<svg width="48" height="96" viewBox="0 0 48 96" xmlns="http://www.w3.org/2000/svg"><mask id="satori_om-id"><rect x="0" y="0" width="48" height="96" fill="#fff"/></mask><mask id="satori_om-id-0"><rect x="0" y="0" width="48" height="96" fill="#fff"/></mask><mask id="satori_om-id-0-0"><rect x="8" y="0" width="32" height="32" fill="#fff"/></mask><mask id="satori_om-id-0-0-0"><rect x="12" y="4" width="24" height="24" fill="#fff"/></mask><g  ><path fill="rgb(0, 0, 0)" d="M16.2 22.2L16.2 22.2Q15.3 22.2 14.6 21.9Q13.9 21.7 13.5 21.1Q13 20.6 12.8 19.9L12.8 19.9L14.2 19.6Q14.4 20.3 14.9 20.6Q15.4 21.0 16.2 21.0L16.2 21.0Q17.1 21.0 17.6 20.6Q18.2 20.2 18.2 19.6L18.2 19.6Q18.2 19.2 17.9 18.9Q17.6 18.6 16.9 18.4L16.9 18.4L15.5 18.1Q14.3 17.8 13.7 17.2Q13.1 16.6 13.1 15.7L13.1 15.7Q13.1 15.0 13.5 14.4Q14.0 13.8 14.7 13.5Q15.4 13.2 16.3 13.2L16.3 13.2Q17.2 13.2 17.9 13.4Q18.5 13.7 18.9 14.2Q19.3 14.6 19.5 15.3L19.5 15.3L18.2 15.6Q18.0 15.1 17.6 14.7Q17.2 14.4 16.4 14.4L16.4 14.4Q15.6 14.4 15.1 14.7Q14.5 15.1 14.5 15.6L14.5 15.6Q14.5 16.1 14.9 16.4Q15.2 16.7 16 16.9L16 16.9L17.3 17.2Q18.5 17.5 19.1 18.1Q19.6 18.6 19.6 19.5L19.6 19.5Q19.6 20.3 19.2 20.9Q18.8 21.5 18.0 21.8Q17.2 22.2 16.2 22.2ZM23.1 22L21.7 22L21.7 13.3L23.0 13.3L23.1 14.9Q23.2 14.4 23.5 14.0L23.5 14.0Q23.9 13.6 24.4 13.3Q24.9 13.1 25.5 13.1L25.5 13.1Q26.5 13.1 27.0 13.7L27.0 13.7Q27.5 14.2 27.7 14.9L27.7 14.9Q27.9 14.4 28.2 14.1L28.2 14.1Q28.6 13.6 29.2 13.4Q29.8 13.1 30.5 13.1L30.5 13.1Q31.2 13.1 31.9 13.4Q32.5 13.8 32.9 14.4Q33.2 15.1 33.2 16.1L33.2 16.1L33.2 22L31.8 22L31.8 16.1Q31.8 15.2 31.3 14.8Q30.8 14.4 30.1 14.4L30.1 14.4Q29.5 14.4 29.0 14.6Q28.6 14.9 28.4 15.3Q28.2 15.7 28.2 16.3L28.2 16.3L28.2 22L26.8 22L26.8 16.0Q26.8 15.3 26.3 14.8Q25.8 14.4 25.0 14.4L25.0 14.4Q24.5 14.4 24.1 14.6Q23.6 14.9 23.4 15.3Q23.1 15.8 23.1 16.5L23.1 16.5L23.1 22Z "/></g><mask id="satori_om-id-0-1"><rect x="0" y="48" width="48" height="48" fill="#fff"/></mask><mask id="satori_om-id-0-1-0"><rect x="13" y="60" width="22" height="24" fill="#fff"/></mask><g  ><path fill="rgb(0, 0, 0)" d="M14.2 66.4L15.6 66.4L15.6 78L14.2 78L14.2 66.4ZM21.6 81.5L21.6 81.5Q20.7 81.5 20.0 81.2Q19.3 81.0 18.8 80.6Q18.3 80.1 18.1 79.7L18.1 79.7L19.2 78.9Q19.4 79.2 19.7 79.5Q19.9 79.8 20.4 80.0Q20.9 80.2 21.6 80.2L21.6 80.2Q22.7 80.2 23.4 79.7Q24.0 79.2 24.0 78.1L24.0 78.1L24.0 76.4L23.9 76.4Q23.8 76.6 23.5 77.0Q23.2 77.3 22.7 77.6Q22.2 77.9 21.4 77.9L21.4 77.9Q20.3 77.9 19.5 77.4Q18.7 76.9 18.2 75.9Q17.7 75.0 17.7 73.6L17.7 73.6Q17.7 72.2 18.2 71.2Q18.6 70.3 19.5 69.7Q20.3 69.2 21.4 69.2L21.4 69.2Q22.3 69.2 22.8 69.4Q23.3 69.7 23.5 70.1Q23.8 70.4 24.0 70.7L24.0 70.7L24.1 70.7L24.1 69.3L25.5 69.3L25.5 78.2Q25.5 79.4 24.9 80.1Q24.4 80.8 23.6 81.1Q22.7 81.5 21.6 81.5ZM21.6 76.6L21.6 76.6Q22.4 76.6 23.0 76.2Q23.5 75.9 23.8 75.2Q24.1 74.5 24.1 73.6L24.1 73.6Q24.1 72.6 23.8 71.9Q23.5 71.2 23.0 70.8Q22.4 70.4 21.6 70.4L21.6 70.4Q20.8 70.4 20.2 70.8Q19.7 71.3 19.4 72.0Q19.1 72.7 19.1 73.6L19.1 73.6Q19.1 74.5 19.4 75.1Q19.7 75.8 20.2 76.2Q20.8 76.6 21.6 76.6Z "/></g></svg>