<svg width="91" height="40" viewBox="0 0 91 40" xmlns="http://www.w3.org/2000/svg"><mask id="satori_om-id"><rect x="0" y="0" width="90" height="40" fill="#fff"/></mask><mask id="satori_om-id-0"><rect x="0" y="0" width="90" height="40" fill="#fff"/></mask><mask id="satori_om-id-0-0"><rect x="0" y="0" width="90" height="40" fill="#fff"/></mask><path x="0" y="0" width="90" height="40" fill="rgba(246, 246, 246, 1)" d="M8,0 h74 a8,8 0 0 1 8,8 v24 a8,8 0 0 1 -8,8 h-74 a8,8 0 0 1 -8,-8 v-24 a8,8 0 0 1 8,-8"/><g  ><path fill="rgb(0, 0, 0)" d="M22.0 26L22.0 26L18.4 26L18.4 14.4L22.2 14.4Q23.9 14.4 25.1 15.1Q26.3 15.8 26.9 17.1Q27.6 18.4 27.6 20.2L27.6 20.2Q27.6 22.0 26.9 23.3Q26.3 24.6 25.1 25.3Q23.8 26 22.0 26ZM19.9 15.7L19.9 24.7L21.9 24.7Q23.4 24.7 24.3 24.1Q25.2 23.6 25.7 22.6Q26.2 21.6 26.2 20.2L26.2 20.2Q26.2 18.8 25.7 17.8Q25.2 16.8 24.3 16.2Q23.4 15.7 22.1 15.7L22.1 15.7L19.9 15.7ZM33.5 26.2L33.5 26.2Q32.2 26.2 31.3 25.6Q30.4 25.1 29.9 24.1Q29.4 23.0 29.4 21.7Q29.4 20.4 29.8 19.3Q30.3 18.3 31.2 17.7Q32.1 17.2 33.3 17.2L33.3 17.2Q34.0 17.2 34.7 17.4Q35.3 17.6 35.9 18.1Q36.4 18.6 36.8 19.5Q37.1 20.3 37.1 21.5L37.1 21.5L37.1 22.1L30.8 22.1Q30.8 23.0 31.1 23.6L31.1 23.6Q31.5 24.2 32.1 24.6Q32.7 24.9 33.5 24.9L33.5 24.9Q34.0 24.9 34.4 24.8Q34.8 24.6 35.1 24.3Q35.4 24.0 35.6 23.6L35.6 23.6L37.0 24.0Q36.8 24.6 36.3 25.1Q35.8 25.6 35.1 25.9Q34.4 26.2 33.5 26.2ZM30.8 20.9L30.8 20.9L35.7 20.9Q35.6 20.3 35.4 19.8L35.4 19.8Q35.1 19.2 34.6 18.8Q34.1 18.4 33.3 18.4Q32.5 18.4 31.9 18.8Q31.4 19.2 31.1 19.8L31.1 19.8Q30.8 20.3 30.8 20.9ZM41.2 17.3L43.2 17.3L43.2 18.5L41.2 18.5L41.2 26L39.8 26L39.8 18.5L38.0 18.5L38.0 17.3L39.8 17.3L39.8 16.1Q39.8 15.3 40.1 14.8Q40.5 14.3 41.0 14.1Q41.6 13.8 42.2 13.8L42.2 13.8Q42.7 13.8 43.1 13.9Q43.4 14.0 43.5 14.0L43.5 14.0L43.2 15.3Q43.0 15.2 42.9 15.2Q42.7 15.1 42.4 15.1L42.4 15.1Q41.8 15.1 41.5 15.4Q41.2 15.8 41.2 16.4L41.2 16.4L41.2 17.3ZM47.5 26.2L47.5 26.2Q46.6 26.2 46.0 25.9Q45.3 25.6 44.9 25.0Q44.5 24.4 44.5 23.5L44.5 23.5Q44.5 22.8 44.8 22.3Q45.1 21.8 45.6 21.6Q46.1 21.3 46.7 21.2Q47.3 21.0 47.9 20.9L47.9 20.9Q48.7 20.8 49.2 20.8Q49.7 20.7 49.9 20.6Q50.1 20.5 50.1 20.1L50.1 20.1L50.1 20.1Q50.1 19.6 49.9 19.2Q49.7 18.8 49.3 18.6Q48.9 18.4 48.3 18.4L48.3 18.4Q47.7 18.4 47.2 18.6Q46.8 18.8 46.5 19.1Q46.2 19.4 46.1 19.7L46.1 19.7L44.8 19.2Q45.1 18.4 45.7 18.0Q46.2 17.5 46.9 17.3Q47.6 17.2 48.3 17.2L48.3 17.2Q48.7 17.2 49.3 17.3Q49.8 17.4 50.3 17.7Q50.9 18.0 51.2 18.6Q51.5 19.2 51.5 20.2L51.5 20.2L51.5 26L50.2 26L50.2 24.8L50.1 24.8Q49.9 25.1 49.6 25.4Q49.3 25.8 48.7 26.0Q48.2 26.2 47.5 26.2ZM47.7 25.0L47.7 25.0Q48.5 25.0 49.0 24.7Q49.6 24.4 49.9 23.9Q50.1 23.4 50.1 22.8L50.1 22.8L50.1 21.6Q50.1 21.7 49.8 21.8Q49.5 21.9 49.1 22.0Q48.7 22.0 48.4 22.1Q48.0 22.1 47.8 22.1L47.8 22.1Q47.3 22.2 46.9 22.3Q46.4 22.5 46.2 22.8Q45.9 23.1 45.9 23.6L45.9 23.6Q45.9 24.0 46.1 24.3Q46.4 24.6 46.8 24.8Q47.2 25.0 47.7 25.0ZM57.0 26.1L57.0 26.1Q56.1 26.1 55.4 25.7Q54.8 25.4 54.4 24.6Q54.0 23.9 54.0 22.8L54.0 22.8L54.0 17.3L55.4 17.3L55.4 22.7Q55.4 23.7 56.0 24.3Q56.5 24.8 57.4 24.8L57.4 24.8Q58.0 24.8 58.5 24.6Q59.0 24.3 59.3 23.8Q59.6 23.2 59.6 22.5L59.6 22.5L59.6 17.3L61.0 17.3L61.0 26L59.6 26L59.6 24.4Q59.3 25.2 58.7 25.6L58.7 25.6Q57.9 26.1 57.0 26.1ZM63.5 14.4L64.9 14.4L64.9 26L63.5 26L63.5 14.4ZM69.0 17.3L70.8 17.3L70.8 18.5L69.0 18.5L69.0 23.7Q69.0 24.3 69.2 24.6Q69.5 24.9 70.0 24.9L70.0 24.9Q70.2 24.9 70.4 24.8Q70.6 24.8 70.7 24.8L70.7 24.8L71.0 26.0Q70.8 26.0 70.5 26.1Q70.3 26.1 70.0 26.1L70.0 26.1Q68.9 26.1 68.2 25.5Q67.6 24.9 67.6 23.8L67.6 23.8L67.6 18.5L66.3 18.5L66.3 17.3L67.6 17.3L67.6 15.2L69.0 15.2L69.0 17.3Z "/></g></svg>