<svg width="150" height="96" viewBox="0 0 150 96" xmlns="http://www.w3.org/2000/svg"><mask id="satori_om-id"><rect x="0" y="0" width="150" height="96" fill="#fff"/></mask><mask id="satori_om-id-0"><rect x="0" y="0" width="150" height="96" fill="#fff"/></mask><mask id="satori_om-id-0-0"><rect x="0" y="0" width="150" height="40" fill="#fff"/></mask><path x="0" y="0" width="150" height="40" fill="rgba(246, 246, 246, 1)" d="M8,0 h134 a8,8 0 0 1 8,8 v24 a8,8 0 0 1 -8,8 h-134 a8,8 0 0 1 -8,-8 v-24 a8,8 0 0 1 8,-8"/><clipPath id="satori_cp-id-0-0-0"><rect x="16" y="13" width="14" height="14"/></clipPath><mask id="satori_om-id-0-0-0"><rect x="16" y="13" width="14" height="14" fill="#fff"/></mask><image x="16" y="13" width="14" height="14" href="data:image/svg+xml;utf8,%3Csvg  class=%22onwo-icon%22 fill=%22none%22 xmlns=%22http://www.w3.org/2000/svg%22 q:container=%22html%22 :=%2234_0%22 dataQwikInspector=%22/@fs/home/emilien/projects/onwo-ui/packages/primitives/src/@kit/svg-icon/svg-icon.tsx:53:5%22 width=%22NaN%22 height=%22NaN%22 viewBox=%220 0 24 24%22%3E%3Cg style=%22display:flex;flex-direction:row;color:rgb(0, 0, 0);font-size:16px;line-height:24px;text-align:start;border-color:rgb(0, 0, 0);border-style:solid;position:static;font-family:Inter;font-weight:400%22%3E%3Ccircle cx=%2212%22 cy=%2212%22 r=%228%22 style=%22display:flex;flex-direction:row;color:rgb(0, 0, 0);font-size:16px;line-height:24px;text-align:start;border-color:rgb(0, 0, 0);border-style:solid;position:static;font-family:Inter;font-weight:400%22%3E%3C/circle%3E%3Cpath d=%22M12 2v7.5M19 5l-5.23 5.23M22 12h-7.5m4.5 7l-5.23-5.23M12 14.5V22m-1.77-8.23L5 19m4.5-7H2m8.23-1.77L5 5%22 style=%22display:flex;flex-direction:row;color:rgb(0, 0, 0);font-size:16px;line-height:24px;text-align:start;border-color:rgb(0, 0, 0);border-style:solid;position:static;font-family:Inter;font-weight:400%22%3E%3C/path%3E%3Ccircle cx=%2212%22 cy=%2212%22 r=%222.5%22 style=%22display:flex;flex-direction:row;color:rgb(0, 0, 0);font-size:16px;line-height:24px;text-align:start;border-color:rgb(0, 0, 0);border-style:solid;position:static;font-family:Inter;font-weight:400%22%3E%3C/circle%3E%3C/g%3E%3C/svg%3E" preserveAspectRatio="none" clip-path="url(#satori_cp-id-0-0-0)" mask="url(#satori_om-id-0-0-0)"/><mask id="satori_om-id-0-0-0-0"><rect x="16" y="13" width="0" height="14" fill="#fff"/></mask><mask id="satori_om-id-0-0-0-0-0"><rect x="16" y="13" width="0" height="14" fill="#fff"/></mask><mask id="satori_om-id-0-0-0-0-1"><rect x="16" y="13" width="0" height="14" fill="#fff"/></mask><mask id="satori_om-id-0-0-0-0-2"><rect x="16" y="13" width="0" height="14" fill="#fff"/></mask><mask id="satori_om-id-0-0-1"><rect x="38" y="20" width="0" height="0" fill="#fff"/></mask><g  ><path fill="rgb(0, 0, 0)" d="M50.7 26L46.4 26L46.4 14.4L50.5 14.4Q51.8 14.4 52.5 14.8Q53.3 15.2 53.7 15.9Q54.1 16.6 54.1 17.4L54.1 17.4Q54.1 18.2 53.8 18.7Q53.6 19.2 53.1 19.5Q52.7 19.8 52.2 19.9L52.2 19.9L52.2 20Q52.8 20.0 53.3 20.4Q53.8 20.7 54.2 21.4Q54.6 22.0 54.6 22.9L54.6 22.9Q54.6 23.8 54.2 24.5Q53.8 25.2 52.9 25.6Q52.0 26 50.7 26L50.7 26ZM47.9 20.7L47.9 24.7L50.6 24.7Q52.0 24.7 52.6 24.2Q53.1 23.6 53.1 22.9L53.1 22.9Q53.1 22.3 52.8 21.8Q52.5 21.3 52.0 21.0Q51.5 20.7 50.7 20.7L50.7 20.7L47.9 20.7ZM47.9 15.7L47.9 19.5L50.5 19.5Q51.1 19.5 51.6 19.2Q52.1 19.0 52.4 18.5Q52.7 18.1 52.7 17.5L52.7 17.5Q52.7 16.7 52.2 16.2Q51.6 15.7 50.5 15.7L50.5 15.7L47.9 15.7ZM59.7 26.1L59.7 26.1Q58.8 26.1 58.1 25.7Q57.4 25.4 57.1 24.6Q56.7 23.9 56.7 22.8L56.7 22.8L56.7 17.3L58.1 17.3L58.1 22.7Q58.1 23.7 58.6 24.3Q59.2 24.8 60.1 24.8L60.1 24.8Q60.7 24.8 61.2 24.6Q61.7 24.3 62.0 23.8Q62.3 23.2 62.3 22.5L62.3 22.5L62.3 17.3L63.7 17.3L63.7 26L62.3 26L62.3 24.4Q62.0 25.2 61.4 25.6L61.4 25.6Q60.6 26.1 59.7 26.1ZM67.8 17.3L69.6 17.3L69.6 18.5L67.8 18.5L67.8 23.7Q67.8 24.3 68.0 24.6Q68.3 24.9 68.8 24.9L68.8 24.9Q69.0 24.9 69.2 24.8Q69.4 24.8 69.6 24.8L69.6 24.8L69.8 26.0Q69.6 26.0 69.3 26.1Q69.1 26.1 68.8 26.1L68.8 26.1Q67.7 26.1 67.0 25.5Q66.4 24.9 66.4 23.8L66.4 23.8L66.4 18.5L65.1 18.5L65.1 17.3L66.4 17.3L66.4 15.2L67.8 15.2L67.8 17.3ZM73.0 17.3L74.8 17.3L74.8 18.5L73.0 18.5L73.0 23.7Q73.0 24.3 73.3 24.6Q73.5 24.9 74.1 24.9L74.1 24.9Q74.2 24.9 74.4 24.8Q74.6 24.8 74.8 24.8L74.8 24.8L75.1 26.0Q74.9 26.0 74.6 26.1Q74.3 26.1 74.0 26.1L74.0 26.1Q72.9 26.1 72.3 25.5Q71.6 24.9 71.6 23.8L71.6 23.8L71.6 18.5L70.3 18.5L70.3 17.3L71.6 17.3L71.6 15.2L73.0 15.2L73.0 17.3ZM80.2 26.2L80.2 26.2Q79 26.2 78.1 25.6Q77.2 25.1 76.7 24.0Q76.2 23.0 76.2 21.7L76.2 21.7Q76.2 20.3 76.7 19.3Q77.2 18.3 78.1 17.7Q79 17.2 80.2 17.2L80.2 17.2Q81.4 17.2 82.3 17.7Q83.2 18.3 83.7 19.3Q84.2 20.3 84.2 21.7L84.2 21.7Q84.2 23.0 83.7 24.0Q83.2 25.1 82.3 25.6Q81.4 26.2 80.2 26.2ZM80.2 24.9L80.2 24.9Q81.1 24.9 81.6 24.5Q82.2 24.0 82.5 23.3Q82.8 22.5 82.8 21.7L82.8 21.7Q82.8 20.8 82.5 20.1Q82.2 19.3 81.6 18.9Q81.1 18.4 80.2 18.4L80.2 18.4Q79.3 18.4 78.8 18.9Q78.2 19.3 77.9 20.1Q77.6 20.8 77.6 21.7L77.6 21.7Q77.6 22.5 77.9 23.3Q78.2 24.0 78.8 24.5Q79.3 24.9 80.2 24.9ZM87.6 20.8L87.6 20.8L87.6 26L86.2 26L86.2 17.3L87.6 17.3L87.6 18.9Q88.0 18.1 88.5 17.7L88.5 17.7Q89.3 17.2 90.3 17.2L90.3 17.2Q91.1 17.2 91.8 17.5Q92.5 17.9 92.8 18.6Q93.2 19.3 93.2 20.5L93.2 20.5L93.2 26L91.8 26L91.8 20.6Q91.8 19.6 91.3 19.0Q90.8 18.4 89.8 18.4L89.8 18.4Q89.2 18.4 88.7 18.7Q88.2 19.0 87.9 19.5Q87.6 20.0 87.6 20.8Z M103.1 26.2L103.1 26.2Q102.3 26.2 101.6 25.9Q100.9 25.7 100.4 25.1Q99.9 24.6 99.8 23.9L99.8 23.9L101.1 23.6Q101.3 24.3 101.8 24.6Q102.4 25.0 103.1 25.0L103.1 25.0Q104.0 25.0 104.6 24.6Q105.1 24.2 105.1 23.6L105.1 23.6Q105.1 23.2 104.8 22.9Q104.5 22.6 103.9 22.4L103.9 22.4L102.4 22.1Q101.2 21.8 100.6 21.2Q100.1 20.6 100.1 19.7L100.1 19.7Q100.1 19.0 100.5 18.4Q100.9 17.8 101.6 17.5Q102.4 17.2 103.3 17.2L103.3 17.2Q104.2 17.2 104.8 17.4Q105.4 17.7 105.8 18.2Q106.2 18.6 106.4 19.3L106.4 19.3L105.2 19.6Q105.0 19.1 104.6 18.7Q104.1 18.4 103.3 18.4L103.3 18.4Q102.5 18.4 102.0 18.7Q101.5 19.1 101.5 19.6L101.5 19.6Q101.5 20.1 101.8 20.4Q102.2 20.7 102.9 20.9L102.9 20.9L104.3 21.2Q105.5 21.5 106.0 22.1Q106.6 22.6 106.6 23.5L106.6 23.5Q106.6 24.3 106.2 24.9Q105.7 25.5 104.9 25.8Q104.2 26.2 103.1 26.2ZM110.3 17.3L112.1 17.3L112.1 18.5L110.3 18.5L110.3 23.7Q110.3 24.3 110.5 24.6Q110.7 24.9 111.3 24.9L111.3 24.9Q111.4 24.9 111.6 24.8Q111.8 24.8 112.0 24.8L112.0 24.8L112.3 26.0Q112.1 26.0 111.8 26.1Q111.5 26.1 111.3 26.1L111.3 26.1Q110.1 26.1 109.5 25.5Q108.9 24.9 108.9 23.8L108.9 23.8L108.9 18.5L107.5 18.5L107.5 17.3L108.9 17.3L108.9 15.2L110.3 15.2L110.3 17.3ZM116.3 26.2L116.3 26.2Q115.5 26.2 114.8 25.9Q114.1 25.6 113.7 25.0Q113.3 24.4 113.3 23.5L113.3 23.5Q113.3 22.8 113.6 22.3Q113.9 21.8 114.4 21.6Q114.9 21.3 115.5 21.2Q116.1 21.0 116.7 20.9L116.7 20.9Q117.5 20.8 118 20.8Q118.5 20.7 118.7 20.6Q119.0 20.5 119.0 20.1L119.0 20.1L119.0 20.1Q119.0 19.6 118.8 19.2Q118.6 18.8 118.2 18.6Q117.8 18.4 117.1 18.4L117.1 18.4Q116.5 18.4 116.1 18.6Q115.6 18.8 115.3 19.1Q115.1 19.4 114.9 19.7L114.9 19.7L113.6 19.2Q113.9 18.4 114.5 18.0Q115.1 17.5 115.7 17.3Q116.4 17.2 117.1 17.2L117.1 17.2Q117.5 17.2 118.1 17.3Q118.7 17.4 119.2 17.7Q119.7 18.0 120.0 18.6Q120.4 19.2 120.4 20.2L120.4 20.2L120.4 26L119.0 26L119.0 24.8L118.9 24.8Q118.8 25.1 118.4 25.4Q118.1 25.8 117.6 26.0Q117.0 26.2 116.3 26.2ZM116.5 25.0L116.5 25.0Q117.3 25.0 117.9 24.7Q118.4 24.4 118.7 23.9Q119.0 23.4 119.0 22.8L119.0 22.8L119.0 21.6Q118.9 21.7 118.6 21.8Q118.3 21.9 117.9 22.0Q117.6 22.0 117.2 22.1Q116.9 22.1 116.7 22.1L116.7 22.1Q116.2 22.2 115.7 22.3Q115.3 22.5 115.0 22.8Q114.7 23.1 114.7 23.6L114.7 23.6Q114.7 24.0 115.0 24.3Q115.2 24.6 115.6 24.8Q116.0 25.0 116.5 25.0ZM124.3 26L122.8 26L122.8 17.3L124.2 17.3L124.2 18.6L124.3 18.6Q124.5 17.9 125.2 17.5Q125.8 17.1 126.6 17.1L126.6 17.1Q126.7 17.1 126.9 17.1Q127.1 17.2 127.3 17.2L127.3 17.2L127.3 18.6Q127.2 18.6 127.0 18.5Q126.7 18.5 126.4 18.5L126.4 18.5Q125.8 18.5 125.3 18.8Q124.8 19.0 124.5 19.5Q124.3 19.9 124.3 20.5L124.3 20.5L124.3 26ZM130.5 17.3L132.3 17.3L132.3 18.5L130.5 18.5L130.5 23.7Q130.5 24.3 130.7 24.6Q131.0 24.9 131.5 24.9L131.5 24.9Q131.7 24.9 131.9 24.8Q132.1 24.8 132.3 24.8L132.3 24.8L132.5 26.0Q132.3 26.0 132.1 26.1Q131.8 26.1 131.5 26.1L131.5 26.1Q130.4 26.1 129.7 25.5Q129.1 24.9 129.1 23.8L129.1 23.8L129.1 18.5L127.8 18.5L127.8 17.3L129.1 17.3L129.1 15.2L130.5 15.2L130.5 17.3Z "/></g><mask id="satori_om-id-0-1"><rect x="4" y="56" width="142" height="40" fill="#fff"/></mask><path x="4" y="56" width="142" height="40" fill="rgba(246, 246, 246, 1)" d="M12,56 h126 a8,8 0 0 1 8,8 v24 a8,8 0 0 1 -8,8 h-126 a8,8 0 0 1 -8,-8 v-24 a8,8 0 0 1 8,-8"/><g  ><path fill="rgb(0, 0, 0)" d="M23.7 82L19.4 82L19.4 70.4L23.5 70.4Q24.8 70.4 25.5 70.8Q26.3 71.2 26.7 71.9Q27.1 72.6 27.1 73.4L27.1 73.4Q27.1 74.2 26.8 74.7Q26.6 75.2 26.1 75.5Q25.7 75.8 25.2 75.9L25.2 75.9L25.2 76Q25.8 76.0 26.3 76.4Q26.8 76.7 27.2 77.4Q27.6 78.0 27.6 78.9L27.6 78.9Q27.6 79.8 27.2 80.5Q26.8 81.2 25.9 81.6Q25.0 82 23.7 82L23.7 82ZM20.9 76.7L20.9 80.7L23.6 80.7Q25.0 80.7 25.6 80.2Q26.1 79.6 26.1 78.9L26.1 78.9Q26.1 78.3 25.8 77.8Q25.5 77.3 25.0 77.0Q24.5 76.7 23.7 76.7L23.7 76.7L20.9 76.7ZM20.9 71.7L20.9 75.5L23.5 75.5Q24.1 75.5 24.6 75.2Q25.1 75.0 25.4 74.5Q25.7 74.1 25.7 73.5L25.7 73.5Q25.7 72.7 25.2 72.2Q24.6 71.7 23.5 71.7L23.5 71.7L20.9 71.7ZM32.7 82.1L32.7 82.1Q31.8 82.1 31.1 81.7Q30.4 81.4 30.1 80.6Q29.7 79.9 29.7 78.8L29.7 78.8L29.7 73.3L31.1 73.3L31.1 78.7Q31.1 79.7 31.6 80.3Q32.2 80.8 33.1 80.8L33.1 80.8Q33.7 80.8 34.2 80.6Q34.7 80.3 35.0 79.8Q35.3 79.2 35.3 78.5L35.3 78.5L35.3 73.3L36.7 73.3L36.7 82L35.3 82L35.3 80.4Q35.0 81.2 34.4 81.6L34.4 81.6Q33.6 82.1 32.7 82.1ZM40.8 73.3L42.6 73.3L42.6 74.5L40.8 74.5L40.8 79.7Q40.8 80.3 41.0 80.6Q41.3 80.9 41.8 80.9L41.8 80.9Q42.0 80.9 42.2 80.8Q42.4 80.8 42.6 80.8L42.6 80.8L42.8 82.0Q42.6 82.0 42.3 82.1Q42.1 82.1 41.8 82.1L41.8 82.1Q40.7 82.1 40.0 81.5Q39.4 80.9 39.4 79.8L39.4 79.8L39.4 74.5L38.1 74.5L38.1 73.3L39.4 73.3L39.4 71.2L40.8 71.2L40.8 73.3ZM46.0 73.3L47.8 73.3L47.8 74.5L46.0 74.5L46.0 79.7Q46.0 80.3 46.3 80.6Q46.5 80.9 47.1 80.9L47.1 80.9Q47.2 80.9 47.4 80.8Q47.6 80.8 47.8 80.8L47.8 80.8L48.1 82.0Q47.9 82.0 47.6 82.1Q47.3 82.1 47.0 82.1L47.0 82.1Q45.9 82.1 45.3 81.5Q44.6 80.9 44.6 79.8L44.6 79.8L44.6 74.5L43.3 74.5L43.3 73.3L44.6 73.3L44.6 71.2L46.0 71.2L46.0 73.3ZM53.2 82.2L53.2 82.2Q52 82.2 51.1 81.6Q50.2 81.1 49.7 80.0Q49.2 79.0 49.2 77.7L49.2 77.7Q49.2 76.3 49.7 75.3Q50.2 74.3 51.1 73.7Q52 73.2 53.2 73.2L53.2 73.2Q54.4 73.2 55.3 73.7Q56.2 74.3 56.7 75.3Q57.2 76.3 57.2 77.7L57.2 77.7Q57.2 79.0 56.7 80.0Q56.2 81.1 55.3 81.6Q54.4 82.2 53.2 82.2ZM53.2 80.9L53.2 80.9Q54.1 80.9 54.6 80.5Q55.2 80.0 55.5 79.3Q55.8 78.5 55.8 77.7L55.8 77.7Q55.8 76.8 55.5 76.1Q55.2 75.3 54.6 74.9Q54.1 74.4 53.2 74.4L53.2 74.4Q52.3 74.4 51.8 74.9Q51.2 75.3 50.9 76.1Q50.6 76.8 50.6 77.7L50.6 77.7Q50.6 78.5 50.9 79.3Q51.2 80.0 51.8 80.5Q52.3 80.9 53.2 80.9ZM60.6 76.8L60.6 76.8L60.6 82L59.2 82L59.2 73.3L60.6 73.3L60.6 74.9Q61.0 74.1 61.5 73.7L61.5 73.7Q62.3 73.2 63.3 73.2L63.3 73.2Q64.1 73.2 64.8 73.5Q65.5 73.9 65.8 74.6Q66.2 75.3 66.2 76.5L66.2 76.5L66.2 82L64.8 82L64.8 76.6Q64.8 75.6 64.3 75.0Q63.8 74.4 62.8 74.4L62.8 74.4Q62.2 74.4 61.7 74.7Q61.2 75.0 60.9 75.5Q60.6 76.0 60.6 76.8Z M76.9 82.2L76.9 82.2Q75.6 82.2 74.7 81.6Q73.8 81.1 73.3 80.1Q72.8 79.0 72.8 77.7Q72.8 76.4 73.2 75.3Q73.7 74.3 74.6 73.7Q75.5 73.2 76.7 73.2L76.7 73.2Q77.4 73.2 78.1 73.4Q78.7 73.6 79.3 74.1Q79.8 74.6 80.2 75.5Q80.5 76.3 80.5 77.5L80.5 77.5L80.5 78.1L74.2 78.1Q74.2 79.0 74.5 79.6L74.5 79.6Q74.9 80.2 75.5 80.6Q76.1 80.9 76.9 80.9L76.9 80.9Q77.4 80.9 77.8 80.8Q78.2 80.6 78.5 80.3Q78.8 80.0 79.0 79.6L79.0 79.6L80.4 80.0Q80.1 80.6 79.7 81.1Q79.2 81.6 78.5 81.9Q77.8 82.2 76.9 82.2ZM74.2 76.9L74.2 76.9L79.1 76.9Q79.0 76.3 78.8 75.8L78.8 75.8Q78.5 75.2 78.0 74.8Q77.5 74.4 76.7 74.4Q75.9 74.4 75.3 74.8Q74.8 75.2 74.5 75.8L74.5 75.8Q74.2 76.3 74.2 76.9ZM83.9 76.8L83.9 76.8L83.9 82L82.5 82L82.5 73.3L83.9 73.3L83.9 74.9Q84.2 74.1 84.8 73.7L84.8 73.7Q85.5 73.2 86.5 73.2L86.5 73.2Q87.4 73.2 88.1 73.5Q88.8 73.9 89.1 74.6Q89.5 75.3 89.5 76.5L89.5 76.5L89.5 82L88.1 82L88.1 76.6Q88.1 75.6 87.6 75.0Q87.0 74.4 86.1 74.4L86.1 74.4Q85.5 74.4 85.0 74.7Q84.5 75.0 84.2 75.5Q83.9 76.0 83.9 76.8ZM95.2 82.2L95.2 82.2Q94.1 82.2 93.3 81.6Q92.5 81.1 92.0 80.1Q91.5 79.0 91.5 77.7L91.5 77.7Q91.5 76.3 92.0 75.3Q92.5 74.3 93.3 73.7Q94.2 73.2 95.2 73.2L95.2 73.2Q96.1 73.2 96.6 73.4Q97.1 73.7 97.4 74.1Q97.6 74.4 97.8 74.7L97.8 74.7L97.9 74.7L97.9 70.4L99.3 70.4L99.3 82L97.9 82L97.9 80.6L97.8 80.6Q97.6 80.9 97.4 81.3Q97.1 81.6 96.6 81.9Q96.1 82.2 95.2 82.2ZM95.4 80.9L95.4 80.9Q96.2 80.9 96.8 80.5Q97.3 80.1 97.6 79.4Q97.9 78.6 97.9 77.6L97.9 77.6Q97.9 76.7 97.6 75.9Q97.3 75.2 96.8 74.8Q96.3 74.4 95.4 74.4L95.4 74.4Q94.6 74.4 94.1 74.8Q93.5 75.3 93.2 76.0Q93.0 76.7 93.0 77.6L93.0 77.6Q93.0 78.6 93.2 79.3Q93.5 80.0 94.1 80.5Q94.6 80.9 95.4 80.9Z "/></g><clipPath id="satori_cp-id-0-1-1"><rect x="110" y="69" width="14" height="14"/></clipPath><mask id="satori_om-id-0-1-1"><rect x="110" y="69" width="14" height="14" fill="#fff"/></mask><image x="110" y="69" width="14" height="14" href="data:image/svg+xml;utf8,%3Csvg  class=%22onwo-icon%22 fill=%22none%22 xmlns=%22http://www.w3.org/2000/svg%22 q:container=%22html%22 :=%2234_0%22 dataQwikInspector=%22/@fs/home/emilien/projects/onwo-ui/packages/primitives/src/@kit/svg-icon/svg-icon.tsx:53:5%22 width=%22NaN%22 height=%22NaN%22 viewBox=%220 0 24 24%22%3E%3Cg style=%22display:flex;flex-direction:row;color:rgb(0, 0, 0);font-size:16px;line-height:24px;text-align:start;border-color:rgb(0, 0, 0);border-style:solid;position:static;font-family:Inter;font-weight:400%22%3E%3Ccircle cx=%2212%22 cy=%2212%22 r=%228%22 style=%22display:flex;flex-direction:row;color:rgb(0, 0, 0);font-size:16px;line-height:24px;text-align:start;border-color:rgb(0, 0, 0);border-style:solid;position:static;font-family:Inter;font-weight:400%22%3E%3C/circle%3E%3Cpath d=%22M12 2v7.5M19 5l-5.23 5.23M22 12h-7.5m4.5 7l-5.23-5.23M12 14.5V22m-1.77-8.23L5 19m4.5-7H2m8.23-1.77L5 5%22 style=%22display:flex;flex-direction:row;color:rgb(0, 0, 0);font-size:16px;line-height:24px;text-align:start;border-color:rgb(0, 0, 0);border-style:solid;position:static;font-family:Inter;font-weight:400%22%3E%3C/path%3E%3Ccircle cx=%2212%22 cy=%2212%22 r=%222.5%22 style=%22display:flex;flex-direction:row;color:rgb(0, 0, 0);font-size:16px;line-height:24px;text-align:start;border-color:rgb(0, 0, 0);border-style:solid;position:static;font-family:Inter;font-weight:400%22%3E%3C/circle%3E%3C/g%3E%3C/svg%3E" preserveAspectRatio="none" clip-path="url(#satori_cp-id-0-1-1)" mask="url(#satori_om-id-0-1-1)"/><mask id="satori_om-id-0-1-1-0"><rect x="110" y="69" width="0" height="14" fill="#fff"/></mask><mask id="satori_om-id-0-1-1-0-0"><rect x="110" y="69" width="0" height="14" fill="#fff"/></mask><mask id="satori_om-id-0-1-1-0-1"><rect x="110" y="69" width="0" height="14" fill="#fff"/></mask><mask id="satori_om-id-0-1-1-0-2"><rect x="110" y="69" width="0" height="14" fill="#fff"/></mask><mask id="satori_om-id-0-1-2"><rect x="132" y="76" width="0" height="0" fill="#fff"/></mask></svg>