<svg width="354" height="40" viewBox="0 0 354 40" xmlns="http://www.w3.org/2000/svg"><mask id="satori_om-id"><rect x="0" y="0" width="354" height="40" fill="#fff"/></mask><mask id="satori_om-id-0"><rect x="0" y="0" width="354" height="40" fill="#fff"/></mask><mask id="satori_om-id-0-0"><rect x="16" y="4" width="69" height="32" fill="#fff"/></mask><g  ><path fill="rgb(0, 0, 0)" d="M30.5 25L29.2 25L29.2 14.8L31.1 14.8L33.6 21.2Q33.7 21.5 33.8 21.8Q33.9 22.1 34.0 22.5Q34.2 22.9 34.3 23.3L34.3 23.3Q34.3 23.4 34.3 23.6L34.3 23.6Q34.4 23.5 34.4 23.4L34.4 23.4Q34.5 23.0 34.6 22.6Q34.8 22.2 34.9 21.8Q35 21.5 35.1 21.2L35.1 21.2L37.6 14.8L39.4 14.8L39.4 25L38.1 25L38.1 19.2Q38.1 18.9 38.1 18.5Q38.1 18.1 38.2 17.6Q38.2 17.2 38.2 16.7L38.2 16.7Q38.2 16.5 38.2 16.2L38.2 16.2Q38.1 16.5 38.0 16.8L38.0 16.8Q37.8 17.3 37.7 17.7Q37.5 18.2 37.4 18.6Q37.3 18.9 37.2 19.2L37.2 19.2L34.9 25L33.8 25L31.4 19.2Q31.3 18.9 31.2 18.6Q31.1 18.2 30.9 17.8Q30.8 17.3 30.6 16.8L30.6 16.8Q30.5 16.5 30.4 16.2L30.4 16.2Q30.4 16.4 30.4 16.7L30.4 16.7Q30.4 17.1 30.4 17.6Q30.5 18.0 30.5 18.4Q30.5 18.8 30.5 19.2L30.5 19.2L30.5 25ZM44.3 25.1L44.3 25.1Q43.5 25.1 43.0 24.8Q42.4 24.5 42.1 23.8Q41.7 23.2 41.7 22.2L41.7 22.2L41.7 17.4L43.0 17.4L43.0 22.1Q43.0 23.0 43.4 23.5Q43.9 24.0 44.7 24.0L44.7 24.0Q45.2 24.0 45.7 23.7Q46.1 23.5 46.4 23.0Q46.6 22.6 46.6 21.9L46.6 21.9L46.6 17.4L47.8 17.4L47.8 25L46.7 25L46.7 23.6Q46.3 24.3 45.8 24.7L45.8 24.7Q45.2 25.1 44.3 25.1ZM52.6 25.2L52.6 25.2Q51.8 25.2 51.2 24.9Q50.6 24.7 50.2 24.3Q49.8 23.8 49.7 23.1L49.7 23.1L50.8 22.9Q51.0 23.5 51.5 23.8Q51.9 24.1 52.6 24.1L52.6 24.1Q53.4 24.1 53.9 23.7Q54.3 23.4 54.3 22.9L54.3 22.9Q54.3 22.5 54.1 22.3Q53.8 22.0 53.2 21.9L53.2 21.9L51.9 21.6Q50.9 21.3 50.4 20.8Q49.9 20.3 49.9 19.5L49.9 19.5Q49.9 18.8 50.3 18.3Q50.6 17.8 51.3 17.5Q51.9 17.3 52.7 17.3L52.7 17.3Q53.5 17.3 54.1 17.5Q54.6 17.7 55.0 18.1Q55.3 18.6 55.5 19.1L55.5 19.1L54.4 19.4Q54.2 19.0 53.8 18.6Q53.5 18.3 52.7 18.3L52.7 18.3Q52.0 18.3 51.6 18.6Q51.1 18.9 51.1 19.4L51.1 19.4Q51.1 19.8 51.4 20.1Q51.8 20.4 52.4 20.5L52.4 20.5L53.6 20.8Q54.6 21.0 55.1 21.5Q55.6 22.1 55.6 22.8L55.6 22.8Q55.6 23.5 55.2 24.0Q54.9 24.6 54.2 24.9Q53.5 25.2 52.6 25.2ZM58.6 25L57.4 25L57.4 17.4L58.6 17.4L58.6 25ZM58.0 16.1L58.0 16.1Q57.7 16.1 57.4 15.9Q57.2 15.6 57.2 15.3L57.2 15.3Q57.2 15.0 57.4 14.7Q57.7 14.5 58.0 14.5L58.0 14.5Q58.4 14.5 58.6 14.7Q58.9 15.0 58.9 15.3L58.9 15.3Q58.9 15.6 58.6 15.9Q58.4 16.1 58.0 16.1ZM63.9 25.2L63.9 25.2Q62.9 25.2 62.1 24.7Q61.3 24.2 60.9 23.3Q60.4 22.4 60.4 21.2L60.4 21.2Q60.4 20.0 60.9 19.1Q61.3 18.2 62.1 17.8Q62.9 17.3 63.9 17.3L63.9 17.3Q64.4 17.3 64.9 17.4Q65.4 17.5 65.8 17.8Q66.2 18.1 66.5 18.5Q66.8 18.9 67.0 19.4L67.0 19.4L65.8 19.7Q65.7 19.4 65.6 19.2Q65.4 18.9 65.1 18.7Q64.9 18.6 64.6 18.5Q64.3 18.4 63.9 18.4L63.9 18.4Q63.1 18.4 62.6 18.8Q62.1 19.2 61.9 19.8Q61.7 20.5 61.7 21.2L61.7 21.2Q61.7 22.0 61.9 22.6Q62.1 23.3 62.6 23.7Q63.1 24.1 63.9 24.1L63.9 24.1Q64.3 24.1 64.6 24.0Q64.9 23.9 65.2 23.7Q65.4 23.5 65.6 23.2Q65.8 23.0 65.8 22.7L65.8 22.7L67.0 23.0Q66.9 23.5 66.6 23.9Q66.3 24.3 65.9 24.6Q65.5 24.9 65.0 25.0Q64.5 25.2 63.9 25.2Z "/></g><mask id="satori_om-id-0-1"><rect x="89" y="4" width="48" height="32" fill="#fff"/></mask><g  ><path fill="rgb(0, 0, 0)" d="M103.5 25L102.2 25L102.2 14.8L108.4 14.8L108.4 16.0L103.5 16.0L103.5 19.4L107.9 19.4L107.9 20.6L103.5 20.6L103.5 25ZM111.6 25L110.3 25L110.3 17.4L111.6 17.4L111.6 25ZM111.0 16.1L111.0 16.1Q110.6 16.1 110.4 15.9Q110.1 15.6 110.1 15.3L110.1 15.3Q110.1 15.0 110.4 14.7Q110.6 14.5 111.0 14.5L111.0 14.5Q111.3 14.5 111.6 14.7Q111.8 15.0 111.8 15.3L111.8 15.3Q111.8 15.6 111.6 15.9Q111.3 16.1 111.0 16.1ZM113.7 14.8L115.0 14.8L115.0 25L113.7 25L113.7 14.8ZM120.3 25.2L120.3 25.2Q119.2 25.2 118.4 24.7Q117.6 24.2 117.2 23.3Q116.8 22.4 116.8 21.2Q116.8 20.1 117.2 19.2Q117.6 18.3 118.4 17.8Q119.2 17.3 120.2 17.3L120.2 17.3Q120.8 17.3 121.4 17.5Q122.0 17.7 122.5 18.1Q123.0 18.6 123.2 19.3Q123.5 20.0 123.5 21.1L123.5 21.1L123.5 21.6L118.0 21.6Q118.0 22.3 118.3 22.9L118.3 22.9Q118.6 23.5 119.1 23.8Q119.6 24.1 120.3 24.1L120.3 24.1Q120.8 24.1 121.2 23.9Q121.5 23.8 121.8 23.5Q122.1 23.3 122.2 22.9L122.2 22.9L123.4 23.2Q123.2 23.8 122.8 24.2Q122.4 24.7 121.8 24.9Q121.1 25.2 120.3 25.2ZM118.0 20.6L118.0 20.6L122.3 20.6Q122.2 20.0 122.1 19.6L122.1 19.6Q121.8 19.0 121.4 18.7Q120.9 18.4 120.2 18.4Q119.5 18.4 119.0 18.7Q118.5 19.0 118.3 19.6L118.3 19.6Q118.0 20.0 118.0 20.6Z "/></g><mask id="satori_om-id-0-2"><rect x="141" y="4" width="51" height="32" fill="#fff"/></mask><g  ><path fill="rgb(0, 0, 0)" d="M160.5 25L154.2 25L154.2 14.8L160.4 14.8L160.4 16.0L155.5 16.0L155.5 19.3L160.1 19.3L160.1 20.4L155.5 20.4L155.5 23.9L160.5 23.9L160.5 25ZM165.4 25.2L165.4 25.2Q164.4 25.2 163.7 24.7Q162.9 24.2 162.5 23.3Q162.1 22.4 162.1 21.2L162.1 21.2Q162.1 20.0 162.5 19.1Q163.0 18.2 163.7 17.7Q164.4 17.3 165.4 17.3L165.4 17.3Q166.1 17.3 166.5 17.5Q167.0 17.8 167.2 18.1Q167.5 18.4 167.6 18.6L167.6 18.6L167.7 18.6L167.7 14.8L168.9 14.8L168.9 25L167.7 25L167.7 23.8L167.6 23.8Q167.5 24.0 167.2 24.3Q167.0 24.7 166.5 24.9Q166.1 25.2 165.4 25.2ZM165.5 24.1L165.5 24.1Q166.2 24.1 166.7 23.7Q167.2 23.3 167.4 22.7Q167.7 22.0 167.7 21.2L167.7 21.2Q167.7 20.3 167.4 19.7Q167.2 19.1 166.7 18.7Q166.2 18.4 165.5 18.4L165.5 18.4Q164.8 18.4 164.3 18.7Q163.9 19.1 163.6 19.8Q163.4 20.4 163.4 21.2L163.4 21.2Q163.4 22.0 163.6 22.6Q163.9 23.3 164.3 23.7Q164.8 24.1 165.5 24.1ZM172.3 25L171.1 25L171.1 17.4L172.3 17.4L172.3 25ZM171.7 16.1L171.7 16.1Q171.3 16.1 171.1 15.9Q170.8 15.6 170.8 15.3L170.8 15.3Q170.8 15.0 171.1 14.7Q171.3 14.5 171.7 14.5L171.7 14.5Q172.0 14.5 172.3 14.7Q172.6 15.0 172.6 15.3L172.6 15.3Q172.6 15.6 172.3 15.9Q172.0 16.1 171.7 16.1ZM175.9 17.4L177.5 17.4L177.5 18.4L175.9 18.4L175.9 23.0Q175.9 23.5 176.1 23.8Q176.3 24.0 176.8 24.0L176.8 24.0Q176.9 24.0 177.1 24.0Q177.3 23.9 177.4 23.9L177.4 23.9L177.7 25.0Q177.5 25.0 177.2 25.1Q177.0 25.1 176.8 25.1L176.8 25.1Q175.8 25.1 175.2 24.6Q174.7 24.0 174.7 23.1L174.7 23.1L174.7 18.4L173.5 18.4L173.5 17.4L174.7 17.4L174.7 15.5L175.9 15.5L175.9 17.4Z "/></g><mask id="satori_om-id-0-3"><rect x="196" y="4" width="57" height="32" fill="#fff"/></mask><g  ><path fill="rgb(0, 0, 0)" d="M213.6 25L212.1 25L208.4 14.8L209.7 14.8L211.9 20.9Q212.1 21.4 212.3 22.2L212.3 22.2Q212.6 23.0 212.9 23.9L212.9 23.9Q213.1 22.9 213.4 22.2L213.4 22.2Q213.6 21.4 213.8 20.9L213.8 20.9L215.9 14.8L217.3 14.8L213.6 25ZM220.0 25L218.7 25L218.7 17.4L220.0 17.4L220.0 25ZM219.4 16.1L219.4 16.1Q219.0 16.1 218.8 15.9Q218.5 15.6 218.5 15.3L218.5 15.3Q218.5 15.0 218.8 14.7Q219.0 14.5 219.4 14.5L219.4 14.5Q219.7 14.5 220.0 14.7Q220.2 15.0 220.2 15.3L220.2 15.3Q220.2 15.6 220.0 15.9Q219.7 16.1 219.4 16.1ZM225.3 25.2L225.3 25.2Q224.2 25.2 223.4 24.7Q222.6 24.2 222.2 23.3Q221.8 22.4 221.8 21.2Q221.8 20.1 222.2 19.2Q222.6 18.3 223.4 17.8Q224.2 17.3 225.2 17.3L225.2 17.3Q225.8 17.3 226.4 17.5Q227.0 17.7 227.5 18.1Q228.0 18.6 228.2 19.3Q228.5 20.0 228.5 21.1L228.5 21.1L228.5 21.6L223.0 21.6Q223.0 22.3 223.3 22.9L223.3 22.9Q223.6 23.5 224.1 23.8Q224.7 24.1 225.3 24.1L225.3 24.1Q225.8 24.1 226.2 23.9Q226.5 23.8 226.8 23.5Q227.1 23.3 227.2 22.9L227.2 22.9L228.4 23.2Q228.2 23.8 227.8 24.2Q227.4 24.7 226.8 24.9Q226.1 25.2 225.3 25.2ZM223.0 20.6L223.0 20.6L227.3 20.6Q227.2 20.0 227.1 19.6L227.1 19.6Q226.8 19.0 226.4 18.7Q225.9 18.4 225.2 18.4Q224.5 18.4 224.0 18.7Q223.5 19.0 223.3 19.6L223.3 19.6Q223.0 20.0 223.0 20.6ZM233.2 25L232.0 25L229.7 17.4L231.0 17.4L231.9 20.7Q232.1 21.4 232.3 22.2L232.3 22.2Q232.5 22.9 232.7 23.7L232.7 23.7Q232.8 22.9 233.0 22.3L233.0 22.3Q233.2 21.4 233.4 20.7L233.4 20.7L234.3 17.4L235.6 17.4L236.5 20.7Q236.7 21.4 236.9 22.3L236.9 22.3Q237.1 22.9 237.2 23.7L237.2 23.7Q237.4 22.9 237.5 22.3L237.5 22.3Q237.8 21.4 238.0 20.7L238.0 20.7L238.9 17.4L240.2 17.4L237.9 25L236.6 25L235.7 21.5Q235.5 21.0 235.4 20.5Q235.2 19.9 235.1 19.3L235.1 19.3Q235.0 19.1 234.9 18.8L234.9 18.8Q234.9 19.0 234.8 19.3L234.8 19.3Q234.7 19.9 234.5 20.5Q234.4 21.0 234.2 21.5L234.2 21.5L233.2 25Z "/></g><mask id="satori_om-id-0-4"><rect x="257" y="4" width="81" height="32" fill="#fff"/></mask><g  ><path fill="rgb(0, 0, 0)" d="M270.7 25L269.4 25L273.1 14.8L274.6 14.8L278.3 25L276.9 25L275.9 22.2L271.7 22.2L270.7 25ZM272.1 21.0L275.5 21.0L274.8 19.0Q274.6 18.4 274.3 17.6L274.3 17.6Q274.1 16.9 273.8 15.9L273.8 15.9Q273.5 16.9 273.3 17.6L273.3 17.6Q273.0 18.4 272.8 19.0L272.8 19.0L272.1 21.0ZM282.8 25.2L282.8 25.2Q281.8 25.2 281.0 24.7Q280.2 24.2 279.8 23.3Q279.4 22.4 279.4 21.2L279.4 21.2Q279.4 20.0 279.8 19.1Q280.2 18.2 281.0 17.8Q281.8 17.3 282.8 17.3L282.8 17.3Q283.4 17.3 283.9 17.4Q284.4 17.5 284.8 17.8Q285.2 18.1 285.5 18.5Q285.8 18.9 285.9 19.4L285.9 19.4L284.8 19.7Q284.7 19.4 284.5 19.2Q284.3 18.9 284.1 18.7Q283.9 18.6 283.5 18.5Q283.2 18.4 282.8 18.4L282.8 18.4Q282.1 18.4 281.6 18.8Q281.1 19.2 280.9 19.8Q280.6 20.5 280.6 21.2L280.6 21.2Q280.6 22.0 280.9 22.6Q281.1 23.3 281.6 23.7Q282.1 24.1 282.8 24.1L282.8 24.1Q283.2 24.1 283.6 24.0Q283.9 23.9 284.1 23.7Q284.4 23.5 284.5 23.2Q284.7 23.0 284.8 22.7L284.8 22.7L286.0 23.0Q285.8 23.5 285.5 23.9Q285.2 24.3 284.8 24.6Q284.4 24.9 283.9 25.0Q283.4 25.2 282.8 25.2ZM290.8 25.2L290.8 25.2Q289.8 25.2 289.0 24.7Q288.2 24.2 287.8 23.3Q287.4 22.4 287.4 21.2L287.4 21.2Q287.4 20.0 287.8 19.1Q288.2 18.2 289.0 17.8Q289.8 17.3 290.8 17.3L290.8 17.3Q291.4 17.3 291.9 17.4Q292.4 17.5 292.8 17.8Q293.2 18.1 293.5 18.5Q293.8 18.9 293.9 19.4L293.9 19.4L292.8 19.7Q292.7 19.4 292.5 19.2Q292.3 18.9 292.1 18.7Q291.9 18.6 291.5 18.5Q291.2 18.4 290.8 18.4L290.8 18.4Q290.1 18.4 289.6 18.8Q289.1 19.2 288.9 19.8Q288.6 20.5 288.6 21.2L288.6 21.2Q288.6 22.0 288.9 22.6Q289.1 23.3 289.6 23.7Q290.1 24.1 290.8 24.1L290.8 24.1Q291.2 24.1 291.6 24.0Q291.9 23.9 292.1 23.7Q292.4 23.5 292.5 23.2Q292.7 23.0 292.8 22.7L292.8 22.7L294.0 23.0Q293.8 23.5 293.5 23.9Q293.2 24.3 292.8 24.6Q292.4 24.9 291.9 25.0Q291.4 25.2 290.8 25.2ZM298.8 25.2L298.8 25.2Q297.8 25.2 297.0 24.7Q296.2 24.2 295.8 23.3Q295.4 22.4 295.4 21.2L295.4 21.2Q295.4 20.0 295.8 19.1Q296.2 18.2 297.0 17.8Q297.8 17.3 298.8 17.3L298.8 17.3Q299.9 17.3 300.7 17.8Q301.5 18.2 301.9 19.1Q302.3 20.0 302.3 21.2L302.3 21.2Q302.3 22.4 301.9 23.3Q301.5 24.2 300.7 24.7Q299.9 25.2 298.8 25.2ZM298.8 24.1L298.8 24.1Q299.6 24.1 300.1 23.7Q300.6 23.3 300.9 22.6Q301.1 22.0 301.1 21.2L301.1 21.2Q301.1 20.5 300.9 19.8Q300.6 19.2 300.1 18.8Q299.6 18.4 298.8 18.4L298.8 18.4Q298.1 18.4 297.6 18.8Q297.1 19.2 296.9 19.8Q296.6 20.5 296.6 21.2L296.6 21.2Q296.6 22.0 296.9 22.6Q297.1 23.3 297.6 23.7Q298.1 24.1 298.8 24.1ZM306.7 25.1L306.7 25.1Q305.9 25.1 305.4 24.8Q304.8 24.5 304.5 23.8Q304.1 23.2 304.1 22.2L304.1 22.2L304.1 17.4L305.4 17.4L305.4 22.1Q305.4 23.0 305.8 23.5Q306.3 24.0 307.1 24.0L307.1 24.0Q307.6 24.0 308.1 23.7Q308.5 23.5 308.8 23.0Q309.0 22.6 309.0 21.9L309.0 21.9L309.0 17.4L310.2 17.4L310.2 25L309.1 25L309.1 23.6Q308.7 24.3 308.2 24.7L308.2 24.7Q307.6 25.1 306.7 25.1ZM313.6 20.4L313.6 20.4L313.6 25L312.4 25L312.4 17.4L313.6 17.4L313.6 18.8Q313.9 18.1 314.4 17.7L314.4 17.7Q315.1 17.3 315.9 17.3L315.9 17.3Q316.7 17.3 317.3 17.6Q317.9 17.9 318.2 18.5Q318.5 19.2 318.5 20.1L318.5 20.1L318.5 25L317.3 25L317.3 20.2Q317.3 19.4 316.8 18.9Q316.4 18.4 315.6 18.4L315.6 18.4Q315.0 18.4 314.6 18.6Q314.1 18.8 313.9 19.3Q313.6 19.8 313.6 20.4ZM322.1 17.4L323.7 17.4L323.7 18.4L322.1 18.4L322.1 23.0Q322.1 23.5 322.3 23.8Q322.5 24.0 323.0 24.0L323.0 24.0Q323.1 24.0 323.3 24.0Q323.5 23.9 323.6 23.9L323.6 23.9L323.9 25.0Q323.7 25.0 323.5 25.1Q323.2 25.1 323.0 25.1L323.0 25.1Q322.0 25.1 321.4 24.6Q320.9 24.0 320.9 23.1L320.9 23.1L320.9 18.4L319.7 18.4L319.7 17.4L320.9 17.4L320.9 15.5L322.1 15.5L322.1 17.4Z "/></g></svg>