<svg width="16" height="16" viewBox="0 0 16 16" xmlns="http://www.w3.org/2000/svg">
<path d="M8 0C12.4183 2.02415e-05 16 3.58175 16 8C16 12.4183 12.4183 16 8 16C3.58172 16 0 12.4183 0 8V2.23145C0.000156843 0.999115 0.999106 0.000121004 2.23145 0H8ZM5.52148 2.47559C5.40903 2.09252 4.86629 2.09246 4.75391 2.47559L4.25488 4.18262C4.2166 4.31352 4.11428 4.41675 3.9834 4.45508L2.27637 4.9541C1.89274 5.06629 1.89274 5.60949 2.27637 5.72168L3.9834 6.2207C4.11415 6.25903 4.21655 6.36143 4.25488 6.49219L4.75391 8.19922C4.8661 8.58285 5.40929 8.58285 5.52148 8.19922L6.02051 6.49219C6.05884 6.36131 6.16207 6.25898 6.29297 6.2207L8 5.72168C8.38314 5.6093 8.38309 5.06654 8 4.9541L6.29297 4.45508C6.16202 4.41678 6.0588 4.31357 6.02051 4.18262L5.52148 2.47559Z" fill="currentColor"/>
</svg>
