<svg viewBox="0 0 53 12" fill="none" xmlns="http://www.w3.org/2000/svg">
<path d="M5.668 11.297C4.56733 11.297 3.588 11.05 2.73 10.556C1.88067 10.062 1.21333 9.39467 0.728 8.554C0.242667 7.70467 0 6.747 0 5.681C0 4.615 0.242667 3.653 0.728 2.795C1.21333 1.937 1.88067 1.25667 2.73 0.754C3.588 0.251333 4.56733 0 5.668 0C6.76 0 7.72633 0.251333 8.567 0.754C9.41633 1.25667 10.0793 1.937 10.556 2.795C11.0327 3.653 11.271 4.615 11.271 5.681C11.271 6.747 11.0327 7.70467 10.556 8.554C10.0793 9.39467 9.41633 10.062 8.567 10.556C7.72633 11.05 6.76 11.297 5.668 11.297ZM5.668 9.36C6.36133 9.36 6.96367 9.19967 7.475 8.879C7.995 8.55833 8.398 8.12067 8.684 7.566C8.97 7.00267 9.113 6.37 9.113 5.668C9.113 4.966 8.97 4.33333 8.684 3.77C8.398 3.20667 7.995 2.76033 7.475 2.431C6.96367 2.10167 6.36133 1.937 5.668 1.937C4.966 1.937 4.355 2.10167 3.835 2.431C3.315 2.76033 2.90767 3.20667 2.613 3.77C2.327 4.33333 2.184 4.966 2.184 5.668C2.184 6.37 2.327 7.00267 2.613 7.566C2.90767 8.12067 3.315 8.55833 3.835 8.879C4.355 9.19967 4.966 9.36 5.668 9.36Z" fill="currentColor"/>
<path d="M18.9658 0C19.6678 0 20.3481 0.147333 21.0068 0.442C21.6741 0.736667 22.2201 1.20467 22.6448 1.846C23.0781 2.47867 23.2948 3.30633 23.2948 4.329V10.985H21.0068V4.771C21.0068 3.71367 20.7598 2.94667 20.2658 2.47C19.7718 1.98467 19.1348 1.742 18.3548 1.742C17.8434 1.742 17.3494 1.88933 16.8728 2.184C16.4048 2.47 16.0191 2.86867 15.7158 3.38C15.4124 3.88267 15.2608 4.45467 15.2608 5.096V10.985H12.9988V0.312H15.2608V2.21C15.3388 1.91533 15.5511 1.59467 15.8978 1.248C16.2444 0.901333 16.6864 0.606667 17.2238 0.364C17.7611 0.121333 18.3418 0 18.9658 0Z" fill="currentColor"/>
<path d="M32.5057 2.99L29.7887 10.985H27.4487L24.5497 0.312H26.9547L28.8917 8.515L31.5697 0.52H33.4417L36.0937 8.515L38.0437 0.312H40.4617L37.5627 10.985H35.2227L32.5057 2.99Z" fill="currentColor"/>
<path d="M46.8475 11.297C45.7469 11.297 44.7675 11.05 43.9095 10.556C43.0602 10.062 42.3929 9.39467 41.9075 8.554C41.4222 7.70467 41.1795 6.747 41.1795 5.681C41.1795 4.615 41.4222 3.653 41.9075 2.795C42.3929 1.937 43.0602 1.25667 43.9095 0.754C44.7675 0.251333 45.7469 0 46.8475 0C47.9395 0 48.9059 0.251333 49.7465 0.754C50.5959 1.25667 51.2589 1.937 51.7355 2.795C52.2122 3.653 52.4505 4.615 52.4505 5.681C52.4505 6.747 52.2122 7.70467 51.7355 8.554C51.2589 9.39467 50.5959 10.062 49.7465 10.556C48.9059 11.05 47.9395 11.297 46.8475 11.297ZM46.8475 9.36C47.5409 9.36 48.1432 9.19967 48.6545 8.879C49.1745 8.55833 49.5775 8.12067 49.8635 7.566C50.1495 7.00267 50.2925 6.37 50.2925 5.668C50.2925 4.966 50.1495 4.33333 49.8635 3.77C49.5775 3.20667 49.1745 2.76033 48.6545 2.431C48.1432 2.10167 47.5409 1.937 46.8475 1.937C46.1455 1.937 45.5345 2.10167 45.0145 2.431C44.4945 2.76033 44.0872 3.20667 43.7925 3.77C43.5065 4.33333 43.3635 4.966 43.3635 5.668C43.3635 6.37 43.5065 7.00267 43.7925 7.566C44.0872 8.12067 44.4945 8.55833 45.0145 8.879C45.5345 9.19967 46.1455 9.36 46.8475 9.36Z" fill="currentColor"/>
</svg>
