<svg width="150" height="150" viewBox="0 0 150 150" fill="none" xmlns="http://www.w3.org/2000/svg">
<path d="M75.3395 0.544312C116.446 0.54451 149.77 33.8683 149.77 74.975C149.77 116.082 116.446 149.405 75.3395 149.406C34.2326 149.406 0.908813 116.082 0.908813 74.975V13.5443C0.90895 6.36473 6.7292 0.544312 13.9088 0.544312H75.3395Z" fill="black"/>
<path d="M44.7596 19.0281C45.2283 16.9475 48.1931 16.9475 48.6618 19.0281L53.5733 40.8315C53.743 41.585 54.3314 42.1734 55.0849 42.3431L76.8883 47.2546C78.9689 47.7233 78.9689 50.6881 76.8883 51.1568L55.0849 56.0683C54.3314 56.238 53.743 56.8264 53.5733 57.5799L48.6618 79.3833C48.1931 81.4639 45.2283 81.4639 44.7596 79.3833L39.8481 57.5799C39.6784 56.8264 39.09 56.238 38.3365 56.0683L16.5331 51.1568C14.4525 50.6881 14.4525 47.7233 16.5331 47.2546L38.3365 42.3431C39.09 42.1734 39.6784 41.585 39.8481 40.8315L44.7596 19.0281Z" fill="white"/>
</svg>
