<svg width="137" height="137" viewBox="0 0 137 137" fill="none" xmlns="http://www.w3.org/2000/svg">
<path fill-rule="evenodd" clip-rule="evenodd" d="M93.5817 112.697C117.899 98.6572 126.23 67.5631 112.191 43.246C98.1515 18.9289 67.0574 10.5972 42.7403 24.6367C18.4232 38.6762 10.0915 69.7703 24.131 94.0874C38.1705 118.405 69.2646 126.736 93.5817 112.697ZM102.082 127.419C134.53 108.685 145.647 67.194 126.913 34.746C108.18 2.2979 66.6883 -8.81962 34.2403 9.91428C1.79222 28.6482 -9.32531 70.1394 9.40859 102.587C28.1425 135.035 69.6337 146.153 102.082 127.419Z" fill="black"/>
<path fill-rule="evenodd" clip-rule="evenodd" d="M102.082 127.419C93.6029 132.314 84.5066 135.171 75.3602 136.142L13.3252 28.6943C18.7391 21.2587 25.7615 14.8095 34.2403 9.91428C66.6883 -8.81962 108.18 2.2979 126.913 34.746C145.647 67.194 134.53 108.685 102.082 127.419ZM107.733 89.454C118.443 83.2705 122.113 69.5756 115.929 58.8655C109.746 48.1554 96.0508 44.4858 85.3407 50.6693C74.6306 56.8528 70.9611 70.5478 77.1445 81.2579C83.328 91.9679 97.023 95.6375 107.733 89.454Z" fill="black"/>
</svg>

