<svg width="124" height="42" viewBox="0 0 124 42" xmlns="http://www.w3.org/2000/svg"><mask id="satori_om-id"><rect x="0" y="0" width="123" height="42" fill="#fff"/></mask><mask id="satori_om-id-0"><rect x="0" y="0" width="123" height="42" fill="#fff"/></mask><defs><clipPath id="satori_bc-id-0-0"><path x="0" y="0" width="123" height="42" d="M8,0 h107 a8,8 0 0 1 8,8 v26 a8,8 0 0 1 -8,8 h-107 a8,8 0 0 1 -8,-8 v-26 a8,8 0 0 1 8,-8"/></clipPath></defs><mask id="satori_om-id-0-0"><rect x="1" y="1" width="121" height="40" fill="#fff"/><path width="123" height="42" fill="none" stroke="#000" stroke-width="2" d="M2.343,2.343 A8,8 0 0 1 8,0 h107 a8,8 0 0 1 8,8 v26 a8,8 0 0 1 -8,8 h-107 a8,8 0 0 1 -8,-8 v-26 A8,8 0 0 1 2.343,2.343"/></mask><path width="123" height="42" clip-path="url(#satori_bc-id-0-0)" fill="none" stroke="rgb(25, 32, 227)" stroke-width="2" d="M2.343,2.343 A8,8 0 0 1 8,0 h107 a8,8 0 0 1 8,8 v26 a8,8 0 0 1 -8,8 h-107 a8,8 0 0 1 -8,-8 v-26 A8,8 0 0 1 2.343,2.343"/><g  ><path fill="rgb(25, 32, 227)" d="M24.1 27.2L24.1 27.2Q22.6 27.2 21.5 26.4Q20.3 25.7 19.6 24.4Q19.0 23.0 19.0 21.2L19.0 21.2Q19.0 19.3 19.6 18.0Q20.3 16.7 21.5 15.9Q22.6 15.2 24.1 15.2L24.1 15.2Q25 15.2 25.8 15.5Q26.6 15.7 27.2 16.2Q27.8 16.7 28.2 17.4Q28.7 18.1 28.8 19.0L28.8 19.0L27.3 19.0Q27.2 18.4 26.9 18.0Q26.6 17.5 26.2 17.2Q25.7 16.9 25.2 16.7Q24.7 16.6 24.1 16.6L24.1 16.6Q23.1 16.6 22.2 17.1Q21.4 17.6 20.9 18.7Q20.4 19.7 20.4 21.2L20.4 21.2Q20.4 22.7 20.9 23.7Q21.4 24.7 22.2 25.3Q23.1 25.8 24.1 25.8L24.1 25.8Q24.7 25.8 25.2 25.6Q25.7 25.5 26.2 25.2Q26.6 24.8 26.9 24.4Q27.2 23.9 27.3 23.3L27.3 23.3L28.8 23.3Q28.7 24.2 28.2 24.9Q27.8 25.6 27.2 26.1Q26.6 26.6 25.8 26.9Q25.0 27.2 24.1 27.2ZM33.9 27.1L33.9 27.1Q33 27.1 32.3 26.7Q31.7 26.4 31.3 25.6Q30.9 24.9 30.9 23.8L30.9 23.8L30.9 18.3L32.3 18.3L32.3 23.7Q32.3 24.7 32.9 25.3Q33.4 25.8 34.3 25.8L34.3 25.8Q34.9 25.8 35.4 25.6Q35.9 25.3 36.2 24.8Q36.5 24.2 36.5 23.5L36.5 23.5L36.5 18.3L37.9 18.3L37.9 27L36.6 27L36.6 25.4Q36.2 26.2 35.6 26.6L35.6 26.6Q34.8 27.1 33.9 27.1ZM43.4 27.2L43.4 27.2Q42.5 27.2 41.8 26.9Q41.1 26.7 40.6 26.1Q40.1 25.6 40.0 24.9L40.0 24.9L41.3 24.6Q41.5 25.3 42.0 25.6Q42.6 26.0 43.3 26.0L43.3 26.0Q44.3 26.0 44.8 25.6Q45.3 25.2 45.3 24.6L45.3 24.6Q45.3 24.2 45.0 23.9Q44.7 23.6 44.1 23.4L44.1 23.4L42.6 23.1Q41.4 22.8 40.8 22.2Q40.3 21.6 40.3 20.7L40.3 20.7Q40.3 20.0 40.7 19.4Q41.1 18.8 41.8 18.5Q42.6 18.2 43.5 18.2L43.5 18.2Q44.4 18.2 45.0 18.4Q45.6 18.7 46.0 19.2Q46.4 19.6 46.6 20.3L46.6 20.3L45.4 20.6Q45.2 20.1 44.8 19.7Q44.3 19.4 43.5 19.4L43.5 19.4Q42.7 19.4 42.2 19.7Q41.7 20.1 41.7 20.6L41.7 20.6Q41.7 21.1 42.0 21.4Q42.4 21.7 43.1 21.9L43.1 21.9L44.5 22.2Q45.7 22.5 46.2 23.1Q46.8 23.6 46.8 24.5L46.8 24.5Q46.8 25.3 46.4 25.9Q45.9 26.5 45.2 26.8Q44.4 27.2 43.4 27.2ZM50.5 18.3L52.3 18.3L52.3 19.5L50.5 19.5L50.5 24.7Q50.5 25.3 50.7 25.6Q50.9 25.9 51.5 25.9L51.5 25.9Q51.6 25.9 51.8 25.8Q52.0 25.8 52.2 25.8L52.2 25.8L52.5 27.0Q52.3 27.0 52.0 27.1Q51.7 27.1 51.5 27.1L51.5 27.1Q50.3 27.1 49.7 26.5Q49.1 25.9 49.1 24.8L49.1 24.8L49.1 19.5L47.8 19.5L47.8 18.3L49.1 18.3L49.1 16.2L50.5 16.2L50.5 18.3ZM57.6 27.2L57.6 27.2Q56.4 27.2 55.5 26.6Q54.6 26.1 54.1 25.0Q53.6 24.0 53.6 22.7L53.6 22.7Q53.6 21.3 54.1 20.3Q54.6 19.3 55.5 18.7Q56.4 18.2 57.6 18.2L57.6 18.2Q58.8 18.2 59.7 18.7Q60.6 19.3 61.1 20.3Q61.6 21.3 61.6 22.7L61.6 22.7Q61.6 24.0 61.1 25.0Q60.6 26.1 59.7 26.6Q58.8 27.2 57.6 27.2ZM57.6 25.9L57.6 25.9Q58.5 25.9 59.1 25.5Q59.6 25.0 59.9 24.3Q60.2 23.5 60.2 22.7L60.2 22.7Q60.2 21.8 59.9 21.1Q59.6 20.3 59.1 19.9Q58.5 19.4 57.6 19.4L57.6 19.4Q56.7 19.4 56.2 19.9Q55.6 20.3 55.3 21.1Q55.1 21.8 55.1 22.7L55.1 22.7Q55.1 23.5 55.3 24.3Q55.6 25.0 56.2 25.5Q56.7 25.9 57.6 25.9ZM65.1 27L63.7 27L63.7 18.3L65.0 18.3L65.0 19.9Q65.2 19.4 65.5 19.0L65.5 19.0Q65.9 18.6 66.4 18.3Q66.9 18.1 67.5 18.1L67.5 18.1Q68.4 18.1 69.0 18.7L69.0 18.7Q69.5 19.2 69.7 19.9L69.7 19.9Q69.9 19.4 70.2 19.1L70.2 19.1Q70.6 18.6 71.2 18.4Q71.8 18.1 72.5 18.1L72.5 18.1Q73.2 18.1 73.8 18.4Q74.5 18.8 74.8 19.4Q75.2 20.1 75.2 21.1L75.2 21.1L75.2 27L73.8 27L73.8 21.1Q73.8 20.2 73.3 19.8Q72.7 19.4 72.0 19.4L72.0 19.4Q71.4 19.4 71.0 19.6Q70.6 19.9 70.4 20.3Q70.1 20.7 70.1 21.3L70.1 21.3L70.1 27L68.7 27L68.7 21.0Q68.7 20.3 68.2 19.8Q67.8 19.4 67.0 19.4L67.0 19.4Q66.5 19.4 66.1 19.6Q65.6 19.9 65.3 20.3Q65.1 20.8 65.1 21.5L65.1 21.5L65.1 27Z "/></g><mask id="satori_om-id-0-0-1"><rect x="85" y="9" width="20" height="24" fill="#fff"/></mask><g  ><path fill="rgb(25, 32, 227)" d="M92.9 12.5L92.9 30.3L87.6 30.3L87.6 12.5L92.9 12.5ZM90.7 27.5L89 28.5L89 29L91.5 29L91.5 28.5L89.8 28.5L91.5 27.5L91.5 27L89 27L89 27.5L90.7 27.5ZM91.5 24.5L89 24.5L89 26.5L91.5 26.5L91.5 24.5ZM91 25L91 26L89.5 26L89.5 25L91 25ZM89.5 21.5L89 21.5L89 23.5L91.5 23.5L91.5 21.5L90 21.5L90 22.5L90.5 22.5L90.5 22L91 22L91 23L89.5 23L89.5 21.5ZM91 20.5L89 20.5L89 21L91.5 21L91.5 19.3L91 19.3L91 20.5ZM90 19.5L89 19.5L89 20L90.5 20L90.5 18.8L91.5 18.8L91.5 18.3L89 18.3L89 18.8L90 18.8L90 19.5ZM90 16.5L90 17.3L89.5 17.3L89.5 16.5L90 16.5ZM90.5 16L89 16L89 17.8L91.5 17.8L91.5 17.3L90.5 17.3L90.5 16ZM89.9 15L89 15L89 15.5L91.5 15.5L91.5 15L90.4 15L90.4 14.3L91.5 14.3L91.5 13.8L89 13.8L89 14.3L89.9 14.3L89.9 15Z "/></g></svg>