<svg width="116" height="84" viewBox="0 0 116 84" xmlns="http://www.w3.org/2000/svg"><mask id="satori_om-id"><rect x="0" y="0" width="115" height="84" fill="#fff"/></mask><mask id="satori_om-id-0"><rect x="0" y="0" width="115" height="84" fill="#fff"/></mask><mask id="satori_om-id-0-0"><rect x="14" y="0" width="88" height="28" fill="#fff"/></mask><path x="14" y="0" width="88" height="28" fill="rgba(246, 246, 246, 1)" d="M18,0 h80 a4,4 0 0 1 4,4 v20 a4,4 0 0 1 -4,4 h-80 a4,4 0 0 1 -4,-4 v-20 a4,4 0 0 1 4,-4"/><clipPath id="satori_cp-id-0-0-0"><rect x="20" y="7" width="14" height="14"/></clipPath><mask id="satori_om-id-0-0-0"><rect x="20" y="7" width="14" height="14" fill="#fff"/></mask><image x="20" y="7" width="14" height="14" href="data:image/svg+xml;utf8,%3Csvg  class=%22onwo-icon%22 fill=%22none%22 xmlns=%22http://www.w3.org/2000/svg%22 q:container=%22html%22 :=%2234_0%22 dataQwikInspector=%22/@fs/home/emilien/projects/onwo-ui/packages/primitives/src/@kit/svg-icon/svg-icon.tsx:53:5%22 width=%22NaN%22 height=%22NaN%22 viewBox=%220 0 24 24%22%3E%3Cg style=%22display:flex;flex-direction:row;color:rgb(0, 0, 0);font-size:14px;line-height:20px;text-align:start;border-color:rgb(0, 0, 0);border-style:solid;position:static;font-family:Inter;font-weight:400%22%3E%3Cpath d=%22M9.671 4.136a2.34 2.34 0 0 1 4.659 0a2.34 2.34 0 0 0 3.319 1.915a2.34 2.34 0 0 1 2.33 4.033a2.34 2.34 0 0 0 0 3.831a2.34 2.34 0 0 1-2.33 4.033a2.34 2.34 0 0 0-3.319 1.915a2.34 2.34 0 0 1-4.659 0a2.34 2.34 0 0 0-3.32-1.915a2.34 2.34 0 0 1-2.33-4.033a2.34 2.34 0 0 0 0-3.831A2.34 2.34 0 0 1 6.35 6.051a2.34 2.34 0 0 0 3.319-1.915%22 style=%22display:flex;flex-direction:row;color:rgb(0, 0, 0);font-size:14px;line-height:20px;text-align:start;border-color:rgb(0, 0, 0);border-style:solid;position:static;font-family:Inter;font-weight:400%22%3E%3C/path%3E%3Ccircle cx=%2212%22 cy=%2212%22 r=%223%22 style=%22display:flex;flex-direction:row;color:rgb(0, 0, 0);font-size:14px;line-height:20px;text-align:start;border-color:rgb(0, 0, 0);border-style:solid;position:static;font-family:Inter;font-weight:400%22%3E%3C/circle%3E%3C/g%3E%3C/svg%3E" preserveAspectRatio="none" clip-path="url(#satori_cp-id-0-0-0)" mask="url(#satori_om-id-0-0-0)"/><mask id="satori_om-id-0-0-0-0"><rect x="20" y="7" width="0" height="14" fill="#fff"/></mask><mask id="satori_om-id-0-0-0-0-0"><rect x="20" y="7" width="0" height="14" fill="#fff"/></mask><mask id="satori_om-id-0-0-0-0-1"><rect x="20" y="7" width="0" height="14" fill="#fff"/></mask><mask id="satori_om-id-0-0-1"><rect x="38" y="14" width="0" height="0" fill="#fff"/></mask><g  ><path fill="rgb(0, 0, 0)" d="M46.5 19.2L46.5 19.2Q45.4 19.2 44.6 18.8Q43.8 18.5 43.3 17.8Q42.9 17.2 42.8 16.3L42.8 16.3L44.1 16.3Q44.2 16.9 44.5 17.3Q44.9 17.7 45.4 17.8Q45.9 18.0 46.5 18.0L46.5 18.0Q47.2 18.0 47.7 17.8Q48.3 17.6 48.6 17.2Q48.9 16.7 48.9 16.2L48.9 16.2Q48.9 15.7 48.6 15.4Q48.4 15.1 47.9 14.9Q47.5 14.7 46.9 14.5L46.9 14.5L45.7 14.2Q44.4 13.9 43.8 13.2Q43.1 12.6 43.1 11.5L43.1 11.5Q43.1 10.7 43.5 10.0Q44.0 9.4 44.8 9.0Q45.6 8.7 46.6 8.7L46.6 8.7Q47.6 8.7 48.4 9.0Q49.1 9.4 49.6 10.0Q50.0 10.6 50.1 11.4L50.1 11.4L48.8 11.4Q48.7 10.6 48.1 10.2Q47.4 9.8 46.5 9.8L46.5 9.8Q45.9 9.8 45.4 10.0Q44.9 10.3 44.6 10.6Q44.3 11.0 44.3 11.5L44.3 11.5Q44.3 12.0 44.7 12.3Q45.0 12.7 45.5 12.8Q45.9 13.0 46.3 13.1L46.3 13.1L47.3 13.4Q47.7 13.5 48.2 13.7Q48.7 13.9 49.2 14.2Q49.6 14.5 49.9 15.0Q50.2 15.5 50.2 16.2L50.2 16.2Q50.2 17.1 49.8 17.7Q49.3 18.4 48.5 18.8Q47.7 19.2 46.5 19.2ZM53.3 19L52.1 19L52.1 11.4L53.3 11.4L53.3 19ZM52.7 10.1L52.7 10.1Q52.3 10.1 52.1 9.9Q51.8 9.6 51.8 9.3L51.8 9.3Q51.8 9.0 52.1 8.7Q52.3 8.5 52.7 8.5L52.7 8.5Q53.0 8.5 53.3 8.7Q53.5 9.0 53.5 9.3L53.5 9.3Q53.5 9.6 53.3 9.9Q53.0 10.1 52.7 10.1ZM61.2 19L55.2 19L55.2 18.1L59.5 12.6L59.5 12.5L55.4 12.5L55.4 11.4L61.1 11.4L61.1 12.3L56.9 17.8L56.9 17.9L61.2 17.9L61.2 19ZM66.4 19.2L66.4 19.2Q65.3 19.2 64.5 18.7Q63.7 18.2 63.2 17.3Q62.8 16.4 62.8 15.2Q62.8 14.1 63.2 13.2Q63.7 12.3 64.4 11.8Q65.2 11.3 66.3 11.3L66.3 11.3Q66.9 11.3 67.5 11.5Q68.0 11.7 68.5 12.1Q69.0 12.6 69.3 13.3Q69.6 14.0 69.6 15.1L69.6 15.1L69.6 15.6L64.1 15.6Q64.1 16.3 64.4 16.9L64.4 16.9Q64.6 17.5 65.2 17.8Q65.7 18.1 66.4 18.1L66.4 18.1Q66.9 18.1 67.2 17.9Q67.6 17.8 67.9 17.5Q68.1 17.3 68.3 16.9L68.3 16.9L69.5 17.2Q69.3 17.8 68.9 18.2Q68.4 18.7 67.8 18.9Q67.2 19.2 66.4 19.2ZM64.1 14.6L64.1 14.6L68.3 14.6Q68.3 14.0 68.1 13.6L68.1 13.6Q67.9 13.0 67.4 12.7Q66.9 12.4 66.3 12.4Q65.6 12.4 65.1 12.7Q64.6 13.0 64.3 13.6L64.3 13.6Q64.1 14.0 64.1 14.6Z M78.7 19.2L78.7 19.2Q77.6 19.2 76.8 18.8Q76.0 18.5 75.5 17.8Q75.1 17.2 75.0 16.3L75.0 16.3L76.3 16.3Q76.4 16.9 76.7 17.3Q77.1 17.7 77.6 17.8Q78.1 18.0 78.7 18.0L78.7 18.0Q79.4 18.0 79.9 17.8Q80.5 17.6 80.8 17.2Q81.1 16.7 81.1 16.2L81.1 16.2Q81.1 15.7 80.9 15.4Q80.6 15.1 80.1 14.9Q79.7 14.7 79.1 14.5L79.1 14.5L77.9 14.2Q76.7 13.9 76.0 13.2Q75.3 12.6 75.3 11.5L75.3 11.5Q75.3 10.7 75.7 10.0Q76.2 9.4 77.0 9.0Q77.8 8.7 78.8 8.7L78.8 8.7Q79.8 8.7 80.6 9.0Q81.3 9.4 81.8 10.0Q82.2 10.6 82.3 11.4L82.3 11.4L81.0 11.4Q80.9 10.6 80.3 10.2Q79.7 9.8 78.7 9.8L78.7 9.8Q78.1 9.8 77.6 10.0Q77.1 10.3 76.8 10.6Q76.5 11.0 76.5 11.5L76.5 11.5Q76.5 12.0 76.9 12.3Q77.2 12.7 77.7 12.8Q78.1 13.0 78.5 13.1L78.5 13.1L79.5 13.4Q79.9 13.5 80.4 13.7Q80.9 13.9 81.4 14.2Q81.8 14.5 82.1 15.0Q82.4 15.5 82.4 16.2L82.4 16.2Q82.4 17.1 82.0 17.7Q81.5 18.4 80.7 18.8Q79.9 19.2 78.7 19.2ZM85.7 19L84.4 19L84.4 8.8L86.3 8.8L88.8 15.2Q88.9 15.5 89.0 15.8Q89.1 16.1 89.2 16.5Q89.3 16.9 89.5 17.3L89.5 17.3Q89.5 17.4 89.5 17.6L89.5 17.6Q89.6 17.5 89.6 17.4L89.6 17.4Q89.7 17.0 89.8 16.6Q90.0 16.2 90.1 15.8Q90.2 15.5 90.3 15.2L90.3 15.2L92.8 8.8L94.6 8.8L94.6 19L93.3 19L93.3 13.2Q93.3 12.9 93.3 12.5Q93.3 12.1 93.3 11.6Q93.4 11.2 93.4 10.7L93.4 10.7Q93.4 10.5 93.4 10.2L93.4 10.2Q93.3 10.5 93.2 10.8L93.2 10.8Q93.0 11.3 92.9 11.7Q92.7 12.2 92.6 12.6Q92.4 12.9 92.3 13.2L92.3 13.2L90.1 19L88.9 19L86.6 13.2Q86.5 12.9 86.4 12.6Q86.3 12.2 86.1 11.8Q86.0 11.3 85.8 10.8L85.8 10.8Q85.7 10.5 85.6 10.2L85.6 10.2Q85.6 10.4 85.6 10.7L85.6 10.7Q85.6 11.1 85.6 11.6Q85.6 12.0 85.6 12.4Q85.7 12.8 85.7 13.2L85.7 13.2L85.7 19Z "/></g><mask id="satori_om-id-0-1"><rect x="0" y="44" width="115" height="40" fill="#fff"/></mask><path x="0" y="44" width="115" height="40" fill="rgba(246, 246, 246, 1)" d="M4,44 h107 a4,4 0 0 1 4,4 v32 a4,4 0 0 1 -4,4 h-107 a4,4 0 0 1 -4,-4 v-32 a4,4 0 0 1 4,-4"/><clipPath id="satori_cp-id-0-1-0"><rect x="13" y="56" width="16" height="16"/></clipPath><mask id="satori_om-id-0-1-0"><rect x="13" y="56" width="16" height="16" fill="#fff"/></mask><image x="13" y="56" width="16" height="16" href="data:image/svg+xml;utf8,%3Csvg  class=%22onwo-icon%22 fill=%22none%22 xmlns=%22http://www.w3.org/2000/svg%22 q:container=%22html%22 :=%2234_0%22 dataQwikInspector=%22/@fs/home/emilien/projects/onwo-ui/packages/primitives/src/@kit/svg-icon/svg-icon.tsx:53:5%22 width=%22NaN%22 height=%22NaN%22 viewBox=%220 0 24 24%22%3E%3Cg style=%22display:flex;flex-direction:row;color:rgb(0, 0, 0);font-size:16px;line-height:24px;text-align:start;border-color:rgb(0, 0, 0);border-style:solid;position:static;font-family:Inter;font-weight:400%22%3E%3Cpath d=%22M9.671 4.136a2.34 2.34 0 0 1 4.659 0a2.34 2.34 0 0 0 3.319 1.915a2.34 2.34 0 0 1 2.33 4.033a2.34 2.34 0 0 0 0 3.831a2.34 2.34 0 0 1-2.33 4.033a2.34 2.34 0 0 0-3.319 1.915a2.34 2.34 0 0 1-4.659 0a2.34 2.34 0 0 0-3.32-1.915a2.34 2.34 0 0 1-2.33-4.033a2.34 2.34 0 0 0 0-3.831A2.34 2.34 0 0 1 6.35 6.051a2.34 2.34 0 0 0 3.319-1.915%22 style=%22display:flex;flex-direction:row;color:rgb(0, 0, 0);font-size:16px;line-height:24px;text-align:start;border-color:rgb(0, 0, 0);border-style:solid;position:static;font-family:Inter;font-weight:400%22%3E%3C/path%3E%3Ccircle cx=%2212%22 cy=%2212%22 r=%223%22 style=%22display:flex;flex-direction:row;color:rgb(0, 0, 0);font-size:16px;line-height:24px;text-align:start;border-color:rgb(0, 0, 0);border-style:solid;position:static;font-family:Inter;font-weight:400%22%3E%3C/circle%3E%3C/g%3E%3C/svg%3E" preserveAspectRatio="none" clip-path="url(#satori_cp-id-0-1-0)" mask="url(#satori_om-id-0-1-0)"/><mask id="satori_om-id-0-1-0-0"><rect x="13" y="56" width="0" height="16" fill="#fff"/></mask><mask id="satori_om-id-0-1-0-0-0"><rect x="13" y="56" width="0" height="16" fill="#fff"/></mask><mask id="satori_om-id-0-1-0-0-1"><rect x="13" y="56" width="0" height="16" fill="#fff"/></mask><mask id="satori_om-id-0-1-1"><rect x="37" y="64" width="0" height="0" fill="#fff"/></mask><g  ><path fill="rgb(0, 0, 0)" d="M49.1 70.2L49.1 70.2Q47.9 70.2 46.9 69.8Q46.0 69.4 45.5 68.7Q45.0 67.9 44.9 67.0L44.9 67.0L46.4 67.0Q46.5 67.6 46.9 68.0Q47.3 68.5 47.9 68.7Q48.5 68.9 49.1 68.9L49.1 68.9Q49.9 68.9 50.6 68.6Q51.2 68.4 51.5 67.9Q51.9 67.4 51.9 66.8L51.9 66.8Q51.9 66.2 51.6 65.9Q51.3 65.5 50.8 65.3Q50.2 65.1 49.6 64.9L49.6 64.9L48.2 64.5Q46.8 64.1 46.0 63.4Q45.2 62.6 45.2 61.5L45.2 61.5Q45.2 60.5 45.8 59.8Q46.3 59.0 47.2 58.6Q48.1 58.2 49.2 58.2L49.2 58.2Q50.4 58.2 51.3 58.6Q52.1 59.0 52.7 59.7Q53.2 60.4 53.2 61.3L53.2 61.3L51.8 61.3Q51.6 60.4 50.9 60.0Q50.2 59.5 49.2 59.5L49.2 59.5Q48.4 59.5 47.9 59.8Q47.3 60.0 47.0 60.4Q46.7 60.9 46.7 61.4L46.7 61.4Q46.7 62.0 47.1 62.4Q47.4 62.8 48.0 63.0Q48.5 63.2 48.9 63.3L48.9 63.3L50.1 63.6Q50.5 63.7 51.1 64.0Q51.7 64.2 52.2 64.5Q52.7 64.9 53.0 65.5Q53.4 66.0 53.4 66.8L53.4 66.8Q53.4 67.8 52.9 68.5Q52.4 69.3 51.4 69.8Q50.5 70.2 49.1 70.2ZM56.9 70L55.5 70L55.5 61.3L56.9 61.3L56.9 70ZM56.2 59.8L56.2 59.8Q55.8 59.8 55.5 59.6Q55.2 59.3 55.2 58.9L55.2 58.9Q55.2 58.5 55.5 58.2Q55.8 58.0 56.2 58.0L56.2 58.0Q56.6 58.0 56.9 58.2Q57.2 58.5 57.2 58.9L57.2 58.9Q57.2 59.3 56.9 59.6Q56.6 59.8 56.2 59.8ZM66.0 70L59.1 70L59.1 69.0L64.0 62.7L64.0 62.6L59.3 62.6L59.3 61.3L65.8 61.3L65.8 62.4L61.1 68.6L61.1 68.7L66.0 68.7L66.0 70ZM71.9 70.2L71.9 70.2Q70.6 70.2 69.7 69.6Q68.8 69.1 68.3 68.1Q67.8 67.0 67.8 65.7Q67.8 64.4 68.3 63.3Q68.8 62.3 69.6 61.7Q70.5 61.2 71.7 61.2L71.7 61.2Q72.4 61.2 73.1 61.4Q73.8 61.6 74.3 62.1Q74.9 62.6 75.2 63.5Q75.5 64.3 75.5 65.5L75.5 65.5L75.5 66.1L69.2 66.1Q69.2 67.0 69.5 67.6L69.5 67.6Q69.9 68.2 70.5 68.6Q71.1 68.9 71.9 68.9L71.9 68.9Q72.4 68.9 72.8 68.8Q73.3 68.6 73.6 68.3Q73.9 68.0 74.0 67.6L74.0 67.6L75.4 68.0Q75.2 68.6 74.7 69.1Q74.2 69.6 73.5 69.9Q72.8 70.2 71.9 70.2ZM69.2 64.9L69.2 64.9L74.1 64.9Q74.0 64.3 73.8 63.8L73.8 63.8Q73.6 63.2 73.0 62.8Q72.5 62.4 71.7 62.4Q70.9 62.4 70.4 62.8Q69.8 63.2 69.5 63.8L69.5 63.8Q69.3 64.3 69.2 64.9Z M89.1 70L82.2 70L82.2 58.4L83.7 58.4L83.7 68.7L89.1 68.7L89.1 70ZM96.0 70.2L96.0 70.2Q94.5 70.2 93.3 69.4Q92.1 68.7 91.5 67.4Q90.8 66.0 90.8 64.2L90.8 64.2Q90.8 62.3 91.5 61.0Q92.1 59.7 93.3 58.9Q94.4 58.2 95.9 58.2L95.9 58.2Q96.8 58.2 97.6 58.5Q98.4 58.8 99.1 59.3Q99.7 59.8 100.1 60.5Q100.5 61.2 100.7 62.0L100.7 62.0L99.2 62.0Q99.0 61.4 98.7 61Q98.4 60.6 98.0 60.2Q97.6 59.9 97.1 59.7Q96.5 59.6 95.9 59.6L95.9 59.6Q94.9 59.6 94.1 60.1Q93.2 60.6 92.7 61.7Q92.3 62.7 92.3 64.2L92.3 64.2Q92.3 65.7 92.7 66.7Q93.2 67.7 94.1 68.3Q94.9 68.8 96.0 68.8L96.0 68.8Q97 68.8 97.8 68.4Q98.5 67.9 98.9 67.2L98.9 67.2Q99.3 66.4 99.3 65.4L99.3 65.4L96.3 65.4L96.3 64.1L100.8 64.1L100.8 65.4Q100.8 66.9 100.2 67.9Q99.6 69.0 98.5 69.6Q97.4 70.2 96.0 70.2Z "/></g></svg>