<svg width="92" height="154" viewBox="0 0 92 154" xmlns="http://www.w3.org/2000/svg"><mask id="satori_om-id"><rect x="0" y="0" width="92" height="154" fill="#fff"/></mask><mask id="satori_om-id-0"><rect x="0" y="0" width="92" height="154" fill="#fff"/></mask><mask id="satori_om-id-0-0"><rect x="1" y="0" width="90" height="40" fill="#fff"/></mask><path x="1" y="0" width="90" height="40" fill="rgba(246, 246, 246, 1)" d="M9,0 h74 a8,8 0 0 1 8,8 v24 a8,8 0 0 1 -8,8 h-74 a8,8 0 0 1 -8,-8 v-24 a8,8 0 0 1 8,-8"/><g  ><path fill="rgb(0, 0, 0)" d="M23.0 26L23.0 26L19.4 26L19.4 14.4L23.2 14.4Q24.9 14.4 26.1 15.1Q27.3 15.8 27.9 17.1Q28.6 18.4 28.6 20.2L28.6 20.2Q28.6 22.0 27.9 23.3Q27.3 24.6 26.1 25.3Q24.8 26 23.0 26ZM20.9 15.7L20.9 24.7L22.9 24.7Q24.4 24.7 25.3 24.1Q26.2 23.6 26.7 22.6Q27.2 21.6 27.2 20.2L27.2 20.2Q27.2 18.8 26.7 17.8Q26.2 16.8 25.3 16.2Q24.4 15.7 23.1 15.7L23.1 15.7L20.9 15.7ZM34.5 26.2L34.5 26.2Q33.2 26.2 32.3 25.6Q31.4 25.1 30.9 24.1Q30.4 23.0 30.4 21.7Q30.4 20.4 30.8 19.3Q31.3 18.3 32.2 17.7Q33.1 17.2 34.3 17.2L34.3 17.2Q35.0 17.2 35.7 17.4Q36.3 17.6 36.9 18.1Q37.4 18.6 37.8 19.5Q38.1 20.3 38.1 21.5L38.1 21.5L38.1 22.1L31.8 22.1Q31.8 23.0 32.1 23.6L32.1 23.6Q32.5 24.2 33.1 24.6Q33.7 24.9 34.5 24.9L34.5 24.9Q35.0 24.9 35.4 24.8Q35.8 24.6 36.1 24.3Q36.4 24.0 36.6 23.6L36.6 23.6L38.0 24.0Q37.8 24.6 37.3 25.1Q36.8 25.6 36.1 25.9Q35.4 26.2 34.5 26.2ZM31.8 20.9L31.8 20.9L36.7 20.9Q36.6 20.3 36.4 19.8L36.4 19.8Q36.1 19.2 35.6 18.8Q35.1 18.4 34.3 18.4Q33.5 18.4 32.9 18.8Q32.4 19.2 32.1 19.8L32.1 19.8Q31.8 20.3 31.8 20.9ZM42.2 17.3L44.2 17.3L44.2 18.5L42.2 18.5L42.2 26L40.8 26L40.8 18.5L39.0 18.5L39.0 17.3L40.8 17.3L40.8 16.1Q40.8 15.3 41.1 14.8Q41.5 14.3 42.0 14.1Q42.6 13.8 43.2 13.8L43.2 13.8Q43.7 13.8 44.1 13.9Q44.4 14.0 44.5 14.0L44.5 14.0L44.2 15.3Q44.0 15.2 43.9 15.2Q43.7 15.1 43.4 15.1L43.4 15.1Q42.8 15.1 42.5 15.4Q42.2 15.8 42.2 16.4L42.2 16.4L42.2 17.3ZM48.5 26.2L48.5 26.2Q47.6 26.2 47.0 25.9Q46.3 25.6 45.9 25.0Q45.5 24.4 45.5 23.5L45.5 23.5Q45.5 22.8 45.8 22.3Q46.1 21.8 46.6 21.6Q47.1 21.3 47.7 21.2Q48.3 21.0 48.9 20.9L48.9 20.9Q49.7 20.8 50.2 20.8Q50.7 20.7 50.9 20.6Q51.1 20.5 51.1 20.1L51.1 20.1L51.1 20.1Q51.1 19.6 50.9 19.2Q50.7 18.8 50.3 18.6Q49.9 18.4 49.3 18.4L49.3 18.4Q48.7 18.4 48.2 18.6Q47.8 18.8 47.5 19.1Q47.2 19.4 47.1 19.7L47.1 19.7L45.8 19.2Q46.1 18.4 46.7 18.0Q47.2 17.5 47.9 17.3Q48.6 17.2 49.3 17.2L49.3 17.2Q49.7 17.2 50.3 17.3Q50.8 17.4 51.3 17.7Q51.9 18.0 52.2 18.6Q52.5 19.2 52.5 20.2L52.5 20.2L52.5 26L51.2 26L51.2 24.8L51.1 24.8Q50.9 25.1 50.6 25.4Q50.3 25.8 49.7 26.0Q49.2 26.2 48.5 26.2ZM48.7 25.0L48.7 25.0Q49.5 25.0 50.0 24.7Q50.6 24.4 50.9 23.9Q51.1 23.4 51.1 22.8L51.1 22.8L51.1 21.6Q51.1 21.7 50.8 21.8Q50.5 21.9 50.1 22.0Q49.7 22.0 49.4 22.1Q49.0 22.1 48.8 22.1L48.8 22.1Q48.3 22.2 47.9 22.3Q47.4 22.5 47.2 22.8Q46.9 23.1 46.9 23.6L46.9 23.6Q46.9 24.0 47.1 24.3Q47.4 24.6 47.8 24.8Q48.2 25.0 48.7 25.0ZM58.0 26.1L58.0 26.1Q57.1 26.1 56.4 25.7Q55.8 25.4 55.4 24.6Q55.0 23.9 55.0 22.8L55.0 22.8L55.0 17.3L56.4 17.3L56.4 22.7Q56.4 23.7 57.0 24.3Q57.5 24.8 58.4 24.8L58.4 24.8Q59.0 24.8 59.5 24.6Q60.0 24.3 60.3 23.8Q60.6 23.2 60.6 22.5L60.6 22.5L60.6 17.3L62.0 17.3L62.0 26L60.6 26L60.6 24.4Q60.3 25.2 59.7 25.6L59.7 25.6Q58.9 26.1 58.0 26.1ZM64.5 14.4L65.9 14.4L65.9 26L64.5 26L64.5 14.4ZM70.0 17.3L71.8 17.3L71.8 18.5L70.0 18.5L70.0 23.7Q70.0 24.3 70.2 24.6Q70.5 24.9 71.0 24.9L71.0 24.9Q71.2 24.9 71.4 24.8Q71.6 24.8 71.7 24.8L71.7 24.8L72.0 26.0Q71.8 26.0 71.5 26.1Q71.3 26.1 71.0 26.1L71.0 26.1Q69.9 26.1 69.2 25.5Q68.6 24.9 68.6 23.8L68.6 23.8L68.6 18.5L67.3 18.5L67.3 17.3L68.6 17.3L68.6 15.2L70.0 15.2L70.0 17.3Z "/></g><defs><clipPath id="satori_bc-id-0-1"><path x="0" y="56" width="92" height="42" d="M8,56 h76 a8,8 0 0 1 8,8 v26 a8,8 0 0 1 -8,8 h-76 a8,8 0 0 1 -8,-8 v-26 a8,8 0 0 1 8,-8"/></clipPath></defs><mask id="satori_om-id-0-1"><rect x="1" y="57" width="90" height="40" fill="#fff"/><path width="92" height="42" fill="none" stroke="#000" stroke-width="2" d="M2.343,58.343 A8,8 0 0 1 8,56 h76 a8,8 0 0 1 8,8 v26 a8,8 0 0 1 -8,8 h-76 a8,8 0 0 1 -8,-8 v-26 A8,8 0 0 1 2.343,58.343"/></mask><path width="92" height="42" clip-path="url(#satori_bc-id-0-1)" fill="none" stroke="rgb(25, 32, 227)" stroke-width="2" d="M2.343,58.343 A8,8 0 0 1 8,56 h76 a8,8 0 0 1 8,8 v26 a8,8 0 0 1 -8,8 h-76 a8,8 0 0 1 -8,-8 v-26 A8,8 0 0 1 2.343,58.343"/><g  ><path fill="rgb(25, 32, 227)" d="M24.1 83.2L24.1 83.2Q22.6 83.2 21.5 82.4Q20.3 81.7 19.6 80.4Q19.0 79.0 19.0 77.2L19.0 77.2Q19.0 75.3 19.6 74.0Q20.3 72.7 21.5 71.9Q22.6 71.2 24.1 71.2L24.1 71.2Q25.6 71.2 26.8 71.9Q27.9 72.7 28.6 74.0Q29.3 75.3 29.3 77.2L29.3 77.2Q29.3 79.0 28.6 80.4Q27.9 81.7 26.8 82.4Q25.6 83.2 24.1 83.2ZM24.1 81.8L24.1 81.8Q25.2 81.8 26.0 81.3Q26.8 80.7 27.3 79.7Q27.8 78.7 27.8 77.2L27.8 77.2Q27.8 75.7 27.3 74.7Q26.8 73.6 26.0 73.1Q25.2 72.6 24.1 72.6L24.1 72.6Q23.1 72.6 22.2 73.1Q21.4 73.6 20.9 74.7Q20.4 75.7 20.4 77.2L20.4 77.2Q20.4 78.7 20.9 79.7Q21.4 80.7 22.2 81.3Q23.1 81.8 24.1 81.8ZM34.4 83.1L34.4 83.1Q33.5 83.1 32.9 82.7Q32.2 82.4 31.8 81.6Q31.5 80.9 31.5 79.8L31.5 79.8L31.5 74.3L32.9 74.3L32.9 79.7Q32.9 80.7 33.4 81.3Q33.9 81.8 34.9 81.8L34.9 81.8Q35.5 81.8 36.0 81.6Q36.5 81.3 36.8 80.8Q37.0 80.2 37.0 79.5L37.0 79.5L37.0 74.3L38.5 74.3L38.5 83L37.1 83L37.1 81.4Q36.7 82.2 36.1 82.6L36.1 82.6Q35.4 83.1 34.4 83.1ZM42.6 74.3L44.4 74.3L44.4 75.5L42.6 75.5L42.6 80.7Q42.6 81.3 42.8 81.6Q43.0 81.9 43.6 81.9L43.6 81.9Q43.7 81.9 43.9 81.8Q44.1 81.8 44.3 81.8L44.3 81.8L44.6 83.0Q44.4 83.0 44.1 83.1Q43.8 83.1 43.6 83.1L43.6 83.1Q42.4 83.1 41.8 82.5Q41.2 81.9 41.2 80.8L41.2 80.8L41.2 75.5L39.9 75.5L39.9 74.3L41.2 74.3L41.2 72.2L42.6 72.2L42.6 74.3ZM46.2 71.4L47.6 71.4L47.6 83L46.2 83L46.2 71.4ZM51.4 83L50.0 83L50.0 74.3L51.4 74.3L51.4 83ZM50.8 72.8L50.8 72.8Q50.4 72.8 50.1 72.6Q49.8 72.3 49.8 71.9L49.8 71.9Q49.8 71.5 50.1 71.2Q50.4 71.0 50.8 71.0L50.8 71.0Q51.2 71.0 51.4 71.2Q51.7 71.5 51.7 71.9L51.7 71.9Q51.7 72.3 51.4 72.6Q51.2 72.8 50.8 72.8ZM55.3 77.8L55.3 77.8L55.3 83L53.9 83L53.9 74.3L55.3 74.3L55.3 75.9Q55.6 75.1 56.2 74.7L56.2 74.7Q57.0 74.2 57.9 74.2L57.9 74.2Q58.8 74.2 59.5 74.5Q60.2 74.9 60.5 75.6Q60.9 76.3 60.9 77.5L60.9 77.5L60.9 83L59.5 83L59.5 77.6Q59.5 76.6 59.0 76.0Q58.4 75.4 57.5 75.4L57.5 75.4Q56.9 75.4 56.4 75.7Q55.9 76.0 55.6 76.5Q55.3 77.0 55.3 77.8ZM67.0 83.2L67.0 83.2Q65.8 83.2 64.9 82.6Q63.9 82.1 63.4 81.1Q62.9 80.0 62.9 78.7Q62.9 77.4 63.4 76.3Q63.9 75.3 64.8 74.7Q65.7 74.2 66.9 74.2L66.9 74.2Q67.6 74.2 68.2 74.4Q68.9 74.6 69.5 75.1Q70.0 75.6 70.4 76.5Q70.7 77.3 70.7 78.5L70.7 78.5L70.7 79.1L64.4 79.1Q64.4 80.0 64.7 80.6L64.7 80.6Q65.0 81.2 65.6 81.6Q66.3 81.9 67.0 81.9L67.0 81.9Q67.6 81.9 68.0 81.8Q68.4 81.6 68.7 81.3Q69.0 81.0 69.2 80.6L69.2 80.6L70.5 81.0Q70.3 81.6 69.9 82.1Q69.4 82.6 68.7 82.9Q67.9 83.2 67.0 83.2ZM64.4 77.9L64.4 77.9L69.3 77.9Q69.2 77.3 69 76.8L69 76.8Q68.7 76.2 68.2 75.8Q67.7 75.4 66.9 75.4Q66.1 75.4 65.5 75.8Q65.0 76.2 64.7 76.8L64.7 76.8Q64.4 77.3 64.4 77.9Z "/></g><mask id="satori_om-id-0-2"><rect x="6" y="114" width="79" height="40" fill="#fff"/></mask><g  ><path fill="rgb(0, 0, 0)" d="M28.2 140.2L28.2 140.2Q26.6 140.2 25.4 139.4Q24.3 138.7 23.6 137.4Q23.0 136.0 23.0 134.2L23.0 134.2Q23.0 132.3 23.6 131.0Q24.3 129.7 25.4 128.9Q26.6 128.2 28.1 128.2L28.1 128.2Q29.0 128.2 29.8 128.5Q30.6 128.8 31.2 129.3Q31.9 129.8 32.3 130.5Q32.7 131.2 32.9 132.0L32.9 132.0L31.3 132.0Q31.1 131.4 30.8 131Q30.5 130.6 30.1 130.2Q29.7 129.9 29.2 129.7Q28.7 129.6 28.1 129.6L28.1 129.6Q27.1 129.6 26.2 130.1Q25.4 130.6 24.9 131.7Q24.4 132.7 24.4 134.2L24.4 134.2Q24.4 135.7 24.9 136.7Q25.4 137.7 26.2 138.3Q27.1 138.8 28.2 138.8L28.2 138.8Q29.1 138.8 29.9 138.4Q30.6 137.9 31.1 137.2L31.1 137.2Q31.5 136.4 31.5 135.4L31.5 135.4L28.5 135.4L28.5 134.1L32.9 134.1L32.9 135.4Q32.9 136.9 32.3 137.9Q31.7 139.0 30.6 139.6Q29.6 140.2 28.2 140.2ZM36.6 134.8L36.6 134.8L36.6 140L35.2 140L35.2 128.4L36.6 128.4L36.6 132.8Q36.9 132.0 37.5 131.7L37.5 131.7Q38.2 131.2 39.2 131.2L39.2 131.2Q40.1 131.2 40.8 131.5Q41.4 131.9 41.8 132.6Q42.2 133.3 42.2 134.5L42.2 134.5L42.2 140L40.8 140L40.8 134.6Q40.8 133.6 40.2 133.0Q39.7 132.4 38.8 132.4L38.8 132.4Q38.2 132.4 37.7 132.7Q37.2 133.0 36.9 133.5Q36.6 134.0 36.6 134.8ZM48.2 140.2L48.2 140.2Q47 140.2 46.1 139.6Q45.2 139.1 44.7 138.0Q44.2 137.0 44.2 135.7L44.2 135.7Q44.2 134.3 44.7 133.3Q45.2 132.3 46.1 131.7Q47 131.2 48.2 131.2L48.2 131.2Q49.4 131.2 50.3 131.7Q51.2 132.3 51.7 133.3Q52.2 134.3 52.2 135.7L52.2 135.7Q52.2 137.0 51.7 138.0Q51.2 139.1 50.3 139.6Q49.4 140.2 48.2 140.2ZM48.2 138.9L48.2 138.9Q49.1 138.9 49.6 138.5Q50.2 138.0 50.5 137.3Q50.8 136.5 50.8 135.7L50.8 135.7Q50.8 134.8 50.5 134.1Q50.2 133.3 49.6 132.9Q49.1 132.4 48.2 132.4L48.2 132.4Q47.3 132.4 46.8 132.9Q46.2 133.3 45.9 134.1Q45.6 134.8 45.6 135.7L45.6 135.7Q45.6 136.5 45.9 137.3Q46.2 138.0 46.8 138.5Q47.3 138.9 48.2 138.9ZM57.2 140.2L57.2 140.2Q56.3 140.2 55.6 139.9Q54.9 139.7 54.4 139.1Q54.0 138.6 53.8 137.9L53.8 137.9L55.2 137.6Q55.4 138.3 55.9 138.6Q56.4 139.0 57.2 139.0L57.2 139.0Q58.1 139.0 58.6 138.6Q59.2 138.2 59.2 137.6L59.2 137.6Q59.2 137.2 58.9 136.9Q58.5 136.6 57.9 136.4L57.9 136.4L56.4 136.1Q55.3 135.8 54.7 135.2Q54.1 134.6 54.1 133.7L54.1 133.7Q54.1 133.0 54.5 132.4Q54.9 131.8 55.7 131.5Q56.4 131.2 57.3 131.2L57.3 131.2Q58.2 131.2 58.9 131.4Q59.5 131.7 59.9 132.2Q60.3 132.6 60.5 133.3L60.5 133.3L59.2 133.6Q59.0 133.1 58.6 132.7Q58.2 132.4 57.3 132.4L57.3 132.4Q56.6 132.4 56.0 132.7Q55.5 133.1 55.5 133.6L55.5 133.6Q55.5 134.1 55.9 134.4Q56.2 134.7 57.0 134.9L57.0 134.9L58.3 135.2Q59.5 135.5 60.1 136.1Q60.6 136.6 60.6 137.5L60.6 137.5Q60.6 138.3 60.2 138.9Q59.8 139.5 59.0 139.8Q58.2 140.2 57.2 140.2ZM64.3 131.3L66.1 131.3L66.1 132.5L64.3 132.5L64.3 137.7Q64.3 138.3 64.6 138.6Q64.8 138.9 65.3 138.9L65.3 138.9Q65.5 138.9 65.7 138.8Q65.9 138.8 66.1 138.8L66.1 138.8L66.4 140.0Q66.1 140.0 65.9 140.1Q65.6 140.1 65.3 140.1L65.3 140.1Q64.2 140.1 63.5 139.5Q62.9 138.9 62.9 137.8L62.9 137.8L62.9 132.5L61.6 132.5L61.6 131.3L62.9 131.3L62.9 129.2L64.3 129.2L64.3 131.3Z "/></g></svg>