<svg width="185" height="168" viewBox="0 0 185 168" xmlns="http://www.w3.org/2000/svg"><mask id="satori_om-id"><rect x="0" y="0" width="184" height="168" fill="#fff"/></mask><mask id="satori_om-id-0"><rect x="0" y="0" width="184" height="168" fill="#fff"/></mask><mask id="satori_om-id-0-0"><rect x="0" y="0" width="184" height="32" fill="#fff"/></mask><mask id="satori_om-id-0-0-0"><rect x="4" y="4" width="48" height="24" fill="#fff"/></mask><g  ><path fill="rgb(0, 0, 0)" d="M12.3 22L5.4 22L5.4 10.4L6.9 10.4L6.9 20.7L12.3 20.7L12.3 22ZM15.7 22L14.3 22L14.3 13.3L15.7 13.3L15.7 22ZM15.0 11.8L15.0 11.8Q14.6 11.8 14.3 11.6Q14.0 11.3 14.0 10.9L14.0 10.9Q14.0 10.5 14.3 10.2Q14.6 10.0 15.0 10.0L15.0 10.0Q15.4 10.0 15.7 10.2Q16.0 10.5 16.0 10.9L16.0 10.9Q16.0 11.3 15.7 11.6Q15.4 11.8 15.0 11.8ZM19.6 16.8L19.6 16.8L19.6 22L18.2 22L18.2 13.3L19.5 13.3L19.5 14.9Q19.9 14.1 20.5 13.7L20.5 13.7Q21.2 13.2 22.2 13.2L22.2 13.2Q23.1 13.2 23.7 13.5Q24.4 13.9 24.8 14.6Q25.1 15.3 25.1 16.5L25.1 16.5L25.1 22L23.7 22L23.7 16.6Q23.7 15.6 23.2 15.0Q22.7 14.4 21.8 14.4L21.8 14.4Q21.1 14.4 20.6 14.7Q20.1 15.0 19.9 15.5Q19.6 16.0 19.6 16.8ZM29.0 22L27.6 22L27.6 10.4L29.0 10.4L29.0 17.1L29.2 17.1L32.9 13.3L34.7 13.3L31.0 17.0L34.9 22L33.1 22L29.9 17.9L29.0 18.8L29.0 22Z M42.9 10.4L44.8 10.4L44.8 22L43.3 22L43.3 11.7L43.2 11.7L40.4 13.8L40.4 12.2L42.9 10.4Z "/></g><mask id="satori_om-id-0-0-1"><rect x="68" y="4" width="48" height="24" fill="#fff"/></mask><g  ><path fill="rgb(0, 0, 0)" d="M76.3 22L69.4 22L69.4 10.4L70.9 10.4L70.9 20.7L76.3 20.7L76.3 22ZM79.7 22L78.3 22L78.3 13.3L79.7 13.3L79.7 22ZM79.0 11.8L79.0 11.8Q78.6 11.8 78.3 11.6Q78.0 11.3 78.0 10.9L78.0 10.9Q78.0 10.5 78.3 10.2Q78.6 10.0 79.0 10.0L79.0 10.0Q79.4 10.0 79.7 10.2Q80.0 10.5 80.0 10.9L80.0 10.9Q80.0 11.3 79.7 11.6Q79.4 11.8 79.0 11.8ZM83.6 16.8L83.6 16.8L83.6 22L82.2 22L82.2 13.3L83.5 13.3L83.5 14.9Q83.9 14.1 84.5 13.7L84.5 13.7Q85.2 13.2 86.2 13.2L86.2 13.2Q87.1 13.2 87.7 13.5Q88.4 13.9 88.8 14.6Q89.1 15.3 89.1 16.5L89.1 16.5L89.1 22L87.7 22L87.7 16.6Q87.7 15.6 87.2 15.0Q86.7 14.4 85.8 14.4L85.8 14.4Q85.1 14.4 84.6 14.7Q84.1 15.0 83.9 15.5Q83.6 16.0 83.6 16.8ZM93.0 22L91.6 22L91.6 10.4L93.0 10.4L93.0 17.1L93.2 17.1L96.9 13.3L98.7 13.3L95.0 17.0L98.9 22L97.1 22L93.9 17.9L93.0 18.8L93.0 22Z M112.3 22L104.9 22L104.9 20.9L108.7 16.7Q109.4 16.0 109.8 15.5Q110.2 15.0 110.5 14.5Q110.7 14.0 110.7 13.5L110.7 13.5Q110.7 12.9 110.4 12.4Q110.1 12.0 109.6 11.7Q109.1 11.5 108.5 11.5L108.5 11.5Q107.8 11.5 107.3 11.8Q106.8 12.0 106.6 12.5Q106.3 13.0 106.3 13.7L106.3 13.7L104.9 13.7Q104.9 12.6 105.4 11.9Q105.8 11.1 106.7 10.6Q107.5 10.2 108.5 10.2L108.5 10.2Q109.6 10.2 110.4 10.6Q111.2 11.1 111.6 11.8Q112.1 12.5 112.1 13.5L112.1 13.5Q112.1 14.1 111.9 14.7Q111.6 15.3 111.1 16.0Q110.5 16.8 109.5 17.9L109.5 17.9L106.9 20.6L106.9 20.7L112.3 20.7L112.3 22Z "/></g><mask id="satori_om-id-0-0-2"><rect x="132" y="4" width="48" height="24" fill="#fff"/></mask><g  ><path fill="rgb(0, 0, 0)" d="M140.3 22L133.4 22L133.4 10.4L134.9 10.4L134.9 20.7L140.3 20.7L140.3 22ZM143.7 22L142.3 22L142.3 13.3L143.7 13.3L143.7 22ZM143.0 11.8L143.0 11.8Q142.6 11.8 142.3 11.6Q142.0 11.3 142.0 10.9L142.0 10.9Q142.0 10.5 142.3 10.2Q142.6 10.0 143.0 10.0L143.0 10.0Q143.4 10.0 143.7 10.2Q144.0 10.5 144.0 10.9L144.0 10.9Q144.0 11.3 143.7 11.6Q143.4 11.8 143.0 11.8ZM147.6 16.8L147.6 16.8L147.6 22L146.2 22L146.2 13.3L147.5 13.3L147.5 14.9Q147.9 14.1 148.5 13.7L148.5 13.7Q149.2 13.2 150.2 13.2L150.2 13.2Q151.1 13.2 151.7 13.5Q152.4 13.9 152.8 14.6Q153.1 15.3 153.1 16.5L153.1 16.5L153.1 22L151.7 22L151.7 16.6Q151.7 15.6 151.2 15.0Q150.7 14.4 149.8 14.4L149.8 14.4Q149.1 14.4 148.6 14.7Q148.1 15.0 147.9 15.5Q147.6 16.0 147.6 16.8ZM157.0 22L155.6 22L155.6 10.4L157.0 10.4L157.0 17.1L157.2 17.1L160.9 13.3L162.7 13.3L159.0 17.0L162.9 22L161.1 22L157.9 17.9L157.0 18.8L157.0 22Z M172.6 22.2L172.6 22.2Q171.5 22.2 170.6 21.8Q169.7 21.4 169.2 20.7Q168.7 20.0 168.6 19.1L168.6 19.1L170.1 19.1Q170.2 19.6 170.5 20.0Q170.8 20.4 171.4 20.6Q171.9 20.9 172.6 20.9L172.6 20.9Q173.3 20.9 173.9 20.6Q174.5 20.3 174.8 19.9Q175.1 19.4 175.1 18.8L175.1 18.8Q175.1 18.2 174.8 17.7Q174.5 17.2 173.9 17.0Q173.3 16.7 172.4 16.7L172.4 16.7L171.5 16.7L171.5 15.4L172.4 15.4Q173.1 15.4 173.6 15.1Q174.1 14.9 174.4 14.5Q174.7 14.0 174.7 13.4L174.7 13.4Q174.7 12.8 174.5 12.4Q174.2 12.0 173.7 11.7Q173.3 11.5 172.6 11.5L172.6 11.5Q172.0 11.5 171.5 11.7Q171 11.9 170.7 12.3Q170.3 12.7 170.3 13.3L170.3 13.3L168.9 13.3Q168.9 12.4 169.4 11.7Q169.9 11.0 170.8 10.6Q171.6 10.2 172.7 10.2L172.7 10.2Q173.8 10.2 174.5 10.6Q175.3 11.1 175.7 11.8Q176.2 12.5 176.2 13.3L176.2 13.3Q176.2 14.3 175.6 15Q175.1 15.7 174.2 16.0L174.2 16.0L174.2 16.0Q175.0 16.2 175.5 16.5Q176.0 16.9 176.3 17.5Q176.6 18.1 176.6 18.8L176.6 18.8Q176.6 19.8 176.1 20.5Q175.6 21.3 174.7 21.7Q173.8 22.2 172.6 22.2Z "/></g><mask id="satori_om-id-0-1"><rect x="0" y="48" width="184" height="120" fill="#fff"/></mask><mask id="satori_om-id-0-1-0"><rect x="0" y="48" width="0" height="0" fill="#fff"/></mask><mask id="satori_om-id-0-1-0-0"><rect x="0" y="48" width="184" height="120" fill="#fff"/></mask><mask id="satori_om-id-0-1-0-0-0"><rect x="0" y="64" width="184" height="0" fill="#fff"/></mask><g  ><path fill="rgba(9, 9, 9, 1)" d="M6.1 82.2L6.1 82.2Q4.6 82.2 3.5 81.4Q2.3 80.7 1.6 79.4Q1.0 78.0 1.0 76.2L1.0 76.2Q1.0 74.3 1.6 73.0Q2.3 71.7 3.5 70.9Q4.6 70.2 6.1 70.2L6.1 70.2Q7.6 70.2 8.8 70.9Q9.9 71.7 10.6 73.0Q11.3 74.3 11.3 76.2L11.3 76.2Q11.3 78.0 10.6 79.4Q9.9 80.7 8.8 81.4Q7.6 82.2 6.1 82.2ZM6.1 80.8L6.1 80.8Q7.2 80.8 8.0 80.3Q8.8 79.7 9.3 78.7Q9.8 77.7 9.8 76.2L9.8 76.2Q9.8 74.7 9.3 73.7Q8.8 72.6 8.0 72.1Q7.2 71.6 6.1 71.6L6.1 71.6Q5.1 71.6 4.2 72.1Q3.4 72.6 2.9 73.7Q2.4 74.7 2.4 76.2L2.4 76.2Q2.4 77.7 2.9 78.7Q3.4 79.7 4.2 80.3Q5.1 80.8 6.1 80.8ZM14.9 76.8L14.9 76.8L14.9 82L13.5 82L13.5 73.3L14.8 73.3L14.8 74.9Q15.2 74.1 15.8 73.7L15.8 73.7Q16.5 73.2 17.5 73.2L17.5 73.2Q18.4 73.2 19.0 73.5Q19.7 73.9 20.1 74.6Q20.5 75.3 20.5 76.5L20.5 76.5L20.5 82L19.0 82L19.0 76.6Q19.0 75.6 18.5 75.0Q18.0 74.4 17.1 74.4L17.1 74.4Q16.5 74.4 16.0 74.7Q15.5 75.0 15.2 75.5Q14.9 76.0 14.9 76.8Z M29.1 73.3L30.9 73.3L30.9 74.5L29.1 74.5L29.1 79.7Q29.1 80.3 29.3 80.6Q29.5 80.9 30.1 80.9L30.1 80.9Q30.2 80.9 30.4 80.8Q30.6 80.8 30.8 80.8L30.8 80.8L31.1 82.0Q30.9 82.0 30.6 82.1Q30.3 82.1 30.1 82.1L30.1 82.1Q28.9 82.1 28.3 81.5Q27.7 80.9 27.7 79.8L27.7 79.8L27.7 74.5L26.3 74.5L26.3 73.3L27.7 73.3L27.7 71.2L29.1 71.2L29.1 73.3ZM34.1 76.8L34.1 76.8L34.1 82L32.7 82L32.7 70.4L34.1 70.4L34.1 74.8Q34.4 74.0 35.0 73.7L35.0 73.7Q35.7 73.2 36.7 73.2L36.7 73.2Q37.6 73.2 38.2 73.5Q38.9 73.9 39.3 74.6Q39.6 75.3 39.6 76.5L39.6 76.5L39.6 82L38.2 82L38.2 76.6Q38.2 75.6 37.7 75.0Q37.2 74.4 36.3 74.4L36.3 74.4Q35.6 74.4 35.1 74.7Q34.6 75.0 34.4 75.5Q34.1 76.0 34.1 76.8ZM43.5 82L42.1 82L42.1 73.3L43.5 73.3L43.5 82ZM42.8 71.8L42.8 71.8Q42.4 71.8 42.1 71.6Q41.9 71.3 41.9 70.9L41.9 70.9Q41.9 70.5 42.1 70.2Q42.4 70.0 42.8 70.0L42.8 70.0Q43.2 70.0 43.5 70.2Q43.8 70.5 43.8 70.9L43.8 70.9Q43.8 71.3 43.5 71.6Q43.2 71.8 42.8 71.8ZM49.0 82.2L49.0 82.2Q48.1 82.2 47.4 81.9Q46.7 81.7 46.2 81.1Q45.8 80.6 45.6 79.9L45.6 79.9L46.9 79.6Q47.1 80.3 47.6 80.6Q48.2 81.0 48.9 81.0L48.9 81.0Q49.9 81.0 50.4 80.6Q50.9 80.2 50.9 79.6L50.9 79.6Q50.9 79.2 50.6 78.9Q50.3 78.6 49.7 78.4L49.7 78.4L48.2 78.1Q47.0 77.8 46.4 77.2Q45.9 76.6 45.9 75.7L45.9 75.7Q45.9 75.0 46.3 74.4Q46.7 73.8 47.4 73.5Q48.2 73.2 49.1 73.2L49.1 73.2Q50 73.2 50.6 73.4Q51.3 73.7 51.7 74.2Q52.0 74.6 52.2 75.3L52.2 75.3L51.0 75.6Q50.8 75.1 50.4 74.7Q50.0 74.4 49.1 74.4L49.1 74.4Q48.3 74.4 47.8 74.7Q47.3 75.1 47.3 75.6L47.3 75.6Q47.3 76.1 47.6 76.4Q48.0 76.7 48.8 76.9L48.8 76.9L50.1 77.2Q51.3 77.5 51.8 78.1Q52.4 78.6 52.4 79.5L52.4 79.5Q52.4 80.3 52.0 80.9Q51.5 81.5 50.8 81.8Q50.0 82.2 49.0 82.2Z M60.3 85.3L58.9 85.3L58.9 73.3L60.3 73.3L60.3 74.7L60.5 74.7Q60.6 74.4 60.9 74.1Q61.1 73.7 61.6 73.4Q62.1 73.2 63.0 73.2L63.0 73.2Q64.1 73.2 64.9 73.7Q65.7 74.3 66.2 75.3Q66.7 76.3 66.7 77.7L66.7 77.7Q66.7 79.0 66.2 80.1Q65.8 81.1 64.9 81.6Q64.1 82.2 63.0 82.2L63.0 82.2Q62.2 82.2 61.7 81.9Q61.1 81.6 60.9 81.3Q60.6 80.9 60.5 80.6L60.5 80.6L60.3 80.6L60.3 85.3ZM62.8 80.9L62.8 80.9Q63.6 80.9 64.2 80.5Q64.7 80.0 65.0 79.3Q65.3 78.6 65.3 77.6L65.3 77.6Q65.3 76.7 65.0 76.0Q64.7 75.3 64.2 74.8Q63.6 74.4 62.8 74.4L62.8 74.4Q62.0 74.4 61.4 74.8Q60.9 75.2 60.6 75.9Q60.3 76.7 60.3 77.6L60.3 77.6Q60.3 78.6 60.6 79.4Q60.9 80.1 61.4 80.5Q62.0 80.9 62.8 80.9ZM71.2 82.2L71.2 82.2Q70.4 82.2 69.7 81.9Q69 81.6 68.6 81.0Q68.2 80.4 68.2 79.5L68.2 79.5Q68.2 78.8 68.5 78.3Q68.8 77.8 69.3 77.6Q69.8 77.3 70.4 77.2Q71.0 77.0 71.6 76.9L71.6 76.9Q72.4 76.8 72.9 76.8Q73.4 76.7 73.6 76.6Q73.8 76.5 73.8 76.1L73.8 76.1L73.8 76.1Q73.8 75.6 73.6 75.2Q73.4 74.8 73.0 74.6Q72.6 74.4 72.0 74.4L72.0 74.4Q71.4 74.4 70.9 74.6Q70.5 74.8 70.2 75.1Q69.9 75.4 69.8 75.7L69.8 75.7L68.5 75.2Q68.8 74.4 69.4 74.0Q69.9 73.5 70.6 73.3Q71.3 73.2 72.0 73.2L72.0 73.2Q72.4 73.2 73.0 73.3Q73.5 73.4 74.1 73.7Q74.6 74.0 74.9 74.6Q75.3 75.2 75.3 76.2L75.3 76.2L75.3 82L73.9 82L73.9 80.8L73.8 80.8Q73.6 81.1 73.3 81.4Q73.0 81.8 72.4 82.0Q71.9 82.2 71.2 82.2ZM71.4 81.0L71.4 81.0Q72.2 81.0 72.7 80.7Q73.3 80.4 73.6 79.9Q73.8 79.4 73.8 78.8L73.8 78.8L73.8 77.6Q73.8 77.7 73.5 77.8Q73.2 77.9 72.8 78.0Q72.4 78.0 72.1 78.1Q71.7 78.1 71.5 78.1L71.5 78.1Q71.0 78.2 70.6 78.3Q70.1 78.5 69.9 78.8Q69.6 79.1 69.6 79.6L69.6 79.6Q69.6 80.0 69.9 80.3Q70.1 80.6 70.5 80.8Q70.9 81.0 71.4 81.0ZM81.3 85.5L81.3 85.5Q80.3 85.5 79.6 85.2Q78.9 85.0 78.4 84.6Q77.9 84.1 77.7 83.7L77.7 83.7L78.8 82.9Q79.0 83.2 79.3 83.5Q79.5 83.8 80.0 84.0Q80.5 84.2 81.3 84.2L81.3 84.2Q82.3 84.2 83.0 83.7Q83.7 83.2 83.7 82.1L83.7 82.1L83.7 80.4L83.5 80.4Q83.4 80.6 83.1 81.0Q82.8 81.3 82.3 81.6Q81.8 81.9 81.0 81.9L81.0 81.9Q79.9 81.9 79.1 81.4Q78.3 80.9 77.8 79.9Q77.3 79.0 77.3 77.6L77.3 77.6Q77.3 76.2 77.8 75.2Q78.3 74.3 79.1 73.7Q79.9 73.2 81.0 73.2L81.0 73.2Q81.9 73.2 82.4 73.4Q82.9 73.7 83.1 74.1Q83.4 74.4 83.6 74.7L83.6 74.7L83.7 74.7L83.7 73.3L85.1 73.3L85.1 82.2Q85.1 83.4 84.6 84.1Q84.0 84.8 83.2 85.1Q82.3 85.5 81.3 85.5ZM81.2 80.6L81.2 80.6Q82.0 80.6 82.6 80.2Q83.1 79.9 83.4 79.2Q83.7 78.5 83.7 77.6L83.7 77.6Q83.7 76.6 83.4 75.9Q83.1 75.2 82.6 74.8Q82.0 74.4 81.2 74.4L81.2 74.4Q80.4 74.4 79.8 74.8Q79.3 75.3 79.0 76.0Q78.7 76.7 78.7 77.6L78.7 77.6Q78.7 78.5 79.0 79.1Q79.3 79.8 79.8 80.2Q80.4 80.6 81.2 80.6ZM91.2 82.2L91.2 82.2Q89.9 82.2 89.0 81.6Q88.1 81.1 87.6 80.1Q87.1 79.0 87.1 77.7Q87.1 76.4 87.6 75.3Q88.1 74.3 89.0 73.7Q89.9 73.2 91.0 73.2L91.0 73.2Q91.7 73.2 92.4 73.4Q93.1 73.6 93.6 74.1Q94.2 74.6 94.5 75.5Q94.8 76.3 94.8 77.5L94.8 77.5L94.8 78.1L88.5 78.1Q88.6 79.0 88.9 79.6L88.9 79.6Q89.2 80.2 89.8 80.6Q90.4 80.9 91.2 80.9L91.2 80.9Q91.7 80.9 92.1 80.8Q92.6 80.6 92.9 80.3Q93.2 80.0 93.3 79.6L93.3 79.6L94.7 80.0Q94.5 80.6 94.0 81.1Q93.5 81.6 92.8 81.9Q92.1 82.2 91.2 82.2ZM88.5 76.9L88.5 76.9L93.4 76.9Q93.4 76.3 93.2 75.8L93.2 75.8Q92.9 75.2 92.4 74.8Q91.8 74.4 91.0 74.4Q90.3 74.4 89.7 74.8Q89.1 75.2 88.8 75.8L88.8 75.8Q88.6 76.3 88.5 76.9Z "/></g><mask id="satori_om-id-0-1-0-0-1"><rect x="0" y="96" width="184" height="80" fill="#fff"/></mask><mask id="satori_om-id-0-1-0-0-1-0"><rect x="0" y="96" width="184" height="24" fill="#fff"/></mask><mask id="satori_om-id-0-1-0-0-1-0-0"><rect x="0" y="96" width="43" height="24" fill="#fff"/></mask><g  ><path fill="rgb(0, 0, 0)" d="M8.3 114L1.4 114L1.4 102.4L2.9 102.4L2.9 112.7L8.3 112.7L8.3 114ZM11.7 114L10.3 114L10.3 105.3L11.7 105.3L11.7 114ZM11.0 103.8L11.0 103.8Q10.6 103.8 10.3 103.6Q10.0 103.3 10.0 102.9L10.0 102.9Q10.0 102.5 10.3 102.2Q10.6 102.0 11.0 102.0L11.0 102.0Q11.4 102.0 11.7 102.2Q12.0 102.5 12.0 102.9L12.0 102.9Q12.0 103.3 11.7 103.6Q11.4 103.8 11.0 103.8ZM15.6 108.8L15.6 108.8L15.6 114L14.2 114L14.2 105.3L15.5 105.3L15.5 106.9Q15.9 106.1 16.5 105.7L16.5 105.7Q17.2 105.2 18.2 105.2L18.2 105.2Q19.1 105.2 19.7 105.5Q20.4 105.9 20.8 106.6Q21.1 107.3 21.1 108.5L21.1 108.5L21.1 114L19.7 114L19.7 108.6Q19.7 107.6 19.2 107.0Q18.7 106.4 17.8 106.4L17.8 106.4Q17.1 106.4 16.6 106.7Q16.1 107.0 15.9 107.5Q15.6 108.0 15.6 108.8ZM25.0 114L23.6 114L23.6 102.4L25.0 102.4L25.0 109.1L25.2 109.1L28.9 105.3L30.7 105.3L27.0 109.0L30.9 114L29.1 114L25.9 109.9L25.0 110.8L25.0 114Z M38.9 102.4L40.8 102.4L40.8 114L39.3 114L39.3 103.7L39.2 103.7L36.4 105.8L36.4 104.2L38.9 102.4Z "/></g><mask id="satori_om-id-0-1-0-0-1-1"><rect x="0" y="124" width="184" height="24" fill="#fff"/></mask><mask id="satori_om-id-0-1-0-0-1-1-0"><rect x="0" y="124" width="46" height="24" fill="#fff"/></mask><g  ><path fill="rgb(0, 0, 0)" d="M8.3 142L1.4 142L1.4 130.4L2.9 130.4L2.9 140.7L8.3 140.7L8.3 142ZM11.7 142L10.3 142L10.3 133.3L11.7 133.3L11.7 142ZM11.0 131.8L11.0 131.8Q10.6 131.8 10.3 131.6Q10.0 131.3 10.0 130.9L10.0 130.9Q10.0 130.5 10.3 130.2Q10.6 130.0 11.0 130.0L11.0 130.0Q11.4 130.0 11.7 130.2Q12.0 130.5 12.0 130.9L12.0 130.9Q12.0 131.3 11.7 131.6Q11.4 131.8 11.0 131.8ZM15.6 136.8L15.6 136.8L15.6 142L14.2 142L14.2 133.3L15.5 133.3L15.5 134.9Q15.9 134.1 16.5 133.7L16.5 133.7Q17.2 133.2 18.2 133.2L18.2 133.2Q19.1 133.2 19.7 133.5Q20.4 133.9 20.8 134.6Q21.1 135.3 21.1 136.5L21.1 136.5L21.1 142L19.7 142L19.7 136.6Q19.7 135.6 19.2 135.0Q18.7 134.4 17.8 134.4L17.8 134.4Q17.1 134.4 16.6 134.7Q16.1 135.0 15.9 135.5Q15.6 136.0 15.6 136.8ZM25.0 142L23.6 142L23.6 130.4L25.0 130.4L25.0 137.1L25.2 137.1L28.9 133.3L30.7 133.3L27.0 137.0L30.9 142L29.1 142L25.9 137.9L25.0 138.8L25.0 142Z M44.3 142L36.9 142L36.9 140.9L40.7 136.7Q41.4 136.0 41.8 135.5Q42.2 135.0 42.5 134.5Q42.7 134.0 42.7 133.5L42.7 133.5Q42.7 132.9 42.4 132.4Q42.1 132.0 41.6 131.7Q41.1 131.5 40.5 131.5L40.5 131.5Q39.8 131.5 39.3 131.8Q38.8 132.0 38.6 132.5Q38.3 133.0 38.3 133.7L38.3 133.7L36.9 133.7Q36.9 132.6 37.4 131.9Q37.8 131.1 38.7 130.6Q39.5 130.2 40.5 130.2L40.5 130.2Q41.6 130.2 42.4 130.6Q43.2 131.1 43.6 131.8Q44.1 132.5 44.1 133.5L44.1 133.5Q44.1 134.1 43.9 134.7Q43.6 135.3 43.1 136.0Q42.5 136.8 41.5 137.9L41.5 137.9L38.9 140.6L38.9 140.7L44.3 140.7L44.3 142Z "/></g><mask id="satori_om-id-0-1-0-0-1-2"><rect x="0" y="152" width="184" height="24" fill="#fff"/></mask><mask id="satori_om-id-0-1-0-0-1-2-0"><rect x="0" y="152" width="46" height="24" fill="#fff"/></mask><g  ><path fill="rgb(0, 0, 0)" d="M8.3 170L1.4 170L1.4 158.4L2.9 158.4L2.9 168.7L8.3 168.7L8.3 170ZM11.7 170L10.3 170L10.3 161.3L11.7 161.3L11.7 170ZM11.0 159.8L11.0 159.8Q10.6 159.8 10.3 159.6Q10.0 159.3 10.0 158.9L10.0 158.9Q10.0 158.5 10.3 158.2Q10.6 158.0 11.0 158.0L11.0 158.0Q11.4 158.0 11.7 158.2Q12.0 158.5 12.0 158.9L12.0 158.9Q12.0 159.3 11.7 159.6Q11.4 159.8 11.0 159.8ZM15.6 164.8L15.6 164.8L15.6 170L14.2 170L14.2 161.3L15.5 161.3L15.5 162.9Q15.9 162.1 16.5 161.7L16.5 161.7Q17.2 161.2 18.2 161.2L18.2 161.2Q19.1 161.2 19.7 161.5Q20.4 161.9 20.8 162.6Q21.1 163.3 21.1 164.5L21.1 164.5L21.1 170L19.7 170L19.7 164.6Q19.7 163.6 19.2 163.0Q18.7 162.4 17.8 162.4L17.8 162.4Q17.1 162.4 16.6 162.7Q16.1 163.0 15.9 163.5Q15.6 164.0 15.6 164.8ZM25.0 170L23.6 170L23.6 158.4L25.0 158.4L25.0 165.1L25.2 165.1L28.9 161.3L30.7 161.3L27.0 165.0L30.9 170L29.1 170L25.9 165.9L25.0 166.8L25.0 170Z M40.6 170.2L40.6 170.2Q39.5 170.2 38.6 169.8Q37.7 169.4 37.2 168.7Q36.7 168.0 36.6 167.1L36.6 167.1L38.1 167.1Q38.2 167.6 38.5 168.0Q38.8 168.4 39.4 168.6Q39.9 168.9 40.6 168.9L40.6 168.9Q41.3 168.9 41.9 168.6Q42.5 168.3 42.8 167.9Q43.1 167.4 43.1 166.8L43.1 166.8Q43.1 166.2 42.8 165.7Q42.5 165.2 41.9 165.0Q41.3 164.7 40.4 164.7L40.4 164.7L39.5 164.7L39.5 163.4L40.4 163.4Q41.1 163.4 41.6 163.1Q42.1 162.9 42.4 162.5Q42.7 162.0 42.7 161.4L42.7 161.4Q42.7 160.8 42.5 160.4Q42.2 160.0 41.7 159.7Q41.3 159.5 40.6 159.5L40.6 159.5Q40.0 159.5 39.5 159.7Q39 159.9 38.7 160.3Q38.3 160.7 38.3 161.3L38.3 161.3L36.9 161.3Q36.9 160.4 37.4 159.7Q37.9 159.0 38.8 158.6Q39.6 158.2 40.7 158.2L40.7 158.2Q41.8 158.2 42.5 158.6Q43.3 159.1 43.7 159.8Q44.2 160.5 44.2 161.3L44.2 161.3Q44.2 162.3 43.6 163Q43.1 163.7 42.2 164.0L42.2 164.0L42.2 164.0Q43.0 164.2 43.5 164.5Q44.0 164.9 44.3 165.5Q44.6 166.1 44.6 166.8L44.6 166.8Q44.6 167.8 44.1 168.5Q43.6 169.3 42.7 169.7Q41.8 170.2 40.6 170.2Z "/></g></svg>