<svg width="209" height="92" viewBox="0 0 209 92" xmlns="http://www.w3.org/2000/svg"><mask id="satori_om-id"><rect x="0" y="0" width="208" height="92" fill="#fff"/></mask><mask id="satori_om-id-0"><rect x="0" y="0" width="208" height="92" fill="#fff"/></mask><mask id="satori_om-id-0-0"><rect x="0" y="0" width="50" height="92" fill="#fff"/></mask><mask id="satori_om-id-0-0-0"><rect x="0" y="20" width="50" height="0" fill="#fff"/></mask><g  ><path fill="rgb(0, 0, 0)" d="M4.4 27.7L0.8 27.7L0.8 26.4L9.6 26.4L9.6 27.7L5.9 27.7L5.9 38L4.4 38L4.4 27.7ZM13.0 38L11.6 38L11.6 29.3L13.0 29.3L13.0 38ZM12.3 27.8L12.3 27.8Q11.9 27.8 11.6 27.6Q11.3 27.3 11.3 26.9L11.3 26.9Q11.3 26.5 11.6 26.2Q11.9 26.0 12.3 26.0L12.3 26.0Q12.7 26.0 13.0 26.2Q13.3 26.5 13.3 26.9L13.3 26.9Q13.3 27.3 13.0 27.6Q12.7 27.8 12.3 27.8ZM17.1 29.3L18.9 29.3L18.9 30.5L17.1 30.5L17.1 35.7Q17.1 36.3 17.3 36.6Q17.6 36.9 18.1 36.9L18.1 36.9Q18.2 36.9 18.4 36.8Q18.7 36.8 18.8 36.8L18.8 36.8L19.1 38.0Q18.9 38.0 18.6 38.1Q18.3 38.1 18.1 38.1L18.1 38.1Q16.9 38.1 16.3 37.5Q15.7 36.9 15.7 35.8L15.7 35.8L15.7 30.5L14.4 30.5L14.4 29.3L15.7 29.3L15.7 27.2L17.1 27.2L17.1 29.3ZM20.7 26.4L22.1 26.4L22.1 38L20.7 38L20.7 26.4ZM28.2 38.2L28.2 38.2Q27.0 38.2 26.0 37.6Q25.1 37.1 24.6 36.1Q24.1 35.0 24.1 33.7Q24.1 32.4 24.6 31.3Q25.1 30.3 26.0 29.7Q26.9 29.2 28.1 29.2L28.1 29.2Q28.8 29.2 29.4 29.4Q30.1 29.6 30.7 30.1Q31.2 30.6 31.5 31.5Q31.9 32.3 31.9 33.5L31.9 33.5L31.9 34.1L25.5 34.1Q25.6 35.0 25.9 35.6L25.9 35.6Q26.2 36.2 26.8 36.6Q27.4 36.9 28.2 36.9L28.2 36.9Q28.7 36.9 29.2 36.8Q29.6 36.6 29.9 36.3Q30.2 36.0 30.4 35.6L30.4 35.6L31.7 36.0Q31.5 36.6 31.0 37.1Q30.5 37.6 29.8 37.9Q29.1 38.2 28.2 38.2ZM25.6 32.9L25.6 32.9L30.4 32.9Q30.4 32.3 30.2 31.8L30.2 31.8Q29.9 31.2 29.4 30.8Q28.8 30.4 28.1 30.4Q27.3 30.4 26.7 30.8Q26.1 31.2 25.8 31.8L25.8 31.8Q25.6 32.3 25.6 32.9Z M40.4 26.4L42.2 26.4L42.2 38L40.8 38L40.8 27.7L40.7 27.7L37.9 29.8L37.9 28.2L40.4 26.4Z "/></g><mask id="satori_om-id-0-0-1"><rect x="0" y="59" width="50" height="0" fill="#fff"/></mask><g  ><path fill="rgb(0, 0, 0)" d="M4.4 66.7L0.8 66.7L0.8 65.4L9.6 65.4L9.6 66.7L5.9 66.7L5.9 77L4.4 77L4.4 66.7ZM13.0 77L11.6 77L11.6 68.3L13.0 68.3L13.0 77ZM12.3 66.8L12.3 66.8Q11.9 66.8 11.6 66.6Q11.3 66.3 11.3 65.9L11.3 65.9Q11.3 65.5 11.6 65.2Q11.9 65.0 12.3 65.0L12.3 65.0Q12.7 65.0 13.0 65.2Q13.3 65.5 13.3 65.9L13.3 65.9Q13.3 66.3 13.0 66.6Q12.7 66.8 12.3 66.8ZM17.1 68.3L18.9 68.3L18.9 69.5L17.1 69.5L17.1 74.7Q17.1 75.3 17.3 75.6Q17.6 75.9 18.1 75.9L18.1 75.9Q18.2 75.9 18.4 75.8Q18.7 75.8 18.8 75.8L18.8 75.8L19.1 77.0Q18.9 77.0 18.6 77.1Q18.3 77.1 18.1 77.1L18.1 77.1Q16.9 77.1 16.3 76.5Q15.7 75.9 15.7 74.8L15.7 74.8L15.7 69.5L14.4 69.5L14.4 68.3L15.7 68.3L15.7 66.2L17.1 66.2L17.1 68.3ZM20.7 65.4L22.1 65.4L22.1 77L20.7 77L20.7 65.4ZM28.2 77.2L28.2 77.2Q27.0 77.2 26.0 76.6Q25.1 76.1 24.6 75.1Q24.1 74.0 24.1 72.7Q24.1 71.4 24.6 70.3Q25.1 69.3 26.0 68.7Q26.9 68.2 28.1 68.2L28.1 68.2Q28.8 68.2 29.4 68.4Q30.1 68.6 30.7 69.1Q31.2 69.6 31.5 70.5Q31.9 71.3 31.9 72.5L31.9 72.5L31.9 73.1L25.5 73.1Q25.6 74.0 25.9 74.6L25.9 74.6Q26.2 75.2 26.8 75.6Q27.4 75.9 28.2 75.9L28.2 75.9Q28.7 75.9 29.2 75.8Q29.6 75.6 29.9 75.3Q30.2 75.0 30.4 74.6L30.4 74.6L31.7 75.0Q31.5 75.6 31.0 76.1Q30.5 76.6 29.8 76.9Q29.1 77.2 28.2 77.2ZM25.6 71.9L25.6 71.9L30.4 71.9Q30.4 71.3 30.2 70.8L30.2 70.8Q29.9 70.2 29.4 69.8Q28.8 69.4 28.1 69.4Q27.3 69.4 26.7 69.8Q26.1 70.2 25.8 70.8L25.8 70.8Q25.6 71.3 25.6 71.9Z M45.8 77L38.3 77L38.3 75.9L42.2 71.7Q42.9 71.0 43.3 70.5Q43.7 70.0 43.9 69.5Q44.2 69.0 44.2 68.5L44.2 68.5Q44.2 67.9 43.9 67.4Q43.6 67.0 43.1 66.7Q42.6 66.5 42.0 66.5L42.0 66.5Q41.3 66.5 40.8 66.8Q40.3 67.0 40.1 67.5Q39.8 68.0 39.8 68.7L39.8 68.7L38.4 68.7Q38.4 67.6 38.9 66.9Q39.3 66.1 40.1 65.6Q41.0 65.2 42.0 65.2L42.0 65.2Q43.0 65.2 43.8 65.6Q44.6 66.1 45.1 66.8Q45.6 67.5 45.6 68.5L45.6 68.5Q45.6 69.1 45.3 69.7Q45.1 70.3 44.5 71.0Q44.0 71.8 42.9 72.9L42.9 72.9L40.4 75.6L40.4 75.7L45.8 75.7L45.8 77Z "/></g><mask id="satori_om-id-0-0-2"><rect x="0" y="99" width="50" height="0" fill="#fff"/></mask><g  ><path fill="rgb(0, 0, 0)" d="M4.4 106.7L0.8 106.7L0.8 105.4L9.6 105.4L9.6 106.7L5.9 106.7L5.9 117L4.4 117L4.4 106.7ZM13.0 117L11.6 117L11.6 108.3L13.0 108.3L13.0 117ZM12.3 106.8L12.3 106.8Q11.9 106.8 11.6 106.6Q11.3 106.3 11.3 105.9L11.3 105.9Q11.3 105.5 11.6 105.2Q11.9 105.0 12.3 105.0L12.3 105.0Q12.7 105.0 13.0 105.2Q13.3 105.5 13.3 105.9L13.3 105.9Q13.3 106.3 13.0 106.6Q12.7 106.8 12.3 106.8ZM17.1 108.3L18.9 108.3L18.9 109.5L17.1 109.5L17.1 114.7Q17.1 115.3 17.3 115.6Q17.6 115.9 18.1 115.9L18.1 115.9Q18.2 115.9 18.4 115.8Q18.7 115.8 18.8 115.8L18.8 115.8L19.1 117.0Q18.9 117.0 18.6 117.1Q18.3 117.1 18.1 117.1L18.1 117.1Q16.9 117.1 16.3 116.5Q15.7 115.9 15.7 114.8L15.7 114.8L15.7 109.5L14.4 109.5L14.4 108.3L15.7 108.3L15.7 106.2L17.1 106.2L17.1 108.3ZM20.7 105.4L22.1 105.4L22.1 117L20.7 117L20.7 105.4ZM28.2 117.2L28.2 117.2Q27.0 117.2 26.0 116.6Q25.1 116.1 24.6 115.1Q24.1 114.0 24.1 112.7Q24.1 111.4 24.6 110.3Q25.1 109.3 26.0 108.7Q26.9 108.2 28.1 108.2L28.1 108.2Q28.8 108.2 29.4 108.4Q30.1 108.6 30.7 109.1Q31.2 109.6 31.5 110.5Q31.9 111.3 31.9 112.5L31.9 112.5L31.9 113.1L25.5 113.1Q25.6 114.0 25.9 114.6L25.9 114.6Q26.2 115.2 26.8 115.6Q27.4 115.9 28.2 115.9L28.2 115.9Q28.7 115.9 29.2 115.8Q29.6 115.6 29.9 115.3Q30.2 115.0 30.4 114.6L30.4 114.6L31.7 115.0Q31.5 115.6 31.0 116.1Q30.5 116.6 29.8 116.9Q29.1 117.2 28.2 117.2ZM25.6 111.9L25.6 111.9L30.4 111.9Q30.4 111.3 30.2 110.8L30.2 110.8Q29.9 110.2 29.4 109.8Q28.8 109.4 28.1 109.4Q27.3 109.4 26.7 109.8Q26.1 110.2 25.8 110.8L25.8 110.8Q25.6 111.3 25.6 111.9Z M42.1 117.2L42.1 117.2Q41.0 117.2 40.1 116.8Q39.2 116.4 38.7 115.7Q38.2 115.0 38.1 114.1L38.1 114.1L39.6 114.1Q39.7 114.6 40.0 115.0Q40.3 115.4 40.9 115.6Q41.4 115.9 42.1 115.9L42.1 115.9Q42.8 115.9 43.4 115.6Q43.9 115.3 44.3 114.9Q44.6 114.4 44.6 113.8L44.6 113.8Q44.6 113.2 44.3 112.7Q44.0 112.2 43.4 112.0Q42.8 111.7 41.9 111.7L41.9 111.7L41.0 111.7L41.0 110.4L41.9 110.4Q42.6 110.4 43.1 110.1Q43.6 109.9 43.9 109.5Q44.2 109.0 44.2 108.4L44.2 108.4Q44.2 107.8 43.9 107.4Q43.7 107.0 43.2 106.7Q42.8 106.5 42.1 106.5L42.1 106.5Q41.5 106.5 41.0 106.7Q40.5 106.9 40.2 107.3Q39.8 107.7 39.8 108.3L39.8 108.3L38.4 108.3Q38.4 107.4 38.9 106.7Q39.4 106.0 40.3 105.6Q41.1 105.2 42.1 105.2L42.1 105.2Q43.2 105.2 44.0 105.6Q44.8 106.1 45.2 106.8Q45.6 107.5 45.6 108.3L45.6 108.3Q45.6 109.3 45.1 110Q44.6 110.7 43.7 111.0L43.7 111.0L43.7 111.0Q44.5 111.2 45.0 111.5Q45.5 111.9 45.8 112.5Q46.1 113.1 46.1 113.8L46.1 113.8Q46.1 114.8 45.6 115.5Q45.0 116.3 44.1 116.7Q43.2 117.2 42.1 117.2Z "/></g><mask id="satori_om-id-0-1"><rect x="82" y="0" width="126" height="92" fill="#fff"/></mask><mask id="satori_om-id-0-1-0"><rect x="82" y="0" width="0" height="0" fill="#fff"/></mask><mask id="satori_om-id-0-1-0-0"><rect x="82" y="0" width="126" height="92" fill="#fff"/></mask><mask id="satori_om-id-0-1-0-0-0"><rect x="82" y="16" width="126" height="0" fill="#fff"/></mask><g  ><path fill="rgba(9, 9, 9, 1)" d="M88.1 34.2L88.1 34.2Q86.6 34.2 85.5 33.4Q84.3 32.7 83.6 31.4Q83.0 30.0 83.0 28.2L83.0 28.2Q83.0 26.3 83.6 25.0Q84.3 23.7 85.5 22.9Q86.6 22.2 88.1 22.2L88.1 22.2Q89.6 22.2 90.8 22.9Q91.9 23.7 92.6 25.0Q93.3 26.3 93.3 28.2L93.3 28.2Q93.3 30.0 92.6 31.4Q91.9 32.7 90.8 33.4Q89.6 34.2 88.1 34.2ZM88.1 32.8L88.1 32.8Q89.2 32.8 90.0 32.3Q90.8 31.7 91.3 30.7Q91.8 29.7 91.8 28.2L91.8 28.2Q91.8 26.7 91.3 25.7Q90.8 24.6 90.0 24.1Q89.2 23.6 88.1 23.6L88.1 23.6Q87.1 23.6 86.2 24.1Q85.4 24.6 84.9 25.7Q84.4 26.7 84.4 28.2L84.4 28.2Q84.4 29.7 84.9 30.7Q85.4 31.7 86.2 32.3Q87.1 32.8 88.1 32.8ZM96.9 28.8L96.9 28.8L96.9 34L95.5 34L95.5 25.3L96.8 25.3L96.8 26.9Q97.2 26.1 97.8 25.7L97.8 25.7Q98.5 25.2 99.5 25.2L99.5 25.2Q100.4 25.2 101.0 25.5Q101.7 25.9 102.1 26.6Q102.5 27.3 102.5 28.5L102.5 28.5L102.5 34L101.0 34L101.0 28.6Q101.0 27.6 100.5 27.0Q100.0 26.4 99.1 26.4L99.1 26.4Q98.5 26.4 98.0 26.7Q97.5 27.0 97.2 27.5Q96.9 28.0 96.9 28.8Z M111.1 25.3L112.9 25.3L112.9 26.5L111.1 26.5L111.1 31.7Q111.1 32.3 111.3 32.6Q111.5 32.9 112.1 32.9L112.1 32.9Q112.2 32.9 112.4 32.8Q112.6 32.8 112.8 32.8L112.8 32.8L113.1 34.0Q112.9 34.0 112.6 34.1Q112.3 34.1 112.1 34.1L112.1 34.1Q110.9 34.1 110.3 33.5Q109.7 32.9 109.7 31.8L109.7 31.8L109.7 26.5L108.3 26.5L108.3 25.3L109.7 25.3L109.7 23.2L111.1 23.2L111.1 25.3ZM116.1 28.8L116.1 28.8L116.1 34L114.7 34L114.7 22.4L116.1 22.4L116.1 26.8Q116.4 26.0 117.0 25.7L117.0 25.7Q117.7 25.2 118.7 25.2L118.7 25.2Q119.6 25.2 120.2 25.5Q120.9 25.9 121.3 26.6Q121.6 27.3 121.6 28.5L121.6 28.5L121.6 34L120.2 34L120.2 28.6Q120.2 27.6 119.7 27.0Q119.2 26.4 118.3 26.4L118.3 26.4Q117.6 26.4 117.1 26.7Q116.6 27.0 116.4 27.5Q116.1 28.0 116.1 28.8ZM125.5 34L124.1 34L124.1 25.3L125.5 25.3L125.5 34ZM124.8 23.8L124.8 23.8Q124.4 23.8 124.1 23.6Q123.9 23.3 123.9 22.9L123.9 22.9Q123.9 22.5 124.1 22.2Q124.4 22.0 124.8 22.0L124.8 22.0Q125.2 22.0 125.5 22.2Q125.8 22.5 125.8 22.9L125.8 22.9Q125.8 23.3 125.5 23.6Q125.2 23.8 124.8 23.8ZM131.0 34.2L131.0 34.2Q130.1 34.2 129.4 33.9Q128.7 33.7 128.2 33.1Q127.8 32.6 127.6 31.9L127.6 31.9L128.9 31.6Q129.1 32.3 129.6 32.6Q130.2 33.0 130.9 33.0L130.9 33.0Q131.9 33.0 132.4 32.6Q132.9 32.2 132.9 31.6L132.9 31.6Q132.9 31.2 132.6 30.9Q132.3 30.6 131.7 30.4L131.7 30.4L130.2 30.1Q129.0 29.8 128.4 29.2Q127.9 28.6 127.9 27.7L127.9 27.7Q127.9 27.0 128.3 26.4Q128.7 25.8 129.4 25.5Q130.2 25.2 131.1 25.2L131.1 25.2Q132 25.2 132.6 25.4Q133.3 25.7 133.7 26.2Q134.0 26.6 134.2 27.3L134.2 27.3L133.0 27.6Q132.8 27.1 132.4 26.7Q132.0 26.4 131.1 26.4L131.1 26.4Q130.3 26.4 129.8 26.7Q129.3 27.1 129.3 27.6L129.3 27.6Q129.3 28.1 129.6 28.4Q130.0 28.7 130.8 28.9L130.8 28.9L132.1 29.2Q133.3 29.5 133.8 30.1Q134.4 30.6 134.4 31.5L134.4 31.5Q134.4 32.3 134.0 32.9Q133.5 33.5 132.8 33.8Q132.0 34.2 131.0 34.2Z M142.3 37.3L140.9 37.3L140.9 25.3L142.3 25.3L142.3 26.7L142.5 26.7Q142.6 26.4 142.9 26.1Q143.1 25.7 143.6 25.4Q144.1 25.2 145.0 25.2L145.0 25.2Q146.1 25.2 146.9 25.7Q147.7 26.3 148.2 27.3Q148.7 28.3 148.7 29.7L148.7 29.7Q148.7 31.0 148.2 32.1Q147.8 33.1 146.9 33.6Q146.1 34.2 145.0 34.2L145.0 34.2Q144.2 34.2 143.7 33.9Q143.1 33.6 142.9 33.3Q142.6 32.9 142.5 32.6L142.5 32.6L142.3 32.6L142.3 37.3ZM144.8 32.9L144.8 32.9Q145.6 32.9 146.2 32.5Q146.7 32.0 147.0 31.3Q147.3 30.6 147.3 29.6L147.3 29.6Q147.3 28.7 147.0 28.0Q146.7 27.3 146.2 26.8Q145.6 26.4 144.8 26.4L144.8 26.4Q144.0 26.4 143.4 26.8Q142.9 27.2 142.6 27.9Q142.3 28.7 142.3 29.6L142.3 29.6Q142.3 30.6 142.6 31.4Q142.9 32.1 143.4 32.5Q144.0 32.9 144.8 32.9ZM153.2 34.2L153.2 34.2Q152.4 34.2 151.7 33.9Q151 33.6 150.6 33.0Q150.2 32.4 150.2 31.5L150.2 31.5Q150.2 30.8 150.5 30.3Q150.8 29.8 151.3 29.6Q151.8 29.3 152.4 29.2Q153.0 29.0 153.6 28.9L153.6 28.9Q154.4 28.8 154.9 28.8Q155.4 28.7 155.6 28.6Q155.8 28.5 155.8 28.1L155.8 28.1L155.8 28.1Q155.8 27.6 155.6 27.2Q155.4 26.8 155.0 26.6Q154.6 26.4 154.0 26.4L154.0 26.4Q153.4 26.4 152.9 26.6Q152.5 26.8 152.2 27.1Q151.9 27.4 151.8 27.7L151.8 27.7L150.5 27.2Q150.8 26.4 151.4 26.0Q151.9 25.5 152.6 25.3Q153.3 25.2 154.0 25.2L154.0 25.2Q154.4 25.2 155.0 25.3Q155.5 25.4 156.1 25.7Q156.6 26.0 156.9 26.6Q157.3 27.2 157.3 28.2L157.3 28.2L157.3 34L155.9 34L155.9 32.8L155.8 32.8Q155.6 33.1 155.3 33.4Q155.0 33.8 154.4 34.0Q153.9 34.2 153.2 34.2ZM153.4 33.0L153.4 33.0Q154.2 33.0 154.7 32.7Q155.3 32.4 155.6 31.9Q155.8 31.4 155.8 30.8L155.8 30.8L155.8 29.6Q155.8 29.7 155.5 29.8Q155.2 29.9 154.8 30.0Q154.4 30.0 154.1 30.1Q153.7 30.1 153.5 30.1L153.5 30.1Q153.0 30.2 152.6 30.3Q152.1 30.5 151.9 30.8Q151.6 31.1 151.6 31.6L151.6 31.6Q151.6 32.0 151.9 32.3Q152.1 32.6 152.5 32.8Q152.9 33.0 153.4 33.0ZM163.3 37.5L163.3 37.5Q162.3 37.5 161.6 37.2Q160.9 37.0 160.4 36.6Q159.9 36.1 159.7 35.7L159.7 35.7L160.8 34.9Q161.0 35.2 161.3 35.5Q161.5 35.8 162.0 36.0Q162.5 36.2 163.3 36.2L163.3 36.2Q164.3 36.2 165.0 35.7Q165.7 35.2 165.7 34.1L165.7 34.1L165.7 32.4L165.5 32.4Q165.4 32.6 165.1 33.0Q164.8 33.3 164.3 33.6Q163.8 33.9 163.0 33.9L163.0 33.9Q161.9 33.9 161.1 33.4Q160.3 32.9 159.8 31.9Q159.3 31.0 159.3 29.6L159.3 29.6Q159.3 28.2 159.8 27.2Q160.3 26.3 161.1 25.7Q161.9 25.2 163.0 25.2L163.0 25.2Q163.9 25.2 164.4 25.4Q164.9 25.7 165.1 26.1Q165.4 26.4 165.6 26.7L165.6 26.7L165.7 26.7L165.7 25.3L167.1 25.3L167.1 34.2Q167.1 35.4 166.6 36.1Q166.0 36.8 165.2 37.1Q164.3 37.5 163.3 37.5ZM163.2 32.6L163.2 32.6Q164.0 32.6 164.6 32.2Q165.1 31.9 165.4 31.2Q165.7 30.5 165.7 29.6L165.7 29.6Q165.7 28.6 165.4 27.9Q165.1 27.2 164.6 26.8Q164.0 26.4 163.2 26.4L163.2 26.4Q162.4 26.4 161.8 26.8Q161.3 27.3 161.0 28.0Q160.7 28.7 160.7 29.6L160.7 29.6Q160.7 30.5 161.0 31.1Q161.3 31.8 161.8 32.2Q162.4 32.6 163.2 32.6ZM173.2 34.2L173.2 34.2Q171.9 34.2 171.0 33.6Q170.1 33.1 169.6 32.1Q169.1 31.0 169.1 29.7Q169.1 28.4 169.6 27.3Q170.1 26.3 171.0 25.7Q171.9 25.2 173.0 25.2L173.0 25.2Q173.7 25.2 174.4 25.4Q175.1 25.6 175.6 26.1Q176.2 26.6 176.5 27.5Q176.8 28.3 176.8 29.5L176.8 29.5L176.8 30.1L170.5 30.1Q170.6 31.0 170.9 31.6L170.9 31.6Q171.2 32.2 171.8 32.6Q172.4 32.9 173.2 32.9L173.2 32.9Q173.7 32.9 174.1 32.8Q174.6 32.6 174.9 32.3Q175.2 32.0 175.3 31.6L175.3 31.6L176.7 32.0Q176.5 32.6 176.0 33.1Q175.5 33.6 174.8 33.9Q174.1 34.2 173.2 34.2ZM170.5 28.9L170.5 28.9L175.4 28.9Q175.4 28.3 175.2 27.8L175.2 27.8Q174.9 27.2 174.4 26.8Q173.8 26.4 173.0 26.4Q172.3 26.4 171.7 26.8Q171.1 27.2 170.8 27.8L170.8 27.8Q170.6 28.3 170.5 28.9Z "/></g><mask id="satori_om-id-0-1-0-0-1"><rect x="82" y="48" width="126" height="52" fill="#fff"/></mask><mask id="satori_om-id-0-1-0-0-1-0"><rect x="82" y="48" width="126" height="24" fill="#fff"/></mask><mask id="satori_om-id-0-1-0-0-1-0-0"><rect x="82" y="48" width="22" height="24" fill="#fff"/></mask><g  ><path fill="rgb(0, 0, 0)" d="M84.9 66L83.4 66L83.4 54.4L84.9 54.4L84.9 59.4L91 59.4L91 54.4L92.5 54.4L92.5 66L91 66L91 60.7L84.9 60.7L84.9 66ZM102.5 66L95.1 66L95.1 64.9L99.0 60.7Q99.6 60.0 100.0 59.5Q100.5 59.0 100.7 58.5Q100.9 58.0 100.9 57.5L100.9 57.5Q100.9 56.9 100.6 56.4Q100.3 56.0 99.8 55.7Q99.3 55.5 98.7 55.5L98.7 55.5Q98.1 55.5 97.6 55.8Q97.1 56.0 96.8 56.5Q96.5 57.0 96.5 57.7L96.5 57.7L95.1 57.7Q95.1 56.6 95.6 55.9Q96.1 55.1 96.9 54.6Q97.7 54.2 98.8 54.2L98.8 54.2Q99.8 54.2 100.6 54.6Q101.4 55.1 101.9 55.8Q102.3 56.5 102.3 57.5L102.3 57.5Q102.3 58.1 102.1 58.7Q101.9 59.3 101.3 60.0Q100.7 60.8 99.7 61.9L99.7 61.9L97.1 64.6L97.1 64.7L102.5 64.7L102.5 66Z "/></g><mask id="satori_om-id-0-1-0-0-1-1"><rect x="82" y="76" width="126" height="24" fill="#fff"/></mask><mask id="satori_om-id-0-1-0-0-1-1-0"><rect x="82" y="76" width="22" height="24" fill="#fff"/></mask><g  ><path fill="rgb(0, 0, 0)" d="M84.9 94L83.4 94L83.4 82.4L84.9 82.4L84.9 87.4L91 87.4L91 82.4L92.5 82.4L92.5 94L91 94L91 88.7L84.9 88.7L84.9 94ZM98.9 94.2L98.9 94.2Q97.7 94.2 96.8 93.8Q95.9 93.4 95.4 92.7Q94.9 92.0 94.9 91.1L94.9 91.1L96.4 91.1Q96.4 91.6 96.7 92.0Q97.1 92.4 97.6 92.6Q98.2 92.9 98.8 92.9L98.8 92.9Q99.6 92.9 100.1 92.6Q100.7 92.3 101.0 91.9Q101.4 91.4 101.4 90.8L101.4 90.8Q101.4 90.2 101.0 89.7Q100.7 89.2 100.1 89.0Q99.5 88.7 98.6 88.7L98.6 88.7L97.7 88.7L97.7 87.4L98.6 87.4Q99.3 87.4 99.8 87.1Q100.4 86.9 100.7 86.5Q100.9 86.0 100.9 85.4L100.9 85.4Q100.9 84.8 100.7 84.4Q100.4 84.0 100.0 83.7Q99.5 83.5 98.9 83.5L98.9 83.5Q98.3 83.5 97.8 83.7Q97.2 83.9 96.9 84.3Q96.6 84.7 96.5 85.3L96.5 85.3L95.1 85.3Q95.1 84.4 95.7 83.7Q96.2 83.0 97.0 82.6Q97.9 82.2 98.9 82.2L98.9 82.2Q100.0 82.2 100.8 82.6Q101.6 83.1 102.0 83.8Q102.4 84.5 102.4 85.3L102.4 85.3Q102.4 86.3 101.9 87Q101.4 87.7 100.5 88.0L100.5 88.0L100.5 88.0Q101.2 88.2 101.7 88.5Q102.3 88.9 102.5 89.5Q102.8 90.1 102.8 90.8L102.8 90.8Q102.8 91.8 102.3 92.5Q101.8 93.3 100.9 93.7Q100.0 94.2 98.9 94.2Z "/></g></svg>